<svg xmlns="http://www.w3.org/2000/svg" viewbox="0 0 400 400">
  <polygon stroke="black" stroke-width="1.0416666666666665" fill="none" points="100.0,141.66666666666663 100.0,116.66666666666663 108.33333333333334,108.33333333333331 125.0,108.33333333333331 125.0,83.33333333333331 133.33333333333331,83.33333333333331 133.33333333333331,149.99999999999997 108.33333333333334,149.99999999999997" />
  <polygon stroke="black" stroke-width="1.0416666666666665" fill="none" points="108.33333333333334,138.33333333333331 108.33333333333334,120.0 111.66666666666666,116.66666666666663 125.0,116.66666666666663 125.0,141.66666666666663 111.66666666666666,141.66666666666663" />
  <polygon stroke="black" stroke-width="1.0416666666666667" fill="none" points="216.66666666666666,141.66666666666663 216.66666666666666,116.66666666666663 208.33333333333331,108.33333333333331 191.66666666666666,108.33333333333331 191.66666666666666,83.33333333333331 183.33333333333331,83.33333333333331 183.33333333333331,149.99999999999997 208.33333333333331,149.99999999999997" />
  <polygon stroke="black" stroke-width="1.0416666666666667" fill="none" points="208.33333333333331,138.33333333333331 208.33333333333331,120.0 205.0,116.66666666666663 191.66666666666666,116.66666666666663 191.66666666666666,141.66666666666663 205.0,141.66666666666663" />
  <polygon stroke="black" stroke-width="1.0416666666666667" fill="none" points="266.6666666666667,91.66666666666669 266.6666666666667,116.66666666666669 275.0,125.0 291.6666666666667,125.0 291.6666666666667,150.0 300.0,150.0 300.0,83.33333333333331 275.0,83.33333333333331" />
  <polygon stroke="black" stroke-width="1.0416666666666667" fill="none" points="275.0,95.0 275.0,113.33333333333331 278.3333333333333,116.66666666666669 291.6666666666667,116.66666666666669 291.6666666666667,91.66666666666669 278.3333333333333,91.66666666666669" />
  <polygon stroke="black" stroke-width="1.0416666666666667" fill="none" points="133.33333333333331,174.99999999999997 133.33333333333331,200.0 124.99999999999997,208.33333333333331 108.33333333333331,208.33333333333331 108.33333333333331,233.33333333333331 99.99999999999999,233.33333333333331 99.99999999999999,166.66666666666666 124.99999999999997,166.66666666666666" />
  <polygon stroke="black" stroke-width="1.0416666666666667" fill="none" points="124.99999999999997,178.33333333333331 124.99999999999997,196.66666666666666 121.66666666666666,200.0 108.33333333333331,200.0 108.33333333333331,174.99999999999997 121.66666666666666,174.99999999999997" />
  <polygon stroke="black" stroke-width="1.0416666666666667" fill="none" points="183.33333333333331,225.0 183.33333333333331,200.0 191.66666666666666,191.66666666666666 208.33333333333331,191.66666666666666 208.33333333333331,166.66666666666663 216.66666666666666,166.66666666666663 216.66666666666666,233.33333333333331 191.66666666666666,233.33333333333331" />
  <polygon stroke="black" stroke-width="1.0416666666666667" fill="none" points="191.66666666666666,221.66666666666666 191.66666666666666,203.33333333333331 195.0,200.0 208.33333333333331,200.0 208.33333333333331,225.0 195.0,225.0" />
  <polygon stroke="black" stroke-width="1.0416666666666667" fill="none" points="300.0,225.0 300.0,200.0 291.6666666666667,191.66666666666666 275.0,191.66666666666666 275.0,166.66666666666663 266.6666666666667,166.66666666666663 266.6666666666667,233.33333333333331 291.6666666666667,233.33333333333331" />
  <polygon stroke="black" stroke-width="1.0416666666666667" fill="none" points="291.6666666666667,221.66666666666666 291.6666666666667,203.33333333333331 288.3333333333333,200.0 275.0,200.0 275.0,225.0 288.3333333333333,225.0" />
  <polygon stroke="black" stroke-width="1.0416666666666667" fill="none" points="99.99999999999999,258.3333333333333 99.99999999999999,283.3333333333333 108.33333333333331,291.66666666666663 124.99999999999997,291.66666666666663 124.99999999999997,316.6666666666667 133.33333333333331,316.6666666666667 133.33333333333331,250.0 108.33333333333331,250.0" />
  <polygon stroke="black" stroke-width="1.0416666666666667" fill="none" points="108.33333333333331,261.66666666666663 108.33333333333331,280.0 111.66666666666666,283.3333333333333 124.99999999999997,283.3333333333333 124.99999999999997,258.3333333333333 111.66666666666666,258.3333333333333" />
  <polygon stroke="black" stroke-width="1.0416666666666667" fill="none" points="216.66666666666666,258.3333333333333 216.66666666666666,283.3333333333333 208.33333333333331,291.66666666666663 191.66666666666666,291.66666666666663 191.66666666666666,316.6666666666667 183.33333333333331,316.6666666666667 183.33333333333331,250.0 208.33333333333331,250.0" />
  <polygon stroke="black" stroke-width="1.0416666666666667" fill="none" points="208.33333333333331,261.66666666666663 208.33333333333331,280.0 205.0,283.3333333333333 191.66666666666666,283.3333333333333 191.66666666666666,258.3333333333333 205.0,258.3333333333333" />
  <polygon stroke="black" stroke-width="1.0416666666666667" fill="none" points="266.6666666666667,308.3333333333333 266.6666666666667,283.3333333333333 275.0,275.0 291.6666666666667,275.0 291.6666666666667,250.0 300.0,250.0 300.0,316.6666666666667 275.0,316.6666666666667" />
  <polygon stroke="black" stroke-width="1.0416666666666667" fill="none" points="275.0,305.0 275.0,286.66666666666663 278.3333333333333,283.3333333333333 291.6666666666667,283.3333333333333 291.6666666666667,308.3333333333333 278.3333333333333,308.3333333333333" />

</svg>
