<svg xmlns="http://www.w3.org/2000/svg" viewbox="0 0 400 400">
  <polygon stroke="black" stroke-width="1.5625" fill="none" points="112.5,175.0 112.5,137.5 125.0,125.0 150.0,125.0 150.0,87.5 162.5,87.5 162.5,187.5 125.0,187.5" />
  <polygon stroke="black" stroke-width="1.5625" fill="none" points="125.0,170.0 125.0,142.5 130.0,137.5 150.0,137.5 150.0,175.0 130.0,175.0" />
  <polygon stroke="black" stroke-width="1.5625" fill="none" points="287.5,175.0 287.5,137.5 275.0,125.0 250.0,125.0 250.0,87.5 237.5,87.5 237.5,187.5 275.0,187.5" />
  <polygon stroke="black" stroke-width="1.5625" fill="none" points="275.0,170.0 275.0,142.5 270.0,137.5 250.0,137.5 250.0,175.0 270.0,175.0" />
  <polygon stroke="black" stroke-width="1.5625" fill="none" points="112.5,225.0 112.5,262.5 125.0,275.0 150.0,275.0 150.0,312.5 162.5,312.5 162.5,212.5 125.0,212.5" />
  <polygon stroke="black" stroke-width="1.5625" fill="none" points="125.0,230.0 125.0,257.5 130.0,262.5 150.0,262.5 150.0,225.0 130.0,225.0" />
  <polygon stroke="black" stroke-width="1.5625" fill="none" points="287.5,225.0 287.5,262.5 275.0,275.0 250.0,275.0 250.0,312.5 237.5,312.5 237.5,212.5 275.0,212.5" />
  <polygon stroke="black" stroke-width="1.5625" fill="none" points="275.0,230.0 275.0,257.5 270.0,262.5 250.0,262.5 250.0,225.0 270.0,225.0" />

</svg>
