<svg xmlns="http://www.w3.org/2000/svg" viewbox="0 0 400 400">
  <path stroke="black" stroke-width="2.209708691207961" fill="none" d="M273.25 97.75 C 204.375 130.625, 191.0 126.5, 107.875 88.375" />
  <path stroke="black" stroke-width="2.209708691207961" fill="none" d="M133.5 125.5 C 115.75 101.75, 101.0 90.5, 75.0 75.0" />
  <path stroke="black" stroke-width="2.209708691207961" fill="none" d="M200.0 137.5 C 177.75 129.25, 160.0 127.0, 133.5 125.5" />
  <path stroke="black" stroke-width="2.209708691207961" fill="none" d="M200.0 200.0 C 200.0 172.5, 200.0 156.25, 200.0 137.5" />
  <path stroke="black" stroke-width="2.209708691207961" fill="none" d="M262.5 200.0 C 237.5 200.0, 222.5 200.0, 200.0 200.0" />
  <path stroke="black" stroke-width="2.209708691207961" fill="none" d="M262.5 200.0 C 270.75 177.75, 273.0 160.0, 274.5 133.5" />
  <path stroke="black" stroke-width="2.209708691207961" fill="none" d="M274.5 133.5 C 237.5 148.75, 231.25 148.75, 200.0 137.5" />
  <path stroke="black" stroke-width="2.209708691207961" fill="none" d="M274.5 133.5 C 298.25 115.75, 309.5 101.0, 325.0 75.0" />
  <path stroke="black" stroke-width="2.209708691207961" fill="none" d="M325.0 75.0 C 304.25 69.75, 291.25 68.0, 270.5 71.0" />
  <path stroke="black" stroke-width="2.209708691207961" fill="none" d="M270.5 71.0 C 235.25 72.75, 238.5 103.5, 200.0 105.75" />
  <path stroke="black" stroke-width="2.209708691207961" fill="none" d="M200.0 105.75 C 193.75 106.25, 181.25 106.25, 168.75 106.25" />
  <path stroke="black" stroke-width="2.209708691207961" fill="none" d="M168.75 106.25 C 153.5 99.25, 143.5 91.5, 129.5 79.0" />
  <path stroke="black" stroke-width="2.209708691207961" fill="none" d="M129.5 79.0 C 108.75 82.0, 95.75 80.25, 75.0 75.0" />
  <path stroke="black" stroke-width="2.209708691207961" fill="none" d="M270.5 71.0 C 256.5 58.5, 246.5 50.75, 231.25 43.75" />
  <path stroke="black" stroke-width="2.209708691207961" fill="none" d="M231.25 43.75 C 215.625 59.375, 209.375 65.625, 200.0 75.0" />
  <path stroke="black" stroke-width="2.209708691207961" fill="none" d="M200.0 75.0 C 200.0 85.0, 200.0 97.5, 200.0 105.75" />
  <path stroke="black" stroke-width="2.209708691207961" fill="none" d="M249.375 71.875 C 244.25 61.25, 237.5 56.0, 225.625 52.625" />
  <path stroke="black" stroke-width="2.209708691207961" fill="none" d="M233.125 81.875 C 230.25 69.75, 226.5 64.75, 217.125 60.625" />
  <path stroke="black" stroke-width="2.209708691207961" fill="none" d="M219.25 93.75 C 220.5 79.5, 218.25 76.25, 209.25 68.5" />
  <path stroke="black" stroke-width="2.209708691207961" fill="none" d="M195.875 91.375 C 191.875 91.875, 188.125 91.875, 186.375 91.125" />
  <path stroke="black" stroke-width="2.209708691207961" fill="none" d="M195.875 98.875 C 188.75 101.25, 185.0 101.25, 179.125 97.875" />
  <path stroke="black" stroke-width="2.209708691207961" fill="none" d="M250.875 191.625 C 260.0 171.25, 258.75 157.5, 254.25 145.25" />
  <path stroke="black" stroke-width="2.209708691207961" fill="none" d="M238.625 191.625 C 245.0 170.0, 245.0 162.5, 241.875 148.125" />
  <path stroke="black" stroke-width="2.209708691207961" fill="none" d="M222.875 191.625 C 231.25 171.25, 231.25 161.25, 227.625 147.375" />
  <path stroke="black" stroke-width="2.209708691207961" fill="none" d="M210.625 194.875 C 217.5 167.5, 217.5 157.5, 215.25 144.75" />
  <path stroke="black" stroke-width="2.209708691207961" fill="none" d="M275.625 111.125 C 275.25 106.0, 275.25 103.5, 275.25 100.25" />
  <path stroke="black" stroke-width="2.209708691207961" fill="none" d="M275.625 111.125 C 283.5 106.0, 289.75 99.75, 295.75 91.0" />
  <path stroke="black" stroke-width="2.209708691207961" fill="none" d="M295.75 91.0 C 290.875 87.875, 282.5 94.5, 275.25 100.25" />
  <path stroke="black" stroke-width="2.209708691207961" fill="none" d="M273.5 94.0 C 272.5 90.0, 271.25 85.0, 270.625 82.625" />
  <path stroke="black" stroke-width="2.209708691207961" fill="none" d="M273.5 94.0 C 285.625 86.875, 287.5 85.0, 291.625 80.375" />
  <path stroke="black" stroke-width="2.209708691207961" fill="none" d="M291.625 80.375 C 281.875 80.625, 276.0 81.0, 270.625 82.625" />
  <path stroke="black" stroke-width="2.209708691207961" fill="none" d="M97.75 126.75 C 130.625 195.625, 126.5 209.0, 88.375 292.125" />
  <path stroke="black" stroke-width="2.209708691207961" fill="none" d="M125.5 266.5 C 101.75 284.25, 90.5 299.0, 75.0 325.0" />
  <path stroke="black" stroke-width="2.209708691207961" fill="none" d="M137.5 200.0 C 129.25 222.25, 127.0 240.0, 125.5 266.5" />
  <path stroke="black" stroke-width="2.209708691207961" fill="none" d="M200.0 200.0 C 172.5 200.0, 156.25 200.0, 137.5 200.0" />
  <path stroke="black" stroke-width="2.209708691207961" fill="none" d="M200.0 137.5 C 200.0 162.5, 200.0 177.5, 200.0 200.0" />
  <path stroke="black" stroke-width="2.209708691207961" fill="none" d="M200.0 137.5 C 177.75 129.25, 160.0 127.0, 133.5 125.5" />
  <path stroke="black" stroke-width="2.209708691207961" fill="none" d="M133.5 125.5 C 148.75 162.5, 148.75 168.75, 137.5 200.0" />
  <path stroke="black" stroke-width="2.209708691207961" fill="none" d="M133.5 125.5 C 115.75 101.75, 101.0 90.5, 75.0 75.0" />
  <path stroke="black" stroke-width="2.209708691207961" fill="none" d="M75.0 75.0 C 69.75 95.75, 68.0 108.75, 71.0 129.5" />
  <path stroke="black" stroke-width="2.209708691207961" fill="none" d="M71.0 129.5 C 72.75 164.75, 103.5 161.5, 105.75 200.0" />
  <path stroke="black" stroke-width="2.209708691207961" fill="none" d="M105.75 200.0 C 106.25 206.25, 106.25 218.75, 106.25 231.25" />
  <path stroke="black" stroke-width="2.209708691207961" fill="none" d="M106.25 231.25 C 99.25 246.5, 91.5 256.5, 79.0 270.5" />
  <path stroke="black" stroke-width="2.209708691207961" fill="none" d="M79.0 270.5 C 82.0 291.25, 80.25 304.25, 75.0 325.0" />
  <path stroke="black" stroke-width="2.209708691207961" fill="none" d="M71.0 129.5 C 58.5 143.5, 50.75 153.5, 43.75 168.75" />
  <path stroke="black" stroke-width="2.209708691207961" fill="none" d="M43.75 168.75 C 59.375 184.375, 65.625 190.625, 75.0 200.0" />
  <path stroke="black" stroke-width="2.209708691207961" fill="none" d="M75.0 200.0 C 85.0 200.0, 97.5 200.0, 105.75 200.0" />
  <path stroke="black" stroke-width="2.209708691207961" fill="none" d="M71.875 150.625 C 61.25 155.75, 56.0 162.5, 52.625 174.375" />
  <path stroke="black" stroke-width="2.209708691207961" fill="none" d="M81.875 166.875 C 69.75 169.75, 64.75 173.5, 60.625 182.875" />
  <path stroke="black" stroke-width="2.209708691207961" fill="none" d="M93.75 180.75 C 79.5 179.5, 76.25 181.75, 68.5 190.75" />
  <path stroke="black" stroke-width="2.209708691207961" fill="none" d="M91.375 204.125 C 91.875 208.125, 91.875 211.875, 91.125 213.625" />
  <path stroke="black" stroke-width="2.209708691207961" fill="none" d="M98.875 204.125 C 101.25 211.25, 101.25 215.0, 97.875 220.875" />
  <path stroke="black" stroke-width="2.209708691207961" fill="none" d="M191.625 149.125 C 171.25 140.0, 157.5 141.25, 145.25 145.75" />
  <path stroke="black" stroke-width="2.209708691207961" fill="none" d="M191.625 161.375 C 170.0 155.0, 162.5 155.0, 148.125 158.125" />
  <path stroke="black" stroke-width="2.209708691207961" fill="none" d="M191.625 177.125 C 171.25 168.75, 161.25 168.75, 147.375 172.375" />
  <path stroke="black" stroke-width="2.209708691207961" fill="none" d="M194.875 189.375 C 167.5 182.5, 157.5 182.5, 144.75 184.75" />
  <path stroke="black" stroke-width="2.209708691207961" fill="none" d="M111.125 124.375 C 106.0 124.75, 103.5 124.75, 100.25 124.75" />
  <path stroke="black" stroke-width="2.209708691207961" fill="none" d="M111.125 124.375 C 106.0 116.5, 99.75 110.25, 91.0 104.25" />
  <path stroke="black" stroke-width="2.209708691207961" fill="none" d="M91.0 104.25 C 87.875 109.125, 94.5 117.5, 100.25 124.75" />
  <path stroke="black" stroke-width="2.209708691207961" fill="none" d="M94.0 126.5 C 90.0 127.5, 85.0 128.75, 82.625 129.375" />
  <path stroke="black" stroke-width="2.209708691207961" fill="none" d="M94.0 126.5 C 86.875 114.375, 85.0 112.5, 80.375 108.375" />
  <path stroke="black" stroke-width="2.209708691207961" fill="none" d="M80.375 108.375 C 80.625 118.125, 81.0 124.0, 82.625 129.375" />
  <path stroke="black" stroke-width="2.209708691207961" fill="none" d="M126.75 302.25 C 195.625 269.375, 209.0 273.5, 292.125 311.625" />
  <path stroke="black" stroke-width="2.209708691207961" fill="none" d="M266.5 274.5 C 284.25 298.25, 299.0 309.5, 325.0 325.0" />
  <path stroke="black" stroke-width="2.209708691207961" fill="none" d="M200.0 262.5 C 222.25 270.75, 240.0 273.0, 266.5 274.5" />
  <path stroke="black" stroke-width="2.209708691207961" fill="none" d="M200.0 200.0 C 200.0 227.5, 200.0 243.75, 200.0 262.5" />
  <path stroke="black" stroke-width="2.209708691207961" fill="none" d="M137.5 200.0 C 162.5 200.0, 177.5 200.0, 200.0 200.0" />
  <path stroke="black" stroke-width="2.209708691207961" fill="none" d="M137.5 200.0 C 129.25 222.25, 127.0 240.0, 125.5 266.5" />
  <path stroke="black" stroke-width="2.209708691207961" fill="none" d="M125.5 266.5 C 162.5 251.25, 168.75 251.25, 200.0 262.5" />
  <path stroke="black" stroke-width="2.209708691207961" fill="none" d="M125.5 266.5 C 101.75 284.25, 90.5 299.0, 75.0 325.0" />
  <path stroke="black" stroke-width="2.209708691207961" fill="none" d="M75.0 325.0 C 95.75 330.25, 108.75 332.0, 129.5 329.0" />
  <path stroke="black" stroke-width="2.209708691207961" fill="none" d="M129.5 329.0 C 164.75 327.25, 161.5 296.5, 200.0 294.25" />
  <path stroke="black" stroke-width="2.209708691207961" fill="none" d="M200.0 294.25 C 206.25 293.75, 218.75 293.75, 231.25 293.75" />
  <path stroke="black" stroke-width="2.209708691207961" fill="none" d="M231.25 293.75 C 246.5 300.75, 256.5 308.5, 270.5 321.0" />
  <path stroke="black" stroke-width="2.209708691207961" fill="none" d="M270.5 321.0 C 291.25 318.0, 304.25 319.75, 325.0 325.0" />
  <path stroke="black" stroke-width="2.209708691207961" fill="none" d="M129.5 329.0 C 143.5 341.5, 153.5 349.25, 168.75 356.25" />
  <path stroke="black" stroke-width="2.209708691207961" fill="none" d="M168.75 356.25 C 184.375 340.625, 190.625 334.375, 200.0 325.0" />
  <path stroke="black" stroke-width="2.209708691207961" fill="none" d="M200.0 325.0 C 200.0 315.0, 200.0 302.5, 200.0 294.25" />
  <path stroke="black" stroke-width="2.209708691207961" fill="none" d="M150.625 328.125 C 155.75 338.75, 162.5 344.0, 174.375 347.375" />
  <path stroke="black" stroke-width="2.209708691207961" fill="none" d="M166.875 318.125 C 169.75 330.25, 173.5 335.25, 182.875 339.375" />
  <path stroke="black" stroke-width="2.209708691207961" fill="none" d="M180.75 306.25 C 179.5 320.5, 181.75 323.75, 190.75 331.5" />
  <path stroke="black" stroke-width="2.209708691207961" fill="none" d="M204.125 308.625 C 208.125 308.125, 211.875 308.125, 213.625 308.875" />
  <path stroke="black" stroke-width="2.209708691207961" fill="none" d="M204.125 301.125 C 211.25 298.75, 215.0 298.75, 220.875 302.125" />
  <path stroke="black" stroke-width="2.209708691207961" fill="none" d="M149.125 208.375 C 140.0 228.75, 141.25 242.5, 145.75 254.75" />
  <path stroke="black" stroke-width="2.209708691207961" fill="none" d="M161.375 208.375 C 155.0 230.0, 155.0 237.5, 158.125 251.875" />
  <path stroke="black" stroke-width="2.209708691207961" fill="none" d="M177.125 208.375 C 168.75 228.75, 168.75 238.75, 172.375 252.625" />
  <path stroke="black" stroke-width="2.209708691207961" fill="none" d="M189.375 205.125 C 182.5 232.5, 182.5 242.5, 184.75 255.25" />
  <path stroke="black" stroke-width="2.209708691207961" fill="none" d="M124.375 288.875 C 124.75 294.0, 124.75 296.5, 124.75 299.75" />
  <path stroke="black" stroke-width="2.209708691207961" fill="none" d="M124.375 288.875 C 116.5 294.0, 110.25 300.25, 104.25 309.0" />
  <path stroke="black" stroke-width="2.209708691207961" fill="none" d="M104.25 309.0 C 109.125 312.125, 117.5 305.5, 124.75 299.75" />
  <path stroke="black" stroke-width="2.209708691207961" fill="none" d="M126.5 306.0 C 127.5 310.0, 128.75 315.0, 129.375 317.375" />
  <path stroke="black" stroke-width="2.209708691207961" fill="none" d="M126.5 306.0 C 114.375 313.125, 112.5 315.0, 108.375 319.625" />
  <path stroke="black" stroke-width="2.209708691207961" fill="none" d="M108.375 319.625 C 118.125 319.375, 124.0 319.0, 129.375 317.375" />
  <path stroke="black" stroke-width="2.209708691207961" fill="none" d="M302.25 273.25 C 269.375 204.375, 273.5 191.0, 311.625 107.875" />
  <path stroke="black" stroke-width="2.209708691207961" fill="none" d="M274.5 133.5 C 298.25 115.75, 309.5 101.0, 325.0 75.0" />
  <path stroke="black" stroke-width="2.209708691207961" fill="none" d="M262.5 200.0 C 270.75 177.75, 273.0 160.0, 274.5 133.5" />
  <path stroke="black" stroke-width="2.209708691207961" fill="none" d="M200.0 200.0 C 227.5 200.0, 243.75 200.0, 262.5 200.0" />
  <path stroke="black" stroke-width="2.209708691207961" fill="none" d="M200.0 262.5 C 200.0 237.5, 200.0 222.5, 200.0 200.0" />
  <path stroke="black" stroke-width="2.209708691207961" fill="none" d="M200.0 262.5 C 222.25 270.75, 240.0 273.0, 266.5 274.5" />
  <path stroke="black" stroke-width="2.209708691207961" fill="none" d="M266.5 274.5 C 251.25 237.5, 251.25 231.25, 262.5 200.0" />
  <path stroke="black" stroke-width="2.209708691207961" fill="none" d="M266.5 274.5 C 284.25 298.25, 299.0 309.5, 325.0 325.0" />
  <path stroke="black" stroke-width="2.209708691207961" fill="none" d="M325.0 325.0 C 330.25 304.25, 332.0 291.25, 329.0 270.5" />
  <path stroke="black" stroke-width="2.209708691207961" fill="none" d="M329.0 270.5 C 327.25 235.25, 296.5 238.5, 294.25 200.0" />
  <path stroke="black" stroke-width="2.209708691207961" fill="none" d="M294.25 200.0 C 293.75 193.75, 293.75 181.25, 293.75 168.75" />
  <path stroke="black" stroke-width="2.209708691207961" fill="none" d="M293.75 168.75 C 300.75 153.5, 308.5 143.5, 321.0 129.5" />
  <path stroke="black" stroke-width="2.209708691207961" fill="none" d="M321.0 129.5 C 318.0 108.75, 319.75 95.75, 325.0 75.0" />
  <path stroke="black" stroke-width="2.209708691207961" fill="none" d="M329.0 270.5 C 341.5 256.5, 349.25 246.5, 356.25 231.25" />
  <path stroke="black" stroke-width="2.209708691207961" fill="none" d="M356.25 231.25 C 340.625 215.625, 334.375 209.375, 325.0 200.0" />
  <path stroke="black" stroke-width="2.209708691207961" fill="none" d="M325.0 200.0 C 315.0 200.0, 302.5 200.0, 294.25 200.0" />
  <path stroke="black" stroke-width="2.209708691207961" fill="none" d="M328.125 249.375 C 338.75 244.25, 344.0 237.5, 347.375 225.625" />
  <path stroke="black" stroke-width="2.209708691207961" fill="none" d="M318.125 233.125 C 330.25 230.25, 335.25 226.5, 339.375 217.125" />
  <path stroke="black" stroke-width="2.209708691207961" fill="none" d="M306.25 219.25 C 320.5 220.5, 323.75 218.25, 331.5 209.25" />
  <path stroke="black" stroke-width="2.209708691207961" fill="none" d="M308.625 195.875 C 308.125 191.875, 308.125 188.125, 308.875 186.375" />
  <path stroke="black" stroke-width="2.209708691207961" fill="none" d="M301.125 195.875 C 298.75 188.75, 298.75 185.0, 302.125 179.125" />
  <path stroke="black" stroke-width="2.209708691207961" fill="none" d="M208.375 250.875 C 228.75 260.0, 242.5 258.75, 254.75 254.25" />
  <path stroke="black" stroke-width="2.209708691207961" fill="none" d="M208.375 238.625 C 230.0 245.0, 237.5 245.0, 251.875 241.875" />
  <path stroke="black" stroke-width="2.209708691207961" fill="none" d="M208.375 222.875 C 228.75 231.25, 238.75 231.25, 252.625 227.625" />
  <path stroke="black" stroke-width="2.209708691207961" fill="none" d="M205.125 210.625 C 232.5 217.5, 242.5 217.5, 255.25 215.25" />
  <path stroke="black" stroke-width="2.209708691207961" fill="none" d="M288.875 275.625 C 294.0 275.25, 296.5 275.25, 299.75 275.25" />
  <path stroke="black" stroke-width="2.209708691207961" fill="none" d="M288.875 275.625 C 294.0 283.5, 300.25 289.75, 309.0 295.75" />
  <path stroke="black" stroke-width="2.209708691207961" fill="none" d="M309.0 295.75 C 312.125 290.875, 305.5 282.5, 299.75 275.25" />
  <path stroke="black" stroke-width="2.209708691207961" fill="none" d="M306.0 273.5 C 310.0 272.5, 315.0 271.25, 317.375 270.625" />
  <path stroke="black" stroke-width="2.209708691207961" fill="none" d="M306.0 273.5 C 313.125 285.625, 315.0 287.5, 319.625 291.625" />
  <path stroke="black" stroke-width="2.209708691207961" fill="none" d="M319.625 291.625 C 319.375 281.875, 319.0 276.0, 317.375 270.625" />

</svg>
