<svg xmlns="http://www.w3.org/2000/svg" viewbox="0 0 400 400">
  <path stroke="black" stroke-width="0.78125" fill="none" d="M93.625 192.75 C 119.0625 183.75, 121.375 179.375, 132.625 149.0625" />
  <path stroke="black" stroke-width="0.78125" fill="none" d="M135.5 164.75 C 134.0 154.375, 134.875 147.875, 137.5 137.5" />
  <path stroke="black" stroke-width="0.78125" fill="none" d="M121.875 184.375 C 125.375 176.75, 129.25 171.75, 135.5 164.75" />
  <path stroke="black" stroke-width="0.78125" fill="none" d="M137.5 200.0 C 130.625 193.125, 126.5625 189.0625, 121.875 184.375" />
  <path stroke="black" stroke-width="0.78125" fill="none" d="M121.875 215.625 C 128.125 209.375, 131.875 205.625, 137.5 200.0" />
  <path stroke="black" stroke-width="0.78125" fill="none" d="M121.875 215.625 C 114.25 212.125, 109.25 208.25, 102.25 202.0" />
  <path stroke="black" stroke-width="0.78125" fill="none" d="M102.25 202.0 C 115.3125 196.5625, 116.875 195.0, 121.875 184.375" />
  <path stroke="black" stroke-width="0.78125" fill="none" d="M102.25 202.0 C 91.875 203.5, 85.375 202.625, 75.0 200.0" />
  <path stroke="black" stroke-width="0.78125" fill="none" d="M75.0 200.0 C 78.875 193.5, 81.6875 189.8125, 87.625 185.375" />
  <path stroke="black" stroke-width="0.78125" fill="none" d="M87.625 185.375 C 96.875 177.0, 103.75 185.5, 113.9375 176.4375" />
  <path stroke="black" stroke-width="0.78125" fill="none" d="M113.9375 176.4375 C 115.625 175.0, 118.75 171.875, 121.875 168.75" />
  <path stroke="black" stroke-width="0.78125" fill="none" d="M121.875 168.75 C 123.9375 163.1875, 124.5 158.75, 124.875 152.125" />
  <path stroke="black" stroke-width="0.78125" fill="none" d="M124.875 152.125 C 130.8125 147.6875, 133.625 144.0, 137.5 137.5" />
  <path stroke="black" stroke-width="0.78125" fill="none" d="M87.625 185.375 C 88.0 178.75, 88.5625 174.3125, 90.625 168.75" />
  <path stroke="black" stroke-width="0.78125" fill="none" d="M90.625 168.75 C 98.4375 168.75, 101.5625 168.75, 106.25 168.75" />
  <path stroke="black" stroke-width="0.78125" fill="none" d="M106.25 168.75 C 108.75 171.25, 111.875 174.375, 113.9375 176.4375" />
  <path stroke="black" stroke-width="0.78125" fill="none" d="M93.125 180.3125 C 91.75 176.375, 92.125 173.375, 94.25 169.5625" />
  <path stroke="black" stroke-width="0.78125" fill="none" d="M99.6875 178.75 C 97.375 175.0, 97.0625 172.8125, 98.375 169.4375" />
  <path stroke="black" stroke-width="0.78125" fill="none" d="M106.125 178.25 C 102.25 175.0, 102.0 173.625, 102.3125 169.4375" />
  <path stroke="black" stroke-width="0.78125" fill="none" d="M111.375 171.8125 C 112.5 170.9375, 113.4375 170.0, 113.6875 169.375" />
  <path stroke="black" stroke-width="0.78125" fill="none" d="M113.25 173.6875 C 115.625 172.5, 116.5625 171.5625, 117.1875 169.25" />
  <path stroke="black" stroke-width="0.78125" fill="none" d="M122.6875 210.625 C 115.3125 207.8125, 112.1875 204.0625, 110.25 199.875" />
  <path stroke="black" stroke-width="0.78125" fill="none" d="M125.75 207.5625 C 118.75 203.75, 116.875 201.875, 114.0625 197.5" />
  <path stroke="black" stroke-width="0.78125" fill="none" d="M129.6875 203.625 C 122.5 200.625, 120.0 198.125, 117.4375 193.75" />
  <path stroke="black" stroke-width="0.78125" fill="none" d="M133.5625 201.375 C 125.0 196.25, 122.5 193.75, 119.875 190.0" />
  <path stroke="black" stroke-width="0.78125" fill="none" d="M96.375 196.6875 C 95.1875 195.3125, 94.5625 194.6875, 93.75 193.875" />
  <path stroke="black" stroke-width="0.78125" fill="none" d="M96.375 196.6875 C 93.125 197.375, 90.0 197.375, 86.3125 196.6875" />
  <path stroke="black" stroke-width="0.78125" fill="none" d="M86.3125 196.6875 C 86.75 194.6875, 90.5 194.25, 93.75 193.875" />
  <path stroke="black" stroke-width="0.78125" fill="none" d="M92.625 191.875 C 91.875 190.625, 90.9375 189.0625, 90.5 188.3125" />
  <path stroke="black" stroke-width="0.78125" fill="none" d="M92.625 191.875 C 87.8125 193.125, 86.875 193.125, 84.6875 193.0" />
  <path stroke="black" stroke-width="0.78125" fill="none" d="M84.6875 193.0 C 87.1875 190.625, 88.75 189.25, 90.5 188.3125" />
  <path stroke="black" stroke-width="0.5524271728019903" fill="none" d="M80.6875 150.4375 C 88.90625 167.65625, 87.875 171.0, 78.34375 191.78125" />
  <path stroke="black" stroke-width="0.5524271728019903" fill="none" d="M87.625 185.375 C 81.6875 189.8125, 78.875 193.5, 75.0 200.0" />
  <path stroke="black" stroke-width="0.5524271728019903" fill="none" d="M90.625 168.75 C 88.5625 174.3125, 88.0 178.75, 87.625 185.375" />
  <path stroke="black" stroke-width="0.5524271728019903" fill="none" d="M106.25 168.75 C 99.375 168.75, 95.3125 168.75, 90.625 168.75" />
  <path stroke="black" stroke-width="0.5524271728019903" fill="none" d="M106.25 153.125 C 106.25 159.375, 106.25 163.125, 106.25 168.75" />
  <path stroke="black" stroke-width="0.5524271728019903" fill="none" d="M106.25 153.125 C 100.6875 151.0625, 96.25 150.5, 89.625 150.125" />
  <path stroke="black" stroke-width="0.5524271728019903" fill="none" d="M89.625 150.125 C 93.4375 159.375, 93.4375 160.9375, 90.625 168.75" />
  <path stroke="black" stroke-width="0.5524271728019903" fill="none" d="M89.625 150.125 C 85.1875 144.1875, 81.5 141.375, 75.0 137.5" />
  <path stroke="black" stroke-width="0.5524271728019903" fill="none" d="M75.0 137.5 C 73.6875 142.6875, 73.25 145.9375, 74.0 151.125" />
  <path stroke="black" stroke-width="0.5524271728019903" fill="none" d="M74.0 151.125 C 74.4375 159.9375, 82.125 159.125, 82.6875 168.75" />
  <path stroke="black" stroke-width="0.5524271728019903" fill="none" d="M82.6875 168.75 C 82.8125 170.3125, 82.8125 173.4375, 82.8125 176.5625" />
  <path stroke="black" stroke-width="0.5524271728019903" fill="none" d="M82.8125 176.5625 C 81.0625 180.375, 79.125 182.875, 76.0 186.375" />
  <path stroke="black" stroke-width="0.5524271728019903" fill="none" d="M76.0 186.375 C 76.75 191.5625, 76.3125 194.8125, 75.0 200.0" />
  <path stroke="black" stroke-width="0.5524271728019903" fill="none" d="M74.0 151.125 C 70.875 154.625, 68.9375 157.125, 67.1875 160.9375" />
  <path stroke="black" stroke-width="0.5524271728019903" fill="none" d="M67.1875 160.9375 C 71.09375 164.84375, 72.65625 166.40625, 75.0 168.75" />
  <path stroke="black" stroke-width="0.5524271728019903" fill="none" d="M75.0 168.75 C 77.5 168.75, 80.625 168.75, 82.6875 168.75" />
  <path stroke="black" stroke-width="0.5524271728019903" fill="none" d="M74.21875 156.40625 C 71.5625 157.6875, 70.25 159.375, 69.40625 162.34375" />
  <path stroke="black" stroke-width="0.5524271728019903" fill="none" d="M76.71875 160.46875 C 73.6875 161.1875, 72.4375 162.125, 71.40625 164.46875" />
  <path stroke="black" stroke-width="0.5524271728019903" fill="none" d="M79.6875 163.9375 C 76.125 163.625, 75.3125 164.1875, 73.375 166.4375" />
  <path stroke="black" stroke-width="0.5524271728019903" fill="none" d="M79.09375 169.78125 C 79.21875 170.78125, 79.21875 171.71875, 79.03125 172.15625" />
  <path stroke="black" stroke-width="0.5524271728019903" fill="none" d="M80.96875 169.78125 C 81.5625 171.5625, 81.5625 172.5, 80.71875 173.96875" />
  <path stroke="black" stroke-width="0.5524271728019903" fill="none" d="M104.15625 156.03125 C 99.0625 153.75, 95.625 154.0625, 92.5625 155.1875" />
  <path stroke="black" stroke-width="0.5524271728019903" fill="none" d="M104.15625 159.09375 C 98.75 157.5, 96.875 157.5, 93.28125 158.28125" />
  <path stroke="black" stroke-width="0.5524271728019903" fill="none" d="M104.15625 163.03125 C 99.0625 160.9375, 96.5625 160.9375, 93.09375 161.84375" />
  <path stroke="black" stroke-width="0.5524271728019903" fill="none" d="M104.96875 166.09375 C 98.125 164.375, 95.625 164.375, 92.4375 164.9375" />
  <path stroke="black" stroke-width="0.5524271728019903" fill="none" d="M84.03125 149.84375 C 82.75 149.9375, 82.125 149.9375, 81.3125 149.9375" />
  <path stroke="black" stroke-width="0.5524271728019903" fill="none" d="M84.03125 149.84375 C 82.75 147.875, 81.1875 146.3125, 79.0 144.8125" />
  <path stroke="black" stroke-width="0.5524271728019903" fill="none" d="M79.0 144.8125 C 78.21875 146.03125, 79.875 148.125, 81.3125 149.9375" />
  <path stroke="black" stroke-width="0.5524271728019903" fill="none" d="M79.75 150.375 C 78.75 150.625, 77.5 150.9375, 76.90625 151.09375" />
  <path stroke="black" stroke-width="0.5524271728019903" fill="none" d="M79.75 150.375 C 77.96875 147.34375, 77.5 146.875, 76.34375 145.84375" />
  <path stroke="black" stroke-width="0.5524271728019903" fill="none" d="M76.34375 145.84375 C 76.40625 148.28125, 76.5 149.75, 76.90625 151.09375" />
  <path stroke="black" stroke-width="0.5524271728019903" fill="none" d="M124.5625 143.1875 C 107.34375 151.40625, 104.0 150.375, 83.21875 140.84375" />
  <path stroke="black" stroke-width="0.5524271728019903" fill="none" d="M89.625 150.125 C 85.1875 144.1875, 81.5 141.375, 75.0 137.5" />
  <path stroke="black" stroke-width="0.5524271728019903" fill="none" d="M106.25 153.125 C 100.6875 151.0625, 96.25 150.5, 89.625 150.125" />
  <path stroke="black" stroke-width="0.5524271728019903" fill="none" d="M106.25 168.75 C 106.25 161.875, 106.25 157.8125, 106.25 153.125" />
  <path stroke="black" stroke-width="0.5524271728019903" fill="none" d="M121.875 168.75 C 115.625 168.75, 111.875 168.75, 106.25 168.75" />
  <path stroke="black" stroke-width="0.5524271728019903" fill="none" d="M121.875 168.75 C 123.9375 163.1875, 124.5 158.75, 124.875 152.125" />
  <path stroke="black" stroke-width="0.5524271728019903" fill="none" d="M124.875 152.125 C 115.625 155.9375, 114.0625 155.9375, 106.25 153.125" />
  <path stroke="black" stroke-width="0.5524271728019903" fill="none" d="M124.875 152.125 C 130.8125 147.6875, 133.625 144.0, 137.5 137.5" />
  <path stroke="black" stroke-width="0.5524271728019903" fill="none" d="M137.5 137.5 C 132.3125 136.1875, 129.0625 135.75, 123.875 136.5" />
  <path stroke="black" stroke-width="0.5524271728019903" fill="none" d="M123.875 136.5 C 115.0625 136.9375, 115.875 144.625, 106.25 145.1875" />
  <path stroke="black" stroke-width="0.5524271728019903" fill="none" d="M106.25 145.1875 C 104.6875 145.3125, 101.5625 145.3125, 98.4375 145.3125" />
  <path stroke="black" stroke-width="0.5524271728019903" fill="none" d="M98.4375 145.3125 C 94.625 143.5625, 92.125 141.625, 88.625 138.5" />
  <path stroke="black" stroke-width="0.5524271728019903" fill="none" d="M88.625 138.5 C 83.4375 139.25, 80.1875 138.8125, 75.0 137.5" />
  <path stroke="black" stroke-width="0.5524271728019903" fill="none" d="M123.875 136.5 C 120.375 133.375, 117.875 131.4375, 114.0625 129.6875" />
  <path stroke="black" stroke-width="0.5524271728019903" fill="none" d="M114.0625 129.6875 C 110.15625 133.59375, 108.59375 135.15625, 106.25 137.5" />
  <path stroke="black" stroke-width="0.5524271728019903" fill="none" d="M106.25 137.5 C 106.25 140.0, 106.25 143.125, 106.25 145.1875" />
  <path stroke="black" stroke-width="0.5524271728019903" fill="none" d="M118.59375 136.71875 C 117.3125 134.0625, 115.625 132.75, 112.65625 131.90625" />
  <path stroke="black" stroke-width="0.5524271728019903" fill="none" d="M114.53125 139.21875 C 113.8125 136.1875, 112.875 134.9375, 110.53125 133.90625" />
  <path stroke="black" stroke-width="0.5524271728019903" fill="none" d="M111.0625 142.1875 C 111.375 138.625, 110.8125 137.8125, 108.5625 135.875" />
  <path stroke="black" stroke-width="0.5524271728019903" fill="none" d="M105.21875 141.59375 C 104.21875 141.71875, 103.28125 141.71875, 102.84375 141.53125" />
  <path stroke="black" stroke-width="0.5524271728019903" fill="none" d="M105.21875 143.46875 C 103.4375 144.0625, 102.5 144.0625, 101.03125 143.21875" />
  <path stroke="black" stroke-width="0.5524271728019903" fill="none" d="M118.96875 166.65625 C 121.25 161.5625, 120.9375 158.125, 119.8125 155.0625" />
  <path stroke="black" stroke-width="0.5524271728019903" fill="none" d="M115.90625 166.65625 C 117.5 161.25, 117.5 159.375, 116.71875 155.78125" />
  <path stroke="black" stroke-width="0.5524271728019903" fill="none" d="M111.96875 166.65625 C 114.0625 161.5625, 114.0625 159.0625, 113.15625 155.59375" />
  <path stroke="black" stroke-width="0.5524271728019903" fill="none" d="M108.90625 167.46875 C 110.625 160.625, 110.625 158.125, 110.0625 154.9375" />
  <path stroke="black" stroke-width="0.5524271728019903" fill="none" d="M125.15625 146.53125 C 125.0625 145.25, 125.0625 144.625, 125.0625 143.8125" />
  <path stroke="black" stroke-width="0.5524271728019903" fill="none" d="M125.15625 146.53125 C 127.125 145.25, 128.6875 143.6875, 130.1875 141.5" />
  <path stroke="black" stroke-width="0.5524271728019903" fill="none" d="M130.1875 141.5 C 128.96875 140.71875, 126.875 142.375, 125.0625 143.8125" />
  <path stroke="black" stroke-width="0.5524271728019903" fill="none" d="M124.625 142.25 C 124.375 141.25, 124.0625 140.0, 123.90625 139.40625" />
  <path stroke="black" stroke-width="0.5524271728019903" fill="none" d="M124.625 142.25 C 127.65625 140.46875, 128.125 140.0, 129.15625 138.84375" />
  <path stroke="black" stroke-width="0.5524271728019903" fill="none" d="M129.15625 138.84375 C 126.71875 138.90625, 125.25 139.0, 123.90625 139.40625" />
  <path stroke="black" stroke-width="0.78125" fill="none" d="M144.75 156.125 C 153.75 181.5625, 158.125 183.875, 188.4375 195.125" />
  <path stroke="black" stroke-width="0.78125" fill="none" d="M172.75 198.0 C 183.125 196.5, 189.625 197.375, 200.0 200.0" />
  <path stroke="black" stroke-width="0.78125" fill="none" d="M153.125 184.375 C 160.75 187.875, 165.75 191.75, 172.75 198.0" />
  <path stroke="black" stroke-width="0.78125" fill="none" d="M137.5 200.0 C 144.375 193.125, 148.4375 189.0625, 153.125 184.375" />
  <path stroke="black" stroke-width="0.78125" fill="none" d="M121.875 184.375 C 128.125 190.625, 131.875 194.375, 137.5 200.0" />
  <path stroke="black" stroke-width="0.78125" fill="none" d="M121.875 184.375 C 125.375 176.75, 129.25 171.75, 135.5 164.75" />
  <path stroke="black" stroke-width="0.78125" fill="none" d="M135.5 164.75 C 140.9375 177.8125, 142.5 179.375, 153.125 184.375" />
  <path stroke="black" stroke-width="0.78125" fill="none" d="M135.5 164.75 C 134.0 154.375, 134.875 147.875, 137.5 137.5" />
  <path stroke="black" stroke-width="0.78125" fill="none" d="M137.5 137.5 C 144.0 141.375, 147.6875 144.1875, 152.125 150.125" />
  <path stroke="black" stroke-width="0.78125" fill="none" d="M152.125 150.125 C 160.5 159.375, 152.0 166.25, 161.0625 176.4375" />
  <path stroke="black" stroke-width="0.78125" fill="none" d="M161.0625 176.4375 C 162.5 178.125, 165.625 181.25, 168.75 184.375" />
  <path stroke="black" stroke-width="0.78125" fill="none" d="M168.75 184.375 C 174.3125 186.4375, 178.75 187.0, 185.375 187.375" />
  <path stroke="black" stroke-width="0.78125" fill="none" d="M185.375 187.375 C 189.8125 193.3125, 193.5 196.125, 200.0 200.0" />
  <path stroke="black" stroke-width="0.78125" fill="none" d="M152.125 150.125 C 158.75 150.5, 163.1875 151.0625, 168.75 153.125" />
  <path stroke="black" stroke-width="0.78125" fill="none" d="M168.75 153.125 C 168.75 160.9375, 168.75 164.0625, 168.75 168.75" />
  <path stroke="black" stroke-width="0.78125" fill="none" d="M168.75 168.75 C 166.25 171.25, 163.125 174.375, 161.0625 176.4375" />
  <path stroke="black" stroke-width="0.78125" fill="none" d="M157.1875 155.625 C 161.125 154.25, 164.125 154.625, 167.9375 156.75" />
  <path stroke="black" stroke-width="0.78125" fill="none" d="M158.75 162.1875 C 162.5 159.875, 164.6875 159.5625, 168.0625 160.875" />
  <path stroke="black" stroke-width="0.78125" fill="none" d="M159.25 168.625 C 162.5 164.75, 163.875 164.5, 168.0625 164.8125" />
  <path stroke="black" stroke-width="0.78125" fill="none" d="M165.6875 173.875 C 166.5625 175.0, 167.5 175.9375, 168.125 176.1875" />
  <path stroke="black" stroke-width="0.78125" fill="none" d="M163.8125 175.75 C 165.0 178.125, 165.9375 179.0625, 168.25 179.6875" />
  <path stroke="black" stroke-width="0.78125" fill="none" d="M126.875 185.1875 C 129.6875 177.8125, 133.4375 174.6875, 137.625 172.75" />
  <path stroke="black" stroke-width="0.78125" fill="none" d="M129.9375 188.25 C 133.75 181.25, 135.625 179.375, 140.0 176.5625" />
  <path stroke="black" stroke-width="0.78125" fill="none" d="M133.875 192.1875 C 136.875 185.0, 139.375 182.5, 143.75 179.9375" />
  <path stroke="black" stroke-width="0.78125" fill="none" d="M136.125 196.0625 C 141.25 187.5, 143.75 185.0, 147.5 182.375" />
  <path stroke="black" stroke-width="0.78125" fill="none" d="M140.8125 158.875 C 142.1875 157.6875, 142.8125 157.0625, 143.625 156.25" />
  <path stroke="black" stroke-width="0.78125" fill="none" d="M140.8125 158.875 C 140.125 155.625, 140.125 152.5, 140.8125 148.8125" />
  <path stroke="black" stroke-width="0.78125" fill="none" d="M140.8125 148.8125 C 142.8125 149.25, 143.25 153.0, 143.625 156.25" />
  <path stroke="black" stroke-width="0.78125" fill="none" d="M145.625 155.125 C 146.875 154.375, 148.4375 153.4375, 149.1875 153.0" />
  <path stroke="black" stroke-width="0.78125" fill="none" d="M145.625 155.125 C 144.375 150.3125, 144.375 149.375, 144.5 147.1875" />
  <path stroke="black" stroke-width="0.78125" fill="none" d="M144.5 147.1875 C 146.875 149.6875, 148.25 151.25, 149.1875 153.0" />
  <path stroke="black" stroke-width="0.5524271728019903" fill="none" d="M187.0625 143.1875 C 169.84375 151.40625, 166.5 150.375, 145.71875 140.84375" />
  <path stroke="black" stroke-width="0.5524271728019903" fill="none" d="M152.125 150.125 C 147.6875 144.1875, 144.0 141.375, 137.5 137.5" />
  <path stroke="black" stroke-width="0.5524271728019903" fill="none" d="M168.75 153.125 C 163.1875 151.0625, 158.75 150.5, 152.125 150.125" />
  <path stroke="black" stroke-width="0.5524271728019903" fill="none" d="M168.75 168.75 C 168.75 161.875, 168.75 157.8125, 168.75 153.125" />
  <path stroke="black" stroke-width="0.5524271728019903" fill="none" d="M184.375 168.75 C 178.125 168.75, 174.375 168.75, 168.75 168.75" />
  <path stroke="black" stroke-width="0.5524271728019903" fill="none" d="M184.375 168.75 C 186.4375 163.1875, 187.0 158.75, 187.375 152.125" />
  <path stroke="black" stroke-width="0.5524271728019903" fill="none" d="M187.375 152.125 C 178.125 155.9375, 176.5625 155.9375, 168.75 153.125" />
  <path stroke="black" stroke-width="0.5524271728019903" fill="none" d="M187.375 152.125 C 193.3125 147.6875, 196.125 144.0, 200.0 137.5" />
  <path stroke="black" stroke-width="0.5524271728019903" fill="none" d="M200.0 137.5 C 194.8125 136.1875, 191.5625 135.75, 186.375 136.5" />
  <path stroke="black" stroke-width="0.5524271728019903" fill="none" d="M186.375 136.5 C 177.5625 136.9375, 178.375 144.625, 168.75 145.1875" />
  <path stroke="black" stroke-width="0.5524271728019903" fill="none" d="M168.75 145.1875 C 167.1875 145.3125, 164.0625 145.3125, 160.9375 145.3125" />
  <path stroke="black" stroke-width="0.5524271728019903" fill="none" d="M160.9375 145.3125 C 157.125 143.5625, 154.625 141.625, 151.125 138.5" />
  <path stroke="black" stroke-width="0.5524271728019903" fill="none" d="M151.125 138.5 C 145.9375 139.25, 142.6875 138.8125, 137.5 137.5" />
  <path stroke="black" stroke-width="0.5524271728019903" fill="none" d="M186.375 136.5 C 182.875 133.375, 180.375 131.4375, 176.5625 129.6875" />
  <path stroke="black" stroke-width="0.5524271728019903" fill="none" d="M176.5625 129.6875 C 172.65625 133.59375, 171.09375 135.15625, 168.75 137.5" />
  <path stroke="black" stroke-width="0.5524271728019903" fill="none" d="M168.75 137.5 C 168.75 140.0, 168.75 143.125, 168.75 145.1875" />
  <path stroke="black" stroke-width="0.5524271728019903" fill="none" d="M181.09375 136.71875 C 179.8125 134.0625, 178.125 132.75, 175.15625 131.90625" />
  <path stroke="black" stroke-width="0.5524271728019903" fill="none" d="M177.03125 139.21875 C 176.3125 136.1875, 175.375 134.9375, 173.03125 133.90625" />
  <path stroke="black" stroke-width="0.5524271728019903" fill="none" d="M173.5625 142.1875 C 173.875 138.625, 173.3125 137.8125, 171.0625 135.875" />
  <path stroke="black" stroke-width="0.5524271728019903" fill="none" d="M167.71875 141.59375 C 166.71875 141.71875, 165.78125 141.71875, 165.34375 141.53125" />
  <path stroke="black" stroke-width="0.5524271728019903" fill="none" d="M167.71875 143.46875 C 165.9375 144.0625, 165.0 144.0625, 163.53125 143.21875" />
  <path stroke="black" stroke-width="0.5524271728019903" fill="none" d="M181.46875 166.65625 C 183.75 161.5625, 183.4375 158.125, 182.3125 155.0625" />
  <path stroke="black" stroke-width="0.5524271728019903" fill="none" d="M178.40625 166.65625 C 180.0 161.25, 180.0 159.375, 179.21875 155.78125" />
  <path stroke="black" stroke-width="0.5524271728019903" fill="none" d="M174.46875 166.65625 C 176.5625 161.5625, 176.5625 159.0625, 175.65625 155.59375" />
  <path stroke="black" stroke-width="0.5524271728019903" fill="none" d="M171.40625 167.46875 C 173.125 160.625, 173.125 158.125, 172.5625 154.9375" />
  <path stroke="black" stroke-width="0.5524271728019903" fill="none" d="M187.65625 146.53125 C 187.5625 145.25, 187.5625 144.625, 187.5625 143.8125" />
  <path stroke="black" stroke-width="0.5524271728019903" fill="none" d="M187.65625 146.53125 C 189.625 145.25, 191.1875 143.6875, 192.6875 141.5" />
  <path stroke="black" stroke-width="0.5524271728019903" fill="none" d="M192.6875 141.5 C 191.46875 140.71875, 189.375 142.375, 187.5625 143.8125" />
  <path stroke="black" stroke-width="0.5524271728019903" fill="none" d="M187.125 142.25 C 186.875 141.25, 186.5625 140.0, 186.40625 139.40625" />
  <path stroke="black" stroke-width="0.5524271728019903" fill="none" d="M187.125 142.25 C 190.15625 140.46875, 190.625 140.0, 191.65625 138.84375" />
  <path stroke="black" stroke-width="0.5524271728019903" fill="none" d="M191.65625 138.84375 C 189.21875 138.90625, 187.75 139.0, 186.40625 139.40625" />
  <path stroke="black" stroke-width="0.5524271728019903" fill="none" d="M194.3125 187.0625 C 186.09375 169.84375, 187.125 166.5, 196.65625 145.71875" />
  <path stroke="black" stroke-width="0.5524271728019903" fill="none" d="M187.375 152.125 C 193.3125 147.6875, 196.125 144.0, 200.0 137.5" />
  <path stroke="black" stroke-width="0.5524271728019903" fill="none" d="M184.375 168.75 C 186.4375 163.1875, 187.0 158.75, 187.375 152.125" />
  <path stroke="black" stroke-width="0.5524271728019903" fill="none" d="M168.75 168.75 C 175.625 168.75, 179.6875 168.75, 184.375 168.75" />
  <path stroke="black" stroke-width="0.5524271728019903" fill="none" d="M168.75 184.375 C 168.75 178.125, 168.75 174.375, 168.75 168.75" />
  <path stroke="black" stroke-width="0.5524271728019903" fill="none" d="M168.75 184.375 C 174.3125 186.4375, 178.75 187.0, 185.375 187.375" />
  <path stroke="black" stroke-width="0.5524271728019903" fill="none" d="M185.375 187.375 C 181.5625 178.125, 181.5625 176.5625, 184.375 168.75" />
  <path stroke="black" stroke-width="0.5524271728019903" fill="none" d="M185.375 187.375 C 189.8125 193.3125, 193.5 196.125, 200.0 200.0" />
  <path stroke="black" stroke-width="0.5524271728019903" fill="none" d="M200.0 200.0 C 201.3125 194.8125, 201.75 191.5625, 201.0 186.375" />
  <path stroke="black" stroke-width="0.5524271728019903" fill="none" d="M201.0 186.375 C 200.5625 177.5625, 192.875 178.375, 192.3125 168.75" />
  <path stroke="black" stroke-width="0.5524271728019903" fill="none" d="M192.3125 168.75 C 192.1875 167.1875, 192.1875 164.0625, 192.1875 160.9375" />
  <path stroke="black" stroke-width="0.5524271728019903" fill="none" d="M192.1875 160.9375 C 193.9375 157.125, 195.875 154.625, 199.0 151.125" />
  <path stroke="black" stroke-width="0.5524271728019903" fill="none" d="M199.0 151.125 C 198.25 145.9375, 198.6875 142.6875, 200.0 137.5" />
  <path stroke="black" stroke-width="0.5524271728019903" fill="none" d="M201.0 186.375 C 204.125 182.875, 206.0625 180.375, 207.8125 176.5625" />
  <path stroke="black" stroke-width="0.5524271728019903" fill="none" d="M207.8125 176.5625 C 203.90625 172.65625, 202.34375 171.09375, 200.0 168.75" />
  <path stroke="black" stroke-width="0.5524271728019903" fill="none" d="M200.0 168.75 C 197.5 168.75, 194.375 168.75, 192.3125 168.75" />
  <path stroke="black" stroke-width="0.5524271728019903" fill="none" d="M200.78125 181.09375 C 203.4375 179.8125, 204.75 178.125, 205.59375 175.15625" />
  <path stroke="black" stroke-width="0.5524271728019903" fill="none" d="M198.28125 177.03125 C 201.3125 176.3125, 202.5625 175.375, 203.59375 173.03125" />
  <path stroke="black" stroke-width="0.5524271728019903" fill="none" d="M195.3125 173.5625 C 198.875 173.875, 199.6875 173.3125, 201.625 171.0625" />
  <path stroke="black" stroke-width="0.5524271728019903" fill="none" d="M195.90625 167.71875 C 195.78125 166.71875, 195.78125 165.78125, 195.96875 165.34375" />
  <path stroke="black" stroke-width="0.5524271728019903" fill="none" d="M194.03125 167.71875 C 193.4375 165.9375, 193.4375 165.0, 194.28125 163.53125" />
  <path stroke="black" stroke-width="0.5524271728019903" fill="none" d="M170.84375 181.46875 C 175.9375 183.75, 179.375 183.4375, 182.4375 182.3125" />
  <path stroke="black" stroke-width="0.5524271728019903" fill="none" d="M170.84375 178.40625 C 176.25 180.0, 178.125 180.0, 181.71875 179.21875" />
  <path stroke="black" stroke-width="0.5524271728019903" fill="none" d="M170.84375 174.46875 C 175.9375 176.5625, 178.4375 176.5625, 181.90625 175.65625" />
  <path stroke="black" stroke-width="0.5524271728019903" fill="none" d="M170.03125 171.40625 C 176.875 173.125, 179.375 173.125, 182.5625 172.5625" />
  <path stroke="black" stroke-width="0.5524271728019903" fill="none" d="M190.96875 187.65625 C 192.25 187.5625, 192.875 187.5625, 193.6875 187.5625" />
  <path stroke="black" stroke-width="0.5524271728019903" fill="none" d="M190.96875 187.65625 C 192.25 189.625, 193.8125 191.1875, 196.0 192.6875" />
  <path stroke="black" stroke-width="0.5524271728019903" fill="none" d="M196.0 192.6875 C 196.78125 191.46875, 195.125 189.375, 193.6875 187.5625" />
  <path stroke="black" stroke-width="0.5524271728019903" fill="none" d="M195.25 187.125 C 196.25 186.875, 197.5 186.5625, 198.09375 186.40625" />
  <path stroke="black" stroke-width="0.5524271728019903" fill="none" d="M195.25 187.125 C 197.03125 190.15625, 197.5 190.625, 198.65625 191.65625" />
  <path stroke="black" stroke-width="0.5524271728019903" fill="none" d="M198.65625 191.65625 C 198.59375 189.21875, 198.5 187.75, 198.09375 186.40625" />
  <path stroke="black" stroke-width="0.78125" fill="none" d="M218.625 192.75 C 244.0625 183.75, 246.375 179.375, 257.625 149.0625" />
  <path stroke="black" stroke-width="0.78125" fill="none" d="M260.5 164.75 C 259.0 154.375, 259.875 147.875, 262.5 137.5" />
  <path stroke="black" stroke-width="0.78125" fill="none" d="M246.875 184.375 C 250.375 176.75, 254.25 171.75, 260.5 164.75" />
  <path stroke="black" stroke-width="0.78125" fill="none" d="M262.5 200.0 C 255.625 193.125, 251.5625 189.0625, 246.875 184.375" />
  <path stroke="black" stroke-width="0.78125" fill="none" d="M246.875 215.625 C 253.125 209.375, 256.875 205.625, 262.5 200.0" />
  <path stroke="black" stroke-width="0.78125" fill="none" d="M246.875 215.625 C 239.25 212.125, 234.25 208.25, 227.25 202.0" />
  <path stroke="black" stroke-width="0.78125" fill="none" d="M227.25 202.0 C 240.3125 196.5625, 241.875 195.0, 246.875 184.375" />
  <path stroke="black" stroke-width="0.78125" fill="none" d="M227.25 202.0 C 216.875 203.5, 210.375 202.625, 200.0 200.0" />
  <path stroke="black" stroke-width="0.78125" fill="none" d="M200.0 200.0 C 203.875 193.5, 206.6875 189.8125, 212.625 185.375" />
  <path stroke="black" stroke-width="0.78125" fill="none" d="M212.625 185.375 C 221.875 177.0, 228.75 185.5, 238.9375 176.4375" />
  <path stroke="black" stroke-width="0.78125" fill="none" d="M238.9375 176.4375 C 240.625 175.0, 243.75 171.875, 246.875 168.75" />
  <path stroke="black" stroke-width="0.78125" fill="none" d="M246.875 168.75 C 248.9375 163.1875, 249.5 158.75, 249.875 152.125" />
  <path stroke="black" stroke-width="0.78125" fill="none" d="M249.875 152.125 C 255.8125 147.6875, 258.625 144.0, 262.5 137.5" />
  <path stroke="black" stroke-width="0.78125" fill="none" d="M212.625 185.375 C 213.0 178.75, 213.5625 174.3125, 215.625 168.75" />
  <path stroke="black" stroke-width="0.78125" fill="none" d="M215.625 168.75 C 223.4375 168.75, 226.5625 168.75, 231.25 168.75" />
  <path stroke="black" stroke-width="0.78125" fill="none" d="M231.25 168.75 C 233.75 171.25, 236.875 174.375, 238.9375 176.4375" />
  <path stroke="black" stroke-width="0.78125" fill="none" d="M218.125 180.3125 C 216.75 176.375, 217.125 173.375, 219.25 169.5625" />
  <path stroke="black" stroke-width="0.78125" fill="none" d="M224.6875 178.75 C 222.375 175.0, 222.0625 172.8125, 223.375 169.4375" />
  <path stroke="black" stroke-width="0.78125" fill="none" d="M231.125 178.25 C 227.25 175.0, 227.0 173.625, 227.3125 169.4375" />
  <path stroke="black" stroke-width="0.78125" fill="none" d="M236.375 171.8125 C 237.5 170.9375, 238.4375 170.0, 238.6875 169.375" />
  <path stroke="black" stroke-width="0.78125" fill="none" d="M238.25 173.6875 C 240.625 172.5, 241.5625 171.5625, 242.1875 169.25" />
  <path stroke="black" stroke-width="0.78125" fill="none" d="M247.6875 210.625 C 240.3125 207.8125, 237.1875 204.0625, 235.25 199.875" />
  <path stroke="black" stroke-width="0.78125" fill="none" d="M250.75 207.5625 C 243.75 203.75, 241.875 201.875, 239.0625 197.5" />
  <path stroke="black" stroke-width="0.78125" fill="none" d="M254.6875 203.625 C 247.5 200.625, 245.0 198.125, 242.4375 193.75" />
  <path stroke="black" stroke-width="0.78125" fill="none" d="M258.5625 201.375 C 250.0 196.25, 247.5 193.75, 244.875 190.0" />
  <path stroke="black" stroke-width="0.78125" fill="none" d="M221.375 196.6875 C 220.1875 195.3125, 219.5625 194.6875, 218.75 193.875" />
  <path stroke="black" stroke-width="0.78125" fill="none" d="M221.375 196.6875 C 218.125 197.375, 215.0 197.375, 211.3125 196.6875" />
  <path stroke="black" stroke-width="0.78125" fill="none" d="M211.3125 196.6875 C 211.75 194.6875, 215.5 194.25, 218.75 193.875" />
  <path stroke="black" stroke-width="0.78125" fill="none" d="M217.625 191.875 C 216.875 190.625, 215.9375 189.0625, 215.5 188.3125" />
  <path stroke="black" stroke-width="0.78125" fill="none" d="M217.625 191.875 C 212.8125 193.125, 211.875 193.125, 209.6875 193.0" />
  <path stroke="black" stroke-width="0.78125" fill="none" d="M209.6875 193.0 C 212.1875 190.625, 213.75 189.25, 215.5 188.3125" />
  <path stroke="black" stroke-width="0.5524271728019903" fill="none" d="M205.6875 150.4375 C 213.90625 167.65625, 212.875 171.0, 203.34375 191.78125" />
  <path stroke="black" stroke-width="0.5524271728019903" fill="none" d="M212.625 185.375 C 206.6875 189.8125, 203.875 193.5, 200.0 200.0" />
  <path stroke="black" stroke-width="0.5524271728019903" fill="none" d="M215.625 168.75 C 213.5625 174.3125, 213.0 178.75, 212.625 185.375" />
  <path stroke="black" stroke-width="0.5524271728019903" fill="none" d="M231.25 168.75 C 224.375 168.75, 220.3125 168.75, 215.625 168.75" />
  <path stroke="black" stroke-width="0.5524271728019903" fill="none" d="M231.25 153.125 C 231.25 159.375, 231.25 163.125, 231.25 168.75" />
  <path stroke="black" stroke-width="0.5524271728019903" fill="none" d="M231.25 153.125 C 225.6875 151.0625, 221.25 150.5, 214.625 150.125" />
  <path stroke="black" stroke-width="0.5524271728019903" fill="none" d="M214.625 150.125 C 218.4375 159.375, 218.4375 160.9375, 215.625 168.75" />
  <path stroke="black" stroke-width="0.5524271728019903" fill="none" d="M214.625 150.125 C 210.1875 144.1875, 206.5 141.375, 200.0 137.5" />
  <path stroke="black" stroke-width="0.5524271728019903" fill="none" d="M200.0 137.5 C 198.6875 142.6875, 198.25 145.9375, 199.0 151.125" />
  <path stroke="black" stroke-width="0.5524271728019903" fill="none" d="M199.0 151.125 C 199.4375 159.9375, 207.125 159.125, 207.6875 168.75" />
  <path stroke="black" stroke-width="0.5524271728019903" fill="none" d="M207.6875 168.75 C 207.8125 170.3125, 207.8125 173.4375, 207.8125 176.5625" />
  <path stroke="black" stroke-width="0.5524271728019903" fill="none" d="M207.8125 176.5625 C 206.0625 180.375, 204.125 182.875, 201.0 186.375" />
  <path stroke="black" stroke-width="0.5524271728019903" fill="none" d="M201.0 186.375 C 201.75 191.5625, 201.3125 194.8125, 200.0 200.0" />
  <path stroke="black" stroke-width="0.5524271728019903" fill="none" d="M199.0 151.125 C 195.875 154.625, 193.9375 157.125, 192.1875 160.9375" />
  <path stroke="black" stroke-width="0.5524271728019903" fill="none" d="M192.1875 160.9375 C 196.09375 164.84375, 197.65625 166.40625, 200.0 168.75" />
  <path stroke="black" stroke-width="0.5524271728019903" fill="none" d="M200.0 168.75 C 202.5 168.75, 205.625 168.75, 207.6875 168.75" />
  <path stroke="black" stroke-width="0.5524271728019903" fill="none" d="M199.21875 156.40625 C 196.5625 157.6875, 195.25 159.375, 194.40625 162.34375" />
  <path stroke="black" stroke-width="0.5524271728019903" fill="none" d="M201.71875 160.46875 C 198.6875 161.1875, 197.4375 162.125, 196.40625 164.46875" />
  <path stroke="black" stroke-width="0.5524271728019903" fill="none" d="M204.6875 163.9375 C 201.125 163.625, 200.3125 164.1875, 198.375 166.4375" />
  <path stroke="black" stroke-width="0.5524271728019903" fill="none" d="M204.09375 169.78125 C 204.21875 170.78125, 204.21875 171.71875, 204.03125 172.15625" />
  <path stroke="black" stroke-width="0.5524271728019903" fill="none" d="M205.96875 169.78125 C 206.5625 171.5625, 206.5625 172.5, 205.71875 173.96875" />
  <path stroke="black" stroke-width="0.5524271728019903" fill="none" d="M229.15625 156.03125 C 224.0625 153.75, 220.625 154.0625, 217.5625 155.1875" />
  <path stroke="black" stroke-width="0.5524271728019903" fill="none" d="M229.15625 159.09375 C 223.75 157.5, 221.875 157.5, 218.28125 158.28125" />
  <path stroke="black" stroke-width="0.5524271728019903" fill="none" d="M229.15625 163.03125 C 224.0625 160.9375, 221.5625 160.9375, 218.09375 161.84375" />
  <path stroke="black" stroke-width="0.5524271728019903" fill="none" d="M229.96875 166.09375 C 223.125 164.375, 220.625 164.375, 217.4375 164.9375" />
  <path stroke="black" stroke-width="0.5524271728019903" fill="none" d="M209.03125 149.84375 C 207.75 149.9375, 207.125 149.9375, 206.3125 149.9375" />
  <path stroke="black" stroke-width="0.5524271728019903" fill="none" d="M209.03125 149.84375 C 207.75 147.875, 206.1875 146.3125, 204.0 144.8125" />
  <path stroke="black" stroke-width="0.5524271728019903" fill="none" d="M204.0 144.8125 C 203.21875 146.03125, 204.875 148.125, 206.3125 149.9375" />
  <path stroke="black" stroke-width="0.5524271728019903" fill="none" d="M204.75 150.375 C 203.75 150.625, 202.5 150.9375, 201.90625 151.09375" />
  <path stroke="black" stroke-width="0.5524271728019903" fill="none" d="M204.75 150.375 C 202.96875 147.34375, 202.5 146.875, 201.34375 145.84375" />
  <path stroke="black" stroke-width="0.5524271728019903" fill="none" d="M201.34375 145.84375 C 201.40625 148.28125, 201.5 149.75, 201.90625 151.09375" />
  <path stroke="black" stroke-width="0.5524271728019903" fill="none" d="M249.5625 143.1875 C 232.34375 151.40625, 229.0 150.375, 208.21875 140.84375" />
  <path stroke="black" stroke-width="0.5524271728019903" fill="none" d="M214.625 150.125 C 210.1875 144.1875, 206.5 141.375, 200.0 137.5" />
  <path stroke="black" stroke-width="0.5524271728019903" fill="none" d="M231.25 153.125 C 225.6875 151.0625, 221.25 150.5, 214.625 150.125" />
  <path stroke="black" stroke-width="0.5524271728019903" fill="none" d="M231.25 168.75 C 231.25 161.875, 231.25 157.8125, 231.25 153.125" />
  <path stroke="black" stroke-width="0.5524271728019903" fill="none" d="M246.875 168.75 C 240.625 168.75, 236.875 168.75, 231.25 168.75" />
  <path stroke="black" stroke-width="0.5524271728019903" fill="none" d="M246.875 168.75 C 248.9375 163.1875, 249.5 158.75, 249.875 152.125" />
  <path stroke="black" stroke-width="0.5524271728019903" fill="none" d="M249.875 152.125 C 240.625 155.9375, 239.0625 155.9375, 231.25 153.125" />
  <path stroke="black" stroke-width="0.5524271728019903" fill="none" d="M249.875 152.125 C 255.8125 147.6875, 258.625 144.0, 262.5 137.5" />
  <path stroke="black" stroke-width="0.5524271728019903" fill="none" d="M262.5 137.5 C 257.3125 136.1875, 254.0625 135.75, 248.875 136.5" />
  <path stroke="black" stroke-width="0.5524271728019903" fill="none" d="M248.875 136.5 C 240.0625 136.9375, 240.875 144.625, 231.25 145.1875" />
  <path stroke="black" stroke-width="0.5524271728019903" fill="none" d="M231.25 145.1875 C 229.6875 145.3125, 226.5625 145.3125, 223.4375 145.3125" />
  <path stroke="black" stroke-width="0.5524271728019903" fill="none" d="M223.4375 145.3125 C 219.625 143.5625, 217.125 141.625, 213.625 138.5" />
  <path stroke="black" stroke-width="0.5524271728019903" fill="none" d="M213.625 138.5 C 208.4375 139.25, 205.1875 138.8125, 200.0 137.5" />
  <path stroke="black" stroke-width="0.5524271728019903" fill="none" d="M248.875 136.5 C 245.375 133.375, 242.875 131.4375, 239.0625 129.6875" />
  <path stroke="black" stroke-width="0.5524271728019903" fill="none" d="M239.0625 129.6875 C 235.15625 133.59375, 233.59375 135.15625, 231.25 137.5" />
  <path stroke="black" stroke-width="0.5524271728019903" fill="none" d="M231.25 137.5 C 231.25 140.0, 231.25 143.125, 231.25 145.1875" />
  <path stroke="black" stroke-width="0.5524271728019903" fill="none" d="M243.59375 136.71875 C 242.3125 134.0625, 240.625 132.75, 237.65625 131.90625" />
  <path stroke="black" stroke-width="0.5524271728019903" fill="none" d="M239.53125 139.21875 C 238.8125 136.1875, 237.875 134.9375, 235.53125 133.90625" />
  <path stroke="black" stroke-width="0.5524271728019903" fill="none" d="M236.0625 142.1875 C 236.375 138.625, 235.8125 137.8125, 233.5625 135.875" />
  <path stroke="black" stroke-width="0.5524271728019903" fill="none" d="M230.21875 141.59375 C 229.21875 141.71875, 228.28125 141.71875, 227.84375 141.53125" />
  <path stroke="black" stroke-width="0.5524271728019903" fill="none" d="M230.21875 143.46875 C 228.4375 144.0625, 227.5 144.0625, 226.03125 143.21875" />
  <path stroke="black" stroke-width="0.5524271728019903" fill="none" d="M243.96875 166.65625 C 246.25 161.5625, 245.9375 158.125, 244.8125 155.0625" />
  <path stroke="black" stroke-width="0.5524271728019903" fill="none" d="M240.90625 166.65625 C 242.5 161.25, 242.5 159.375, 241.71875 155.78125" />
  <path stroke="black" stroke-width="0.5524271728019903" fill="none" d="M236.96875 166.65625 C 239.0625 161.5625, 239.0625 159.0625, 238.15625 155.59375" />
  <path stroke="black" stroke-width="0.5524271728019903" fill="none" d="M233.90625 167.46875 C 235.625 160.625, 235.625 158.125, 235.0625 154.9375" />
  <path stroke="black" stroke-width="0.5524271728019903" fill="none" d="M250.15625 146.53125 C 250.0625 145.25, 250.0625 144.625, 250.0625 143.8125" />
  <path stroke="black" stroke-width="0.5524271728019903" fill="none" d="M250.15625 146.53125 C 252.125 145.25, 253.6875 143.6875, 255.1875 141.5" />
  <path stroke="black" stroke-width="0.5524271728019903" fill="none" d="M255.1875 141.5 C 253.96875 140.71875, 251.875 142.375, 250.0625 143.8125" />
  <path stroke="black" stroke-width="0.5524271728019903" fill="none" d="M249.625 142.25 C 249.375 141.25, 249.0625 140.0, 248.90625 139.40625" />
  <path stroke="black" stroke-width="0.5524271728019903" fill="none" d="M249.625 142.25 C 252.65625 140.46875, 253.125 140.0, 254.15625 138.84375" />
  <path stroke="black" stroke-width="0.5524271728019903" fill="none" d="M254.15625 138.84375 C 251.71875 138.90625, 250.25 139.0, 248.90625 139.40625" />
  <path stroke="black" stroke-width="0.78125" fill="none" d="M269.75 156.125 C 278.75 181.5625, 283.125 183.875, 313.4375 195.125" />
  <path stroke="black" stroke-width="0.78125" fill="none" d="M297.75 198.0 C 308.125 196.5, 314.625 197.375, 325.0 200.0" />
  <path stroke="black" stroke-width="0.78125" fill="none" d="M278.125 184.375 C 285.75 187.875, 290.75 191.75, 297.75 198.0" />
  <path stroke="black" stroke-width="0.78125" fill="none" d="M262.5 200.0 C 269.375 193.125, 273.4375 189.0625, 278.125 184.375" />
  <path stroke="black" stroke-width="0.78125" fill="none" d="M246.875 184.375 C 253.125 190.625, 256.875 194.375, 262.5 200.0" />
  <path stroke="black" stroke-width="0.78125" fill="none" d="M246.875 184.375 C 250.375 176.75, 254.25 171.75, 260.5 164.75" />
  <path stroke="black" stroke-width="0.78125" fill="none" d="M260.5 164.75 C 265.9375 177.8125, 267.5 179.375, 278.125 184.375" />
  <path stroke="black" stroke-width="0.78125" fill="none" d="M260.5 164.75 C 259.0 154.375, 259.875 147.875, 262.5 137.5" />
  <path stroke="black" stroke-width="0.78125" fill="none" d="M262.5 137.5 C 269.0 141.375, 272.6875 144.1875, 277.125 150.125" />
  <path stroke="black" stroke-width="0.78125" fill="none" d="M277.125 150.125 C 285.5 159.375, 277.0 166.25, 286.0625 176.4375" />
  <path stroke="black" stroke-width="0.78125" fill="none" d="M286.0625 176.4375 C 287.5 178.125, 290.625 181.25, 293.75 184.375" />
  <path stroke="black" stroke-width="0.78125" fill="none" d="M293.75 184.375 C 299.3125 186.4375, 303.75 187.0, 310.375 187.375" />
  <path stroke="black" stroke-width="0.78125" fill="none" d="M310.375 187.375 C 314.8125 193.3125, 318.5 196.125, 325.0 200.0" />
  <path stroke="black" stroke-width="0.78125" fill="none" d="M277.125 150.125 C 283.75 150.5, 288.1875 151.0625, 293.75 153.125" />
  <path stroke="black" stroke-width="0.78125" fill="none" d="M293.75 153.125 C 293.75 160.9375, 293.75 164.0625, 293.75 168.75" />
  <path stroke="black" stroke-width="0.78125" fill="none" d="M293.75 168.75 C 291.25 171.25, 288.125 174.375, 286.0625 176.4375" />
  <path stroke="black" stroke-width="0.78125" fill="none" d="M282.1875 155.625 C 286.125 154.25, 289.125 154.625, 292.9375 156.75" />
  <path stroke="black" stroke-width="0.78125" fill="none" d="M283.75 162.1875 C 287.5 159.875, 289.6875 159.5625, 293.0625 160.875" />
  <path stroke="black" stroke-width="0.78125" fill="none" d="M284.25 168.625 C 287.5 164.75, 288.875 164.5, 293.0625 164.8125" />
  <path stroke="black" stroke-width="0.78125" fill="none" d="M290.6875 173.875 C 291.5625 175.0, 292.5 175.9375, 293.125 176.1875" />
  <path stroke="black" stroke-width="0.78125" fill="none" d="M288.8125 175.75 C 290.0 178.125, 290.9375 179.0625, 293.25 179.6875" />
  <path stroke="black" stroke-width="0.78125" fill="none" d="M251.875 185.1875 C 254.6875 177.8125, 258.4375 174.6875, 262.625 172.75" />
  <path stroke="black" stroke-width="0.78125" fill="none" d="M254.9375 188.25 C 258.75 181.25, 260.625 179.375, 265.0 176.5625" />
  <path stroke="black" stroke-width="0.78125" fill="none" d="M258.875 192.1875 C 261.875 185.0, 264.375 182.5, 268.75 179.9375" />
  <path stroke="black" stroke-width="0.78125" fill="none" d="M261.125 196.0625 C 266.25 187.5, 268.75 185.0, 272.5 182.375" />
  <path stroke="black" stroke-width="0.78125" fill="none" d="M265.8125 158.875 C 267.1875 157.6875, 267.8125 157.0625, 268.625 156.25" />
  <path stroke="black" stroke-width="0.78125" fill="none" d="M265.8125 158.875 C 265.125 155.625, 265.125 152.5, 265.8125 148.8125" />
  <path stroke="black" stroke-width="0.78125" fill="none" d="M265.8125 148.8125 C 267.8125 149.25, 268.25 153.0, 268.625 156.25" />
  <path stroke="black" stroke-width="0.78125" fill="none" d="M270.625 155.125 C 271.875 154.375, 273.4375 153.4375, 274.1875 153.0" />
  <path stroke="black" stroke-width="0.78125" fill="none" d="M270.625 155.125 C 269.375 150.3125, 269.375 149.375, 269.5 147.1875" />
  <path stroke="black" stroke-width="0.78125" fill="none" d="M269.5 147.1875 C 271.875 149.6875, 273.25 151.25, 274.1875 153.0" />
  <path stroke="black" stroke-width="0.5524271728019903" fill="none" d="M312.0625 143.1875 C 294.84375 151.40625, 291.5 150.375, 270.71875 140.84375" />
  <path stroke="black" stroke-width="0.5524271728019903" fill="none" d="M277.125 150.125 C 272.6875 144.1875, 269.0 141.375, 262.5 137.5" />
  <path stroke="black" stroke-width="0.5524271728019903" fill="none" d="M293.75 153.125 C 288.1875 151.0625, 283.75 150.5, 277.125 150.125" />
  <path stroke="black" stroke-width="0.5524271728019903" fill="none" d="M293.75 168.75 C 293.75 161.875, 293.75 157.8125, 293.75 153.125" />
  <path stroke="black" stroke-width="0.5524271728019903" fill="none" d="M309.375 168.75 C 303.125 168.75, 299.375 168.75, 293.75 168.75" />
  <path stroke="black" stroke-width="0.5524271728019903" fill="none" d="M309.375 168.75 C 311.4375 163.1875, 312.0 158.75, 312.375 152.125" />
  <path stroke="black" stroke-width="0.5524271728019903" fill="none" d="M312.375 152.125 C 303.125 155.9375, 301.5625 155.9375, 293.75 153.125" />
  <path stroke="black" stroke-width="0.5524271728019903" fill="none" d="M312.375 152.125 C 318.3125 147.6875, 321.125 144.0, 325.0 137.5" />
  <path stroke="black" stroke-width="0.5524271728019903" fill="none" d="M325.0 137.5 C 319.8125 136.1875, 316.5625 135.75, 311.375 136.5" />
  <path stroke="black" stroke-width="0.5524271728019903" fill="none" d="M311.375 136.5 C 302.5625 136.9375, 303.375 144.625, 293.75 145.1875" />
  <path stroke="black" stroke-width="0.5524271728019903" fill="none" d="M293.75 145.1875 C 292.1875 145.3125, 289.0625 145.3125, 285.9375 145.3125" />
  <path stroke="black" stroke-width="0.5524271728019903" fill="none" d="M285.9375 145.3125 C 282.125 143.5625, 279.625 141.625, 276.125 138.5" />
  <path stroke="black" stroke-width="0.5524271728019903" fill="none" d="M276.125 138.5 C 270.9375 139.25, 267.6875 138.8125, 262.5 137.5" />
  <path stroke="black" stroke-width="0.5524271728019903" fill="none" d="M311.375 136.5 C 307.875 133.375, 305.375 131.4375, 301.5625 129.6875" />
  <path stroke="black" stroke-width="0.5524271728019903" fill="none" d="M301.5625 129.6875 C 297.65625 133.59375, 296.09375 135.15625, 293.75 137.5" />
  <path stroke="black" stroke-width="0.5524271728019903" fill="none" d="M293.75 137.5 C 293.75 140.0, 293.75 143.125, 293.75 145.1875" />
  <path stroke="black" stroke-width="0.5524271728019903" fill="none" d="M306.09375 136.71875 C 304.8125 134.0625, 303.125 132.75, 300.15625 131.90625" />
  <path stroke="black" stroke-width="0.5524271728019903" fill="none" d="M302.03125 139.21875 C 301.3125 136.1875, 300.375 134.9375, 298.03125 133.90625" />
  <path stroke="black" stroke-width="0.5524271728019903" fill="none" d="M298.5625 142.1875 C 298.875 138.625, 298.3125 137.8125, 296.0625 135.875" />
  <path stroke="black" stroke-width="0.5524271728019903" fill="none" d="M292.71875 141.59375 C 291.71875 141.71875, 290.78125 141.71875, 290.34375 141.53125" />
  <path stroke="black" stroke-width="0.5524271728019903" fill="none" d="M292.71875 143.46875 C 290.9375 144.0625, 290.0 144.0625, 288.53125 143.21875" />
  <path stroke="black" stroke-width="0.5524271728019903" fill="none" d="M306.46875 166.65625 C 308.75 161.5625, 308.4375 158.125, 307.3125 155.0625" />
  <path stroke="black" stroke-width="0.5524271728019903" fill="none" d="M303.40625 166.65625 C 305.0 161.25, 305.0 159.375, 304.21875 155.78125" />
  <path stroke="black" stroke-width="0.5524271728019903" fill="none" d="M299.46875 166.65625 C 301.5625 161.5625, 301.5625 159.0625, 300.65625 155.59375" />
  <path stroke="black" stroke-width="0.5524271728019903" fill="none" d="M296.40625 167.46875 C 298.125 160.625, 298.125 158.125, 297.5625 154.9375" />
  <path stroke="black" stroke-width="0.5524271728019903" fill="none" d="M312.65625 146.53125 C 312.5625 145.25, 312.5625 144.625, 312.5625 143.8125" />
  <path stroke="black" stroke-width="0.5524271728019903" fill="none" d="M312.65625 146.53125 C 314.625 145.25, 316.1875 143.6875, 317.6875 141.5" />
  <path stroke="black" stroke-width="0.5524271728019903" fill="none" d="M317.6875 141.5 C 316.46875 140.71875, 314.375 142.375, 312.5625 143.8125" />
  <path stroke="black" stroke-width="0.5524271728019903" fill="none" d="M312.125 142.25 C 311.875 141.25, 311.5625 140.0, 311.40625 139.40625" />
  <path stroke="black" stroke-width="0.5524271728019903" fill="none" d="M312.125 142.25 C 315.15625 140.46875, 315.625 140.0, 316.65625 138.84375" />
  <path stroke="black" stroke-width="0.5524271728019903" fill="none" d="M316.65625 138.84375 C 314.21875 138.90625, 312.75 139.0, 311.40625 139.40625" />
  <path stroke="black" stroke-width="0.5524271728019903" fill="none" d="M319.3125 187.0625 C 311.09375 169.84375, 312.125 166.5, 321.65625 145.71875" />
  <path stroke="black" stroke-width="0.5524271728019903" fill="none" d="M312.375 152.125 C 318.3125 147.6875, 321.125 144.0, 325.0 137.5" />
  <path stroke="black" stroke-width="0.5524271728019903" fill="none" d="M309.375 168.75 C 311.4375 163.1875, 312.0 158.75, 312.375 152.125" />
  <path stroke="black" stroke-width="0.5524271728019903" fill="none" d="M293.75 168.75 C 300.625 168.75, 304.6875 168.75, 309.375 168.75" />
  <path stroke="black" stroke-width="0.5524271728019903" fill="none" d="M293.75 184.375 C 293.75 178.125, 293.75 174.375, 293.75 168.75" />
  <path stroke="black" stroke-width="0.5524271728019903" fill="none" d="M293.75 184.375 C 299.3125 186.4375, 303.75 187.0, 310.375 187.375" />
  <path stroke="black" stroke-width="0.5524271728019903" fill="none" d="M310.375 187.375 C 306.5625 178.125, 306.5625 176.5625, 309.375 168.75" />
  <path stroke="black" stroke-width="0.5524271728019903" fill="none" d="M310.375 187.375 C 314.8125 193.3125, 318.5 196.125, 325.0 200.0" />
  <path stroke="black" stroke-width="0.5524271728019903" fill="none" d="M325.0 200.0 C 326.3125 194.8125, 326.75 191.5625, 326.0 186.375" />
  <path stroke="black" stroke-width="0.5524271728019903" fill="none" d="M326.0 186.375 C 325.5625 177.5625, 317.875 178.375, 317.3125 168.75" />
  <path stroke="black" stroke-width="0.5524271728019903" fill="none" d="M317.3125 168.75 C 317.1875 167.1875, 317.1875 164.0625, 317.1875 160.9375" />
  <path stroke="black" stroke-width="0.5524271728019903" fill="none" d="M317.1875 160.9375 C 318.9375 157.125, 320.875 154.625, 324.0 151.125" />
  <path stroke="black" stroke-width="0.5524271728019903" fill="none" d="M324.0 151.125 C 323.25 145.9375, 323.6875 142.6875, 325.0 137.5" />
  <path stroke="black" stroke-width="0.5524271728019903" fill="none" d="M326.0 186.375 C 329.125 182.875, 331.0625 180.375, 332.8125 176.5625" />
  <path stroke="black" stroke-width="0.5524271728019903" fill="none" d="M332.8125 176.5625 C 328.90625 172.65625, 327.34375 171.09375, 325.0 168.75" />
  <path stroke="black" stroke-width="0.5524271728019903" fill="none" d="M325.0 168.75 C 322.5 168.75, 319.375 168.75, 317.3125 168.75" />
  <path stroke="black" stroke-width="0.5524271728019903" fill="none" d="M325.78125 181.09375 C 328.4375 179.8125, 329.75 178.125, 330.59375 175.15625" />
  <path stroke="black" stroke-width="0.5524271728019903" fill="none" d="M323.28125 177.03125 C 326.3125 176.3125, 327.5625 175.375, 328.59375 173.03125" />
  <path stroke="black" stroke-width="0.5524271728019903" fill="none" d="M320.3125 173.5625 C 323.875 173.875, 324.6875 173.3125, 326.625 171.0625" />
  <path stroke="black" stroke-width="0.5524271728019903" fill="none" d="M320.90625 167.71875 C 320.78125 166.71875, 320.78125 165.78125, 320.96875 165.34375" />
  <path stroke="black" stroke-width="0.5524271728019903" fill="none" d="M319.03125 167.71875 C 318.4375 165.9375, 318.4375 165.0, 319.28125 163.53125" />
  <path stroke="black" stroke-width="0.5524271728019903" fill="none" d="M295.84375 181.46875 C 300.9375 183.75, 304.375 183.4375, 307.4375 182.3125" />
  <path stroke="black" stroke-width="0.5524271728019903" fill="none" d="M295.84375 178.40625 C 301.25 180.0, 303.125 180.0, 306.71875 179.21875" />
  <path stroke="black" stroke-width="0.5524271728019903" fill="none" d="M295.84375 174.46875 C 300.9375 176.5625, 303.4375 176.5625, 306.90625 175.65625" />
  <path stroke="black" stroke-width="0.5524271728019903" fill="none" d="M295.03125 171.40625 C 301.875 173.125, 304.375 173.125, 307.5625 172.5625" />
  <path stroke="black" stroke-width="0.5524271728019903" fill="none" d="M315.96875 187.65625 C 317.25 187.5625, 317.875 187.5625, 318.6875 187.5625" />
  <path stroke="black" stroke-width="0.5524271728019903" fill="none" d="M315.96875 187.65625 C 317.25 189.625, 318.8125 191.1875, 321.0 192.6875" />
  <path stroke="black" stroke-width="0.5524271728019903" fill="none" d="M321.0 192.6875 C 321.78125 191.46875, 320.125 189.375, 318.6875 187.5625" />
  <path stroke="black" stroke-width="0.5524271728019903" fill="none" d="M320.25 187.125 C 321.25 186.875, 322.5 186.5625, 323.09375 186.40625" />
  <path stroke="black" stroke-width="0.5524271728019903" fill="none" d="M320.25 187.125 C 322.03125 190.15625, 322.5 190.625, 323.65625 191.65625" />
  <path stroke="black" stroke-width="0.5524271728019903" fill="none" d="M323.65625 191.65625 C 323.59375 189.21875, 323.5 187.75, 323.09375 186.40625" />
  <path stroke="black" stroke-width="1.5625" fill="none" d="M112.25 310.5 C 163.125 292.5, 167.75 283.75, 190.25 223.125" />
  <path stroke="black" stroke-width="1.5625" fill="none" d="M196.0 254.5 C 193.0 233.75, 194.75 220.75, 200.0 200.0" />
  <path stroke="black" stroke-width="1.5625" fill="none" d="M168.75 293.75 C 175.75 278.5, 183.5 268.5, 196.0 254.5" />
  <path stroke="black" stroke-width="1.5625" fill="none" d="M200.0 325.0 C 186.25 311.25, 178.125 303.125, 168.75 293.75" />
  <path stroke="black" stroke-width="1.5625" fill="none" d="M168.75 356.25 C 181.25 343.75, 188.75 336.25, 200.0 325.0" />
  <path stroke="black" stroke-width="1.5625" fill="none" d="M168.75 356.25 C 153.5 349.25, 143.5 341.5, 129.5 329.0" />
  <path stroke="black" stroke-width="1.5625" fill="none" d="M129.5 329.0 C 155.625 318.125, 158.75 315.0, 168.75 293.75" />
  <path stroke="black" stroke-width="1.5625" fill="none" d="M129.5 329.0 C 108.75 332.0, 95.75 330.25, 75.0 325.0" />
  <path stroke="black" stroke-width="1.5625" fill="none" d="M75.0 325.0 C 82.75 312.0, 88.375 304.625, 100.25 295.75" />
  <path stroke="black" stroke-width="1.5625" fill="none" d="M100.25 295.75 C 118.75 279.0, 132.5 296.0, 152.875 277.875" />
  <path stroke="black" stroke-width="1.5625" fill="none" d="M152.875 277.875 C 156.25 275.0, 162.5 268.75, 168.75 262.5" />
  <path stroke="black" stroke-width="1.5625" fill="none" d="M168.75 262.5 C 172.875 251.375, 174.0 242.5, 174.75 229.25" />
  <path stroke="black" stroke-width="1.5625" fill="none" d="M174.75 229.25 C 186.625 220.375, 192.25 213.0, 200.0 200.0" />
  <path stroke="black" stroke-width="1.5625" fill="none" d="M100.25 295.75 C 101.0 282.5, 102.125 273.625, 106.25 262.5" />
  <path stroke="black" stroke-width="1.5625" fill="none" d="M106.25 262.5 C 121.875 262.5, 128.125 262.5, 137.5 262.5" />
  <path stroke="black" stroke-width="1.5625" fill="none" d="M137.5 262.5 C 142.5 267.5, 148.75 273.75, 152.875 277.875" />
  <path stroke="black" stroke-width="1.5625" fill="none" d="M111.25 285.625 C 108.5 277.75, 109.25 271.75, 113.5 264.125" />
  <path stroke="black" stroke-width="1.5625" fill="none" d="M124.375 282.5 C 119.75 275.0, 119.125 270.625, 121.75 263.875" />
  <path stroke="black" stroke-width="1.5625" fill="none" d="M137.25 281.5 C 129.5 275.0, 129.0 272.25, 129.625 263.875" />
  <path stroke="black" stroke-width="1.5625" fill="none" d="M147.75 268.625 C 150.0 266.875, 151.875 265.0, 152.375 263.75" />
  <path stroke="black" stroke-width="1.5625" fill="none" d="M151.5 272.375 C 156.25 270.0, 158.125 268.125, 159.375 263.5" />
  <path stroke="black" stroke-width="1.5625" fill="none" d="M170.375 346.25 C 155.625 340.625, 149.375 333.125, 145.5 324.75" />
  <path stroke="black" stroke-width="1.5625" fill="none" d="M176.5 340.125 C 162.5 332.5, 158.75 328.75, 153.125 320.0" />
  <path stroke="black" stroke-width="1.5625" fill="none" d="M184.375 332.25 C 170.0 326.25, 165.0 321.25, 159.875 312.5" />
  <path stroke="black" stroke-width="1.5625" fill="none" d="M192.125 327.75 C 175.0 317.5, 170.0 312.5, 164.75 305.0" />
  <path stroke="black" stroke-width="1.5625" fill="none" d="M117.75 318.375 C 115.375 315.625, 114.125 314.375, 112.5 312.75" />
  <path stroke="black" stroke-width="1.5625" fill="none" d="M117.75 318.375 C 111.25 319.75, 105.0 319.75, 97.625 318.375" />
  <path stroke="black" stroke-width="1.5625" fill="none" d="M97.625 318.375 C 98.5 314.375, 106.0 313.5, 112.5 312.75" />
  <path stroke="black" stroke-width="1.5625" fill="none" d="M110.25 308.75 C 108.75 306.25, 106.875 303.125, 106.0 301.625" />
  <path stroke="black" stroke-width="1.5625" fill="none" d="M110.25 308.75 C 100.625 311.25, 98.75 311.25, 94.375 311.0" />
  <path stroke="black" stroke-width="1.5625" fill="none" d="M94.375 311.0 C 99.375 306.25, 102.5 303.5, 106.0 301.625" />
  <path stroke="black" stroke-width="1.1048543456039805" fill="none" d="M86.375 225.875 C 102.8125 260.3125, 100.75 267.0, 81.6875 308.5625" />
  <path stroke="black" stroke-width="1.1048543456039805" fill="none" d="M100.25 295.75 C 88.375 304.625, 82.75 312.0, 75.0 325.0" />
  <path stroke="black" stroke-width="1.1048543456039805" fill="none" d="M106.25 262.5 C 102.125 273.625, 101.0 282.5, 100.25 295.75" />
  <path stroke="black" stroke-width="1.1048543456039805" fill="none" d="M137.5 262.5 C 123.75 262.5, 115.625 262.5, 106.25 262.5" />
  <path stroke="black" stroke-width="1.1048543456039805" fill="none" d="M137.5 231.25 C 137.5 243.75, 137.5 251.25, 137.5 262.5" />
  <path stroke="black" stroke-width="1.1048543456039805" fill="none" d="M137.5 231.25 C 126.375 227.125, 117.5 226.0, 104.25 225.25" />
  <path stroke="black" stroke-width="1.1048543456039805" fill="none" d="M104.25 225.25 C 111.875 243.75, 111.875 246.875, 106.25 262.5" />
  <path stroke="black" stroke-width="1.1048543456039805" fill="none" d="M104.25 225.25 C 95.375 213.375, 88.0 207.75, 75.0 200.0" />
  <path stroke="black" stroke-width="1.1048543456039805" fill="none" d="M75.0 200.0 C 72.375 210.375, 71.5 216.875, 73.0 227.25" />
  <path stroke="black" stroke-width="1.1048543456039805" fill="none" d="M73.0 227.25 C 73.875 244.875, 89.25 243.25, 90.375 262.5" />
  <path stroke="black" stroke-width="1.1048543456039805" fill="none" d="M90.375 262.5 C 90.625 265.625, 90.625 271.875, 90.625 278.125" />
  <path stroke="black" stroke-width="1.1048543456039805" fill="none" d="M90.625 278.125 C 87.125 285.75, 83.25 290.75, 77.0 297.75" />
  <path stroke="black" stroke-width="1.1048543456039805" fill="none" d="M77.0 297.75 C 78.5 308.125, 77.625 314.625, 75.0 325.0" />
  <path stroke="black" stroke-width="1.1048543456039805" fill="none" d="M73.0 227.25 C 66.75 234.25, 62.875 239.25, 59.375 246.875" />
  <path stroke="black" stroke-width="1.1048543456039805" fill="none" d="M59.375 246.875 C 67.1875 254.6875, 70.3125 257.8125, 75.0 262.5" />
  <path stroke="black" stroke-width="1.1048543456039805" fill="none" d="M75.0 262.5 C 80.0 262.5, 86.25 262.5, 90.375 262.5" />
  <path stroke="black" stroke-width="1.1048543456039805" fill="none" d="M73.4375 237.8125 C 68.125 240.375, 65.5 243.75, 63.8125 249.6875" />
  <path stroke="black" stroke-width="1.1048543456039805" fill="none" d="M78.4375 245.9375 C 72.375 247.375, 69.875 249.25, 67.8125 253.9375" />
  <path stroke="black" stroke-width="1.1048543456039805" fill="none" d="M84.375 252.875 C 77.25 252.25, 75.625 253.375, 71.75 257.875" />
  <path stroke="black" stroke-width="1.1048543456039805" fill="none" d="M83.1875 264.5625 C 83.4375 266.5625, 83.4375 268.4375, 83.0625 269.3125" />
  <path stroke="black" stroke-width="1.1048543456039805" fill="none" d="M86.9375 264.5625 C 88.125 268.125, 88.125 270.0, 86.4375 272.9375" />
  <path stroke="black" stroke-width="1.1048543456039805" fill="none" d="M133.3125 237.0625 C 123.125 232.5, 116.25 233.125, 110.125 235.375" />
  <path stroke="black" stroke-width="1.1048543456039805" fill="none" d="M133.3125 243.1875 C 122.5 240.0, 118.75 240.0, 111.5625 241.5625" />
  <path stroke="black" stroke-width="1.1048543456039805" fill="none" d="M133.3125 251.0625 C 123.125 246.875, 118.125 246.875, 111.1875 248.6875" />
  <path stroke="black" stroke-width="1.1048543456039805" fill="none" d="M134.9375 257.1875 C 121.25 253.75, 116.25 253.75, 109.875 254.875" />
  <path stroke="black" stroke-width="1.1048543456039805" fill="none" d="M93.0625 224.6875 C 90.5 224.875, 89.25 224.875, 87.625 224.875" />
  <path stroke="black" stroke-width="1.1048543456039805" fill="none" d="M93.0625 224.6875 C 90.5 220.75, 87.375 217.625, 83.0 214.625" />
  <path stroke="black" stroke-width="1.1048543456039805" fill="none" d="M83.0 214.625 C 81.4375 217.0625, 84.75 221.25, 87.625 224.875" />
  <path stroke="black" stroke-width="1.1048543456039805" fill="none" d="M84.5 225.75 C 82.5 226.25, 80.0 226.875, 78.8125 227.1875" />
  <path stroke="black" stroke-width="1.1048543456039805" fill="none" d="M84.5 225.75 C 80.9375 219.6875, 80.0 218.75, 77.6875 216.6875" />
  <path stroke="black" stroke-width="1.1048543456039805" fill="none" d="M77.6875 216.6875 C 77.8125 221.5625, 78.0 224.5, 78.8125 227.1875" />
  <path stroke="black" stroke-width="1.1048543456039805" fill="none" d="M174.125 211.375 C 139.6875 227.8125, 133.0 225.75, 91.4375 206.6875" />
  <path stroke="black" stroke-width="1.1048543456039805" fill="none" d="M104.25 225.25 C 95.375 213.375, 88.0 207.75, 75.0 200.0" />
  <path stroke="black" stroke-width="1.1048543456039805" fill="none" d="M137.5 231.25 C 126.375 227.125, 117.5 226.0, 104.25 225.25" />
  <path stroke="black" stroke-width="1.1048543456039805" fill="none" d="M137.5 262.5 C 137.5 248.75, 137.5 240.625, 137.5 231.25" />
  <path stroke="black" stroke-width="1.1048543456039805" fill="none" d="M168.75 262.5 C 156.25 262.5, 148.75 262.5, 137.5 262.5" />
  <path stroke="black" stroke-width="1.1048543456039805" fill="none" d="M168.75 262.5 C 172.875 251.375, 174.0 242.5, 174.75 229.25" />
  <path stroke="black" stroke-width="1.1048543456039805" fill="none" d="M174.75 229.25 C 156.25 236.875, 153.125 236.875, 137.5 231.25" />
  <path stroke="black" stroke-width="1.1048543456039805" fill="none" d="M174.75 229.25 C 186.625 220.375, 192.25 213.0, 200.0 200.0" />
  <path stroke="black" stroke-width="1.1048543456039805" fill="none" d="M200.0 200.0 C 189.625 197.375, 183.125 196.5, 172.75 198.0" />
  <path stroke="black" stroke-width="1.1048543456039805" fill="none" d="M172.75 198.0 C 155.125 198.875, 156.75 214.25, 137.5 215.375" />
  <path stroke="black" stroke-width="1.1048543456039805" fill="none" d="M137.5 215.375 C 134.375 215.625, 128.125 215.625, 121.875 215.625" />
  <path stroke="black" stroke-width="1.1048543456039805" fill="none" d="M121.875 215.625 C 114.25 212.125, 109.25 208.25, 102.25 202.0" />
  <path stroke="black" stroke-width="1.1048543456039805" fill="none" d="M102.25 202.0 C 91.875 203.5, 85.375 202.625, 75.0 200.0" />
  <path stroke="black" stroke-width="1.1048543456039805" fill="none" d="M172.75 198.0 C 165.75 191.75, 160.75 187.875, 153.125 184.375" />
  <path stroke="black" stroke-width="1.1048543456039805" fill="none" d="M153.125 184.375 C 145.3125 192.1875, 142.1875 195.3125, 137.5 200.0" />
  <path stroke="black" stroke-width="1.1048543456039805" fill="none" d="M137.5 200.0 C 137.5 205.0, 137.5 211.25, 137.5 215.375" />
  <path stroke="black" stroke-width="1.1048543456039805" fill="none" d="M162.1875 198.4375 C 159.625 193.125, 156.25 190.5, 150.3125 188.8125" />
  <path stroke="black" stroke-width="1.1048543456039805" fill="none" d="M154.0625 203.4375 C 152.625 197.375, 150.75 194.875, 146.0625 192.8125" />
  <path stroke="black" stroke-width="1.1048543456039805" fill="none" d="M147.125 209.375 C 147.75 202.25, 146.625 200.625, 142.125 196.75" />
  <path stroke="black" stroke-width="1.1048543456039805" fill="none" d="M135.4375 208.1875 C 133.4375 208.4375, 131.5625 208.4375, 130.6875 208.0625" />
  <path stroke="black" stroke-width="1.1048543456039805" fill="none" d="M135.4375 211.9375 C 131.875 213.125, 130.0 213.125, 127.0625 211.4375" />
  <path stroke="black" stroke-width="1.1048543456039805" fill="none" d="M162.9375 258.3125 C 167.5 248.125, 166.875 241.25, 164.625 235.125" />
  <path stroke="black" stroke-width="1.1048543456039805" fill="none" d="M156.8125 258.3125 C 160.0 247.5, 160.0 243.75, 158.4375 236.5625" />
  <path stroke="black" stroke-width="1.1048543456039805" fill="none" d="M148.9375 258.3125 C 153.125 248.125, 153.125 243.125, 151.3125 236.1875" />
  <path stroke="black" stroke-width="1.1048543456039805" fill="none" d="M142.8125 259.9375 C 146.25 246.25, 146.25 241.25, 145.125 234.875" />
  <path stroke="black" stroke-width="1.1048543456039805" fill="none" d="M175.3125 218.0625 C 175.125 215.5, 175.125 214.25, 175.125 212.625" />
  <path stroke="black" stroke-width="1.1048543456039805" fill="none" d="M175.3125 218.0625 C 179.25 215.5, 182.375 212.375, 185.375 208.0" />
  <path stroke="black" stroke-width="1.1048543456039805" fill="none" d="M185.375 208.0 C 182.9375 206.4375, 178.75 209.75, 175.125 212.625" />
  <path stroke="black" stroke-width="1.1048543456039805" fill="none" d="M174.25 209.5 C 173.75 207.5, 173.125 205.0, 172.8125 203.8125" />
  <path stroke="black" stroke-width="1.1048543456039805" fill="none" d="M174.25 209.5 C 180.3125 205.9375, 181.25 205.0, 183.3125 202.6875" />
  <path stroke="black" stroke-width="1.1048543456039805" fill="none" d="M183.3125 202.6875 C 178.4375 202.8125, 175.5 203.0, 172.8125 203.8125" />
  <path stroke="black" stroke-width="1.5625" fill="none" d="M214.5 237.25 C 232.5 288.125, 241.25 292.75, 301.875 315.25" />
  <path stroke="black" stroke-width="1.5625" fill="none" d="M270.5 321.0 C 291.25 318.0, 304.25 319.75, 325.0 325.0" />
  <path stroke="black" stroke-width="1.5625" fill="none" d="M231.25 293.75 C 246.5 300.75, 256.5 308.5, 270.5 321.0" />
  <path stroke="black" stroke-width="1.5625" fill="none" d="M200.0 325.0 C 213.75 311.25, 221.875 303.125, 231.25 293.75" />
  <path stroke="black" stroke-width="1.5625" fill="none" d="M168.75 293.75 C 181.25 306.25, 188.75 313.75, 200.0 325.0" />
  <path stroke="black" stroke-width="1.5625" fill="none" d="M168.75 293.75 C 175.75 278.5, 183.5 268.5, 196.0 254.5" />
  <path stroke="black" stroke-width="1.5625" fill="none" d="M196.0 254.5 C 206.875 280.625, 210.0 283.75, 231.25 293.75" />
  <path stroke="black" stroke-width="1.5625" fill="none" d="M196.0 254.5 C 193.0 233.75, 194.75 220.75, 200.0 200.0" />
  <path stroke="black" stroke-width="1.5625" fill="none" d="M200.0 200.0 C 213.0 207.75, 220.375 213.375, 229.25 225.25" />
  <path stroke="black" stroke-width="1.5625" fill="none" d="M229.25 225.25 C 246.0 243.75, 229.0 257.5, 247.125 277.875" />
  <path stroke="black" stroke-width="1.5625" fill="none" d="M247.125 277.875 C 250.0 281.25, 256.25 287.5, 262.5 293.75" />
  <path stroke="black" stroke-width="1.5625" fill="none" d="M262.5 293.75 C 273.625 297.875, 282.5 299.0, 295.75 299.75" />
  <path stroke="black" stroke-width="1.5625" fill="none" d="M295.75 299.75 C 304.625 311.625, 312.0 317.25, 325.0 325.0" />
  <path stroke="black" stroke-width="1.5625" fill="none" d="M229.25 225.25 C 242.5 226.0, 251.375 227.125, 262.5 231.25" />
  <path stroke="black" stroke-width="1.5625" fill="none" d="M262.5 231.25 C 262.5 246.875, 262.5 253.125, 262.5 262.5" />
  <path stroke="black" stroke-width="1.5625" fill="none" d="M262.5 262.5 C 257.5 267.5, 251.25 273.75, 247.125 277.875" />
  <path stroke="black" stroke-width="1.5625" fill="none" d="M239.375 236.25 C 247.25 233.5, 253.25 234.25, 260.875 238.5" />
  <path stroke="black" stroke-width="1.5625" fill="none" d="M242.5 249.375 C 250.0 244.75, 254.375 244.125, 261.125 246.75" />
  <path stroke="black" stroke-width="1.5625" fill="none" d="M243.5 262.25 C 250.0 254.5, 252.75 254.0, 261.125 254.625" />
  <path stroke="black" stroke-width="1.5625" fill="none" d="M256.375 272.75 C 258.125 275.0, 260.0 276.875, 261.25 277.375" />
  <path stroke="black" stroke-width="1.5625" fill="none" d="M252.625 276.5 C 255.0 281.25, 256.875 283.125, 261.5 284.375" />
  <path stroke="black" stroke-width="1.5625" fill="none" d="M178.75 295.375 C 184.375 280.625, 191.875 274.375, 200.25 270.5" />
  <path stroke="black" stroke-width="1.5625" fill="none" d="M184.875 301.5 C 192.5 287.5, 196.25 283.75, 205.0 278.125" />
  <path stroke="black" stroke-width="1.5625" fill="none" d="M192.75 309.375 C 198.75 295.0, 203.75 290.0, 212.5 284.875" />
  <path stroke="black" stroke-width="1.5625" fill="none" d="M197.25 317.125 C 207.5 300.0, 212.5 295.0, 220.0 289.75" />
  <path stroke="black" stroke-width="1.5625" fill="none" d="M206.625 242.75 C 209.375 240.375, 210.625 239.125, 212.25 237.5" />
  <path stroke="black" stroke-width="1.5625" fill="none" d="M206.625 242.75 C 205.25 236.25, 205.25 230.0, 206.625 222.625" />
  <path stroke="black" stroke-width="1.5625" fill="none" d="M206.625 222.625 C 210.625 223.5, 211.5 231.0, 212.25 237.5" />
  <path stroke="black" stroke-width="1.5625" fill="none" d="M216.25 235.25 C 218.75 233.75, 221.875 231.875, 223.375 231.0" />
  <path stroke="black" stroke-width="1.5625" fill="none" d="M216.25 235.25 C 213.75 225.625, 213.75 223.75, 214.0 219.375" />
  <path stroke="black" stroke-width="1.5625" fill="none" d="M214.0 219.375 C 218.75 224.375, 221.5 227.5, 223.375 231.0" />
  <path stroke="black" stroke-width="1.1048543456039805" fill="none" d="M299.125 211.375 C 264.6875 227.8125, 258.0 225.75, 216.4375 206.6875" />
  <path stroke="black" stroke-width="1.1048543456039805" fill="none" d="M229.25 225.25 C 220.375 213.375, 213.0 207.75, 200.0 200.0" />
  <path stroke="black" stroke-width="1.1048543456039805" fill="none" d="M262.5 231.25 C 251.375 227.125, 242.5 226.0, 229.25 225.25" />
  <path stroke="black" stroke-width="1.1048543456039805" fill="none" d="M262.5 262.5 C 262.5 248.75, 262.5 240.625, 262.5 231.25" />
  <path stroke="black" stroke-width="1.1048543456039805" fill="none" d="M293.75 262.5 C 281.25 262.5, 273.75 262.5, 262.5 262.5" />
  <path stroke="black" stroke-width="1.1048543456039805" fill="none" d="M293.75 262.5 C 297.875 251.375, 299.0 242.5, 299.75 229.25" />
  <path stroke="black" stroke-width="1.1048543456039805" fill="none" d="M299.75 229.25 C 281.25 236.875, 278.125 236.875, 262.5 231.25" />
  <path stroke="black" stroke-width="1.1048543456039805" fill="none" d="M299.75 229.25 C 311.625 220.375, 317.25 213.0, 325.0 200.0" />
  <path stroke="black" stroke-width="1.1048543456039805" fill="none" d="M325.0 200.0 C 314.625 197.375, 308.125 196.5, 297.75 198.0" />
  <path stroke="black" stroke-width="1.1048543456039805" fill="none" d="M297.75 198.0 C 280.125 198.875, 281.75 214.25, 262.5 215.375" />
  <path stroke="black" stroke-width="1.1048543456039805" fill="none" d="M262.5 215.375 C 259.375 215.625, 253.125 215.625, 246.875 215.625" />
  <path stroke="black" stroke-width="1.1048543456039805" fill="none" d="M246.875 215.625 C 239.25 212.125, 234.25 208.25, 227.25 202.0" />
  <path stroke="black" stroke-width="1.1048543456039805" fill="none" d="M227.25 202.0 C 216.875 203.5, 210.375 202.625, 200.0 200.0" />
  <path stroke="black" stroke-width="1.1048543456039805" fill="none" d="M297.75 198.0 C 290.75 191.75, 285.75 187.875, 278.125 184.375" />
  <path stroke="black" stroke-width="1.1048543456039805" fill="none" d="M278.125 184.375 C 270.3125 192.1875, 267.1875 195.3125, 262.5 200.0" />
  <path stroke="black" stroke-width="1.1048543456039805" fill="none" d="M262.5 200.0 C 262.5 205.0, 262.5 211.25, 262.5 215.375" />
  <path stroke="black" stroke-width="1.1048543456039805" fill="none" d="M287.1875 198.4375 C 284.625 193.125, 281.25 190.5, 275.3125 188.8125" />
  <path stroke="black" stroke-width="1.1048543456039805" fill="none" d="M279.0625 203.4375 C 277.625 197.375, 275.75 194.875, 271.0625 192.8125" />
  <path stroke="black" stroke-width="1.1048543456039805" fill="none" d="M272.125 209.375 C 272.75 202.25, 271.625 200.625, 267.125 196.75" />
  <path stroke="black" stroke-width="1.1048543456039805" fill="none" d="M260.4375 208.1875 C 258.4375 208.4375, 256.5625 208.4375, 255.6875 208.0625" />
  <path stroke="black" stroke-width="1.1048543456039805" fill="none" d="M260.4375 211.9375 C 256.875 213.125, 255.0 213.125, 252.0625 211.4375" />
  <path stroke="black" stroke-width="1.1048543456039805" fill="none" d="M287.9375 258.3125 C 292.5 248.125, 291.875 241.25, 289.625 235.125" />
  <path stroke="black" stroke-width="1.1048543456039805" fill="none" d="M281.8125 258.3125 C 285.0 247.5, 285.0 243.75, 283.4375 236.5625" />
  <path stroke="black" stroke-width="1.1048543456039805" fill="none" d="M273.9375 258.3125 C 278.125 248.125, 278.125 243.125, 276.3125 236.1875" />
  <path stroke="black" stroke-width="1.1048543456039805" fill="none" d="M267.8125 259.9375 C 271.25 246.25, 271.25 241.25, 270.125 234.875" />
  <path stroke="black" stroke-width="1.1048543456039805" fill="none" d="M300.3125 218.0625 C 300.125 215.5, 300.125 214.25, 300.125 212.625" />
  <path stroke="black" stroke-width="1.1048543456039805" fill="none" d="M300.3125 218.0625 C 304.25 215.5, 307.375 212.375, 310.375 208.0" />
  <path stroke="black" stroke-width="1.1048543456039805" fill="none" d="M310.375 208.0 C 307.9375 206.4375, 303.75 209.75, 300.125 212.625" />
  <path stroke="black" stroke-width="1.1048543456039805" fill="none" d="M299.25 209.5 C 298.75 207.5, 298.125 205.0, 297.8125 203.8125" />
  <path stroke="black" stroke-width="1.1048543456039805" fill="none" d="M299.25 209.5 C 305.3125 205.9375, 306.25 205.0, 308.3125 202.6875" />
  <path stroke="black" stroke-width="1.1048543456039805" fill="none" d="M308.3125 202.6875 C 303.4375 202.8125, 300.5 203.0, 297.8125 203.8125" />
  <path stroke="black" stroke-width="1.1048543456039805" fill="none" d="M313.625 299.125 C 297.1875 264.6875, 299.25 258.0, 318.3125 216.4375" />
  <path stroke="black" stroke-width="1.1048543456039805" fill="none" d="M299.75 229.25 C 311.625 220.375, 317.25 213.0, 325.0 200.0" />
  <path stroke="black" stroke-width="1.1048543456039805" fill="none" d="M293.75 262.5 C 297.875 251.375, 299.0 242.5, 299.75 229.25" />
  <path stroke="black" stroke-width="1.1048543456039805" fill="none" d="M262.5 262.5 C 276.25 262.5, 284.375 262.5, 293.75 262.5" />
  <path stroke="black" stroke-width="1.1048543456039805" fill="none" d="M262.5 293.75 C 262.5 281.25, 262.5 273.75, 262.5 262.5" />
  <path stroke="black" stroke-width="1.1048543456039805" fill="none" d="M262.5 293.75 C 273.625 297.875, 282.5 299.0, 295.75 299.75" />
  <path stroke="black" stroke-width="1.1048543456039805" fill="none" d="M295.75 299.75 C 288.125 281.25, 288.125 278.125, 293.75 262.5" />
  <path stroke="black" stroke-width="1.1048543456039805" fill="none" d="M295.75 299.75 C 304.625 311.625, 312.0 317.25, 325.0 325.0" />
  <path stroke="black" stroke-width="1.1048543456039805" fill="none" d="M325.0 325.0 C 327.625 314.625, 328.5 308.125, 327.0 297.75" />
  <path stroke="black" stroke-width="1.1048543456039805" fill="none" d="M327.0 297.75 C 326.125 280.125, 310.75 281.75, 309.625 262.5" />
  <path stroke="black" stroke-width="1.1048543456039805" fill="none" d="M309.625 262.5 C 309.375 259.375, 309.375 253.125, 309.375 246.875" />
  <path stroke="black" stroke-width="1.1048543456039805" fill="none" d="M309.375 246.875 C 312.875 239.25, 316.75 234.25, 323.0 227.25" />
  <path stroke="black" stroke-width="1.1048543456039805" fill="none" d="M323.0 227.25 C 321.5 216.875, 322.375 210.375, 325.0 200.0" />
  <path stroke="black" stroke-width="1.1048543456039805" fill="none" d="M327.0 297.75 C 333.25 290.75, 337.125 285.75, 340.625 278.125" />
  <path stroke="black" stroke-width="1.1048543456039805" fill="none" d="M340.625 278.125 C 332.8125 270.3125, 329.6875 267.1875, 325.0 262.5" />
  <path stroke="black" stroke-width="1.1048543456039805" fill="none" d="M325.0 262.5 C 320.0 262.5, 313.75 262.5, 309.625 262.5" />
  <path stroke="black" stroke-width="1.1048543456039805" fill="none" d="M326.5625 287.1875 C 331.875 284.625, 334.5 281.25, 336.1875 275.3125" />
  <path stroke="black" stroke-width="1.1048543456039805" fill="none" d="M321.5625 279.0625 C 327.625 277.625, 330.125 275.75, 332.1875 271.0625" />
  <path stroke="black" stroke-width="1.1048543456039805" fill="none" d="M315.625 272.125 C 322.75 272.75, 324.375 271.625, 328.25 267.125" />
  <path stroke="black" stroke-width="1.1048543456039805" fill="none" d="M316.8125 260.4375 C 316.5625 258.4375, 316.5625 256.5625, 316.9375 255.6875" />
  <path stroke="black" stroke-width="1.1048543456039805" fill="none" d="M313.0625 260.4375 C 311.875 256.875, 311.875 255.0, 313.5625 252.0625" />
  <path stroke="black" stroke-width="1.1048543456039805" fill="none" d="M266.6875 287.9375 C 276.875 292.5, 283.75 291.875, 289.875 289.625" />
  <path stroke="black" stroke-width="1.1048543456039805" fill="none" d="M266.6875 281.8125 C 277.5 285.0, 281.25 285.0, 288.4375 283.4375" />
  <path stroke="black" stroke-width="1.1048543456039805" fill="none" d="M266.6875 273.9375 C 276.875 278.125, 281.875 278.125, 288.8125 276.3125" />
  <path stroke="black" stroke-width="1.1048543456039805" fill="none" d="M265.0625 267.8125 C 278.75 271.25, 283.75 271.25, 290.125 270.125" />
  <path stroke="black" stroke-width="1.1048543456039805" fill="none" d="M306.9375 300.3125 C 309.5 300.125, 310.75 300.125, 312.375 300.125" />
  <path stroke="black" stroke-width="1.1048543456039805" fill="none" d="M306.9375 300.3125 C 309.5 304.25, 312.625 307.375, 317.0 310.375" />
  <path stroke="black" stroke-width="1.1048543456039805" fill="none" d="M317.0 310.375 C 318.5625 307.9375, 315.25 303.75, 312.375 300.125" />
  <path stroke="black" stroke-width="1.1048543456039805" fill="none" d="M315.5 299.25 C 317.5 298.75, 320.0 298.125, 321.1875 297.8125" />
  <path stroke="black" stroke-width="1.1048543456039805" fill="none" d="M315.5 299.25 C 319.0625 305.3125, 320.0 306.25, 322.3125 308.3125" />
  <path stroke="black" stroke-width="1.1048543456039805" fill="none" d="M322.3125 308.3125 C 322.1875 303.4375, 322.0 300.5, 321.1875 297.8125" />

  <g fill="none" stroke="red">
    <line x1="75" y1="75" x2="325" y2="75" />
    <line x1="75" y1="200" x2="325" y2="200" />
    <line x1="75" y1="325" x2="325" y2="325" />
    <line x1="75" y1="75" x2="75" y2="325" />
    <line x1="200" y1="75" x2="200" y2="325" />
    <line x1="325" y1="75" x2="325" y2="325" />
  </g>
</svg>
