<svg xmlns="http://www.w3.org/2000/svg" viewbox="0 0 400 400">
  <path stroke="black" stroke-width="3.125" fill="none" d="M104.0 149.5 C 140.0 251.25, 157.5 260.5, 278.75 305.5" />
  <path stroke="black" stroke-width="3.125" fill="none" d="M216.0 317.0 C 257.5 311.0, 283.5 314.5, 325.0 325.0" />
  <path stroke="black" stroke-width="3.125" fill="none" d="M137.5 262.5 C 168.0 276.5, 188.0 292.0, 216.0 317.0" />
  <path stroke="black" stroke-width="3.125" fill="none" d="M75.0 325.0 C 102.5 297.5, 118.75 281.25, 137.5 262.5" />
  <path stroke="black" stroke-width="3.125" fill="none" d="M12.5 262.5 C 37.5 287.5, 52.5 302.5, 75.0 325.0" />
  <path stroke="black" stroke-width="3.125" fill="none" d="M12.5 262.5 C 26.5 232.0, 42.0 212.0, 67.0 184.0" />
  <path stroke="black" stroke-width="3.125" fill="none" d="M67.0 184.0 C 88.75 236.25, 95.0 242.5, 137.5 262.5" />
  <path stroke="black" stroke-width="3.125" fill="none" d="M67.0 184.0 C 61.0 142.5, 64.5 116.5, 75.0 75.0" />
  <path stroke="black" stroke-width="3.125" fill="none" d="M75.0 75.0 C 101.0 90.5, 115.75 101.75, 133.5 125.5" />
  <path stroke="black" stroke-width="3.125" fill="none" d="M133.5 125.5 C 167.0 162.5, 133.0 190.0, 169.25 230.75" />
  <path stroke="black" stroke-width="3.125" fill="none" d="M169.25 230.75 C 175.0 237.5, 187.5 250.0, 200.0 262.5" />
  <path stroke="black" stroke-width="3.125" fill="none" d="M200.0 262.5 C 222.25 270.75, 240.0 273.0, 266.5 274.5" />
  <path stroke="black" stroke-width="3.125" fill="none" d="M266.5 274.5 C 284.25 298.25, 299.0 309.5, 325.0 325.0" />
  <path stroke="black" stroke-width="3.125" fill="none" d="M133.5 125.5 C 160.0 127.0, 177.75 129.25, 200.0 137.5" />
  <path stroke="black" stroke-width="3.125" fill="none" d="M200.0 137.5 C 200.0 168.75, 200.0 181.25, 200.0 200.0" />
  <path stroke="black" stroke-width="3.125" fill="none" d="M200.0 200.0 C 190.0 210.0, 177.5 222.5, 169.25 230.75" />
  <path stroke="black" stroke-width="3.125" fill="none" d="M153.75 147.5 C 169.5 142.0, 181.5 143.5, 196.75 152.0" />
  <path stroke="black" stroke-width="3.125" fill="none" d="M160.0 173.75 C 175.0 164.5, 183.75 163.25, 197.25 168.5" />
  <path stroke="black" stroke-width="3.125" fill="none" d="M162.0 199.5 C 175.0 184.0, 180.5 183.0, 197.25 184.25" />
  <path stroke="black" stroke-width="3.125" fill="none" d="M187.75 220.5 C 191.25 225.0, 195.0 228.75, 197.5 229.75" />
  <path stroke="black" stroke-width="3.125" fill="none" d="M180.25 228.0 C 185.0 237.5, 188.75 241.25, 198.0 243.75" />
  <path stroke="black" stroke-width="3.125" fill="none" d="M32.5 265.75 C 43.75 236.25, 58.75 223.75, 75.5 216.0" />
  <path stroke="black" stroke-width="3.125" fill="none" d="M44.75 278.0 C 60.0 250.0, 67.5 242.5, 85.0 231.25" />
  <path stroke="black" stroke-width="3.125" fill="none" d="M60.5 293.75 C 72.5 265.0, 82.5 255.0, 100.0 244.75" />
  <path stroke="black" stroke-width="3.125" fill="none" d="M69.5 309.25 C 90.0 275.0, 100.0 265.0, 115.0 254.5" />
  <path stroke="black" stroke-width="3.125" fill="none" d="M88.25 160.5 C 93.75 155.75, 96.25 153.25, 99.5 150.0" />
  <path stroke="black" stroke-width="3.125" fill="none" d="M88.25 160.5 C 85.5 147.5, 85.5 135.0, 88.25 120.25" />
  <path stroke="black" stroke-width="3.125" fill="none" d="M88.25 120.25 C 96.25 122.0, 98.0 137.0, 99.5 150.0" />
  <path stroke="black" stroke-width="3.125" fill="none" d="M107.5 145.5 C 112.5 142.5, 118.75 138.75, 121.75 137.0" />
  <path stroke="black" stroke-width="3.125" fill="none" d="M107.5 145.5 C 102.5 126.25, 102.5 122.5, 103.0 113.75" />
  <path stroke="black" stroke-width="3.125" fill="none" d="M103.0 113.75 C 112.5 123.75, 118.0 130.0, 121.75 137.0" />
  <path stroke="black" stroke-width="3.125" fill="none" d="M296.0 250.5 C 260.0 148.75, 242.5 139.5, 121.25 94.5" />
  <path stroke="black" stroke-width="3.125" fill="none" d="M184.0 83.0 C 142.5 89.0, 116.5 85.5, 75.0 75.0" />
  <path stroke="black" stroke-width="3.125" fill="none" d="M262.5 137.5 C 232.0 123.5, 212.0 108.0, 184.0 83.0" />
  <path stroke="black" stroke-width="3.125" fill="none" d="M325.0 75.0 C 297.5 102.5, 281.25 118.75, 262.5 137.5" />
  <path stroke="black" stroke-width="3.125" fill="none" d="M387.5 137.5 C 362.5 112.5, 347.5 97.5, 325.0 75.0" />
  <path stroke="black" stroke-width="3.125" fill="none" d="M387.5 137.5 C 373.5 168.0, 358.0 188.0, 333.0 216.0" />
  <path stroke="black" stroke-width="3.125" fill="none" d="M333.0 216.0 C 311.25 163.75, 305.0 157.5, 262.5 137.5" />
  <path stroke="black" stroke-width="3.125" fill="none" d="M333.0 216.0 C 339.0 257.5, 335.5 283.5, 325.0 325.0" />
  <path stroke="black" stroke-width="3.125" fill="none" d="M325.0 325.0 C 299.0 309.5, 284.25 298.25, 266.5 274.5" />
  <path stroke="black" stroke-width="3.125" fill="none" d="M266.5 274.5 C 233.0 237.5, 267.0 210.0, 230.75 169.25" />
  <path stroke="black" stroke-width="3.125" fill="none" d="M230.75 169.25 C 225.0 162.5, 212.5 150.0, 200.0 137.5" />
  <path stroke="black" stroke-width="3.125" fill="none" d="M200.0 137.5 C 177.75 129.25, 160.0 127.0, 133.5 125.5" />
  <path stroke="black" stroke-width="3.125" fill="none" d="M133.5 125.5 C 115.75 101.75, 101.0 90.5, 75.0 75.0" />
  <path stroke="black" stroke-width="3.125" fill="none" d="M266.5 274.5 C 240.0 273.0, 222.25 270.75, 200.0 262.5" />
  <path stroke="black" stroke-width="3.125" fill="none" d="M200.0 262.5 C 200.0 231.25, 200.0 218.75, 200.0 200.0" />
  <path stroke="black" stroke-width="3.125" fill="none" d="M200.0 200.0 C 210.0 190.0, 222.5 177.5, 230.75 169.25" />
  <path stroke="black" stroke-width="3.125" fill="none" d="M246.25 252.5 C 230.5 258.0, 218.5 256.5, 203.25 248.0" />
  <path stroke="black" stroke-width="3.125" fill="none" d="M240.0 226.25 C 225.0 235.5, 216.25 236.75, 202.75 231.5" />
  <path stroke="black" stroke-width="3.125" fill="none" d="M238.0 200.5 C 225.0 216.0, 219.5 217.0, 202.75 215.75" />
  <path stroke="black" stroke-width="3.125" fill="none" d="M212.25 179.5 C 208.75 175.0, 205.0 171.25, 202.5 170.25" />
  <path stroke="black" stroke-width="3.125" fill="none" d="M219.75 172.0 C 215.0 162.5, 211.25 158.75, 202.0 156.25" />
  <path stroke="black" stroke-width="3.125" fill="none" d="M367.5 134.25 C 356.25 163.75, 341.25 176.25, 324.5 184.0" />
  <path stroke="black" stroke-width="3.125" fill="none" d="M355.25 122.0 C 340.0 150.0, 332.5 157.5, 315.0 168.75" />
  <path stroke="black" stroke-width="3.125" fill="none" d="M339.5 106.25 C 327.5 135.0, 317.5 145.0, 300.0 155.25" />
  <path stroke="black" stroke-width="3.125" fill="none" d="M330.5 90.75 C 310.0 125.0, 300.0 135.0, 285.0 145.5" />
  <path stroke="black" stroke-width="3.125" fill="none" d="M311.75 239.5 C 306.25 244.25, 303.75 246.75, 300.5 250.0" />
  <path stroke="black" stroke-width="3.125" fill="none" d="M311.75 239.5 C 314.5 252.5, 314.5 265.0, 311.75 279.75" />
  <path stroke="black" stroke-width="3.125" fill="none" d="M311.75 279.75 C 303.75 278.0, 302.0 263.0, 300.5 250.0" />
  <path stroke="black" stroke-width="3.125" fill="none" d="M292.5 254.5 C 287.5 257.5, 281.25 261.25, 278.25 263.0" />
  <path stroke="black" stroke-width="3.125" fill="none" d="M292.5 254.5 C 297.5 273.75, 297.5 277.5, 297.0 286.25" />
  <path stroke="black" stroke-width="3.125" fill="none" d="M297.0 286.25 C 287.5 276.25, 282.0 270.0, 278.25 263.0" />

</svg>
