<svg xmlns="http://www.w3.org/2000/svg" viewbox="0 0 400 400">
  <path stroke="black" stroke-width="3.125" fill="none" d="M104.0 149.5 C 140.0 251.25, 157.5 260.5, 278.75 305.5" />
  <path stroke="black" stroke-width="3.125" fill="none" d="M216.0 317.0 C 257.5 311.0, 283.5 314.5, 325.0 325.0" />
  <path stroke="black" stroke-width="3.125" fill="none" d="M137.5 262.5 C 168.0 276.5, 188.0 292.0, 216.0 317.0" />
  <path stroke="black" stroke-width="3.125" fill="none" d="M75.0 325.0 C 102.5 297.5, 118.75 281.25, 137.5 262.5" />
  <path stroke="black" stroke-width="3.125" fill="none" d="M12.5 262.5 C 37.5 287.5, 52.5 302.5, 75.0 325.0" />
  <path stroke="black" stroke-width="3.125" fill="none" d="M12.5 262.5 C 26.5 232.0, 42.0 212.0, 67.0 184.0" />
  <path stroke="black" stroke-width="3.125" fill="none" d="M67.0 184.0 C 88.75 236.25, 95.0 242.5, 137.5 262.5" />
  <path stroke="black" stroke-width="3.125" fill="none" d="M67.0 184.0 C 61.0 142.5, 64.5 116.5, 75.0 75.0" />
  <path stroke="black" stroke-width="3.125" fill="none" d="M75.0 75.0 C 101.0 90.5, 115.75 101.75, 133.5 125.5" />
  <path stroke="black" stroke-width="3.125" fill="none" d="M133.5 125.5 C 167.0 162.5, 133.0 190.0, 169.25 230.75" />
  <path stroke="black" stroke-width="3.125" fill="none" d="M169.25 230.75 C 175.0 237.5, 187.5 250.0, 200.0 262.5" />
  <path stroke="black" stroke-width="3.125" fill="none" d="M200.0 262.5 C 222.25 270.75, 240.0 273.0, 266.5 274.5" />
  <path stroke="black" stroke-width="3.125" fill="none" d="M266.5 274.5 C 284.25 298.25, 299.0 309.5, 325.0 325.0" />
  <path stroke="black" stroke-width="3.125" fill="none" d="M133.5 125.5 C 160.0 127.0, 177.75 129.25, 200.0 137.5" />
  <path stroke="black" stroke-width="3.125" fill="none" d="M200.0 137.5 C 200.0 168.75, 200.0 181.25, 200.0 200.0" />
  <path stroke="black" stroke-width="3.125" fill="none" d="M200.0 200.0 C 190.0 210.0, 177.5 222.5, 169.25 230.75" />
  <path stroke="black" stroke-width="3.125" fill="none" d="M153.75 147.5 C 169.5 142.0, 181.5 143.5, 196.75 152.0" />
  <path stroke="black" stroke-width="3.125" fill="none" d="M160.0 173.75 C 175.0 164.5, 183.75 163.25, 197.25 168.5" />
  <path stroke="black" stroke-width="3.125" fill="none" d="M162.0 199.5 C 175.0 184.0, 180.5 183.0, 197.25 184.25" />
  <path stroke="black" stroke-width="3.125" fill="none" d="M187.75 220.5 C 191.25 225.0, 195.0 228.75, 197.5 229.75" />
  <path stroke="black" stroke-width="3.125" fill="none" d="M180.25 228.0 C 185.0 237.5, 188.75 241.25, 198.0 243.75" />
  <path stroke="black" stroke-width="3.125" fill="none" d="M32.5 265.75 C 43.75 236.25, 58.75 223.75, 75.5 216.0" />
  <path stroke="black" stroke-width="3.125" fill="none" d="M44.75 278.0 C 60.0 250.0, 67.5 242.5, 85.0 231.25" />
  <path stroke="black" stroke-width="3.125" fill="none" d="M60.5 293.75 C 72.5 265.0, 82.5 255.0, 100.0 244.75" />
  <path stroke="black" stroke-width="3.125" fill="none" d="M69.5 309.25 C 90.0 275.0, 100.0 265.0, 115.0 254.5" />
  <path stroke="black" stroke-width="3.125" fill="none" d="M88.25 160.5 C 93.75 155.75, 96.25 153.25, 99.5 150.0" />
  <path stroke="black" stroke-width="3.125" fill="none" d="M88.25 160.5 C 85.5 147.5, 85.5 135.0, 88.25 120.25" />
  <path stroke="black" stroke-width="3.125" fill="none" d="M88.25 120.25 C 96.25 122.0, 98.0 137.0, 99.5 150.0" />
  <path stroke="black" stroke-width="3.125" fill="none" d="M107.5 145.5 C 112.5 142.5, 118.75 138.75, 121.75 137.0" />
  <path stroke="black" stroke-width="3.125" fill="none" d="M107.5 145.5 C 102.5 126.25, 102.5 122.5, 103.0 113.75" />
  <path stroke="black" stroke-width="3.125" fill="none" d="M103.0 113.75 C 112.5 123.75, 118.0 130.0, 121.75 137.0" />
  <path stroke="black" stroke-width="2.209708691207961" fill="none" d="M273.25 97.75 C 204.375 130.625, 191.0 126.5, 107.875 88.375" />
  <path stroke="black" stroke-width="2.209708691207961" fill="none" d="M133.5 125.5 C 115.75 101.75, 101.0 90.5, 75.0 75.0" />
  <path stroke="black" stroke-width="2.209708691207961" fill="none" d="M200.0 137.5 C 177.75 129.25, 160.0 127.0, 133.5 125.5" />
  <path stroke="black" stroke-width="2.209708691207961" fill="none" d="M200.0 200.0 C 200.0 172.5, 200.0 156.25, 200.0 137.5" />
  <path stroke="black" stroke-width="2.209708691207961" fill="none" d="M262.5 200.0 C 237.5 200.0, 222.5 200.0, 200.0 200.0" />
  <path stroke="black" stroke-width="2.209708691207961" fill="none" d="M262.5 200.0 C 270.75 177.75, 273.0 160.0, 274.5 133.5" />
  <path stroke="black" stroke-width="2.209708691207961" fill="none" d="M274.5 133.5 C 237.5 148.75, 231.25 148.75, 200.0 137.5" />
  <path stroke="black" stroke-width="2.209708691207961" fill="none" d="M274.5 133.5 C 298.25 115.75, 309.5 101.0, 325.0 75.0" />
  <path stroke="black" stroke-width="2.209708691207961" fill="none" d="M325.0 75.0 C 304.25 69.75, 291.25 68.0, 270.5 71.0" />
  <path stroke="black" stroke-width="2.209708691207961" fill="none" d="M270.5 71.0 C 235.25 72.75, 238.5 103.5, 200.0 105.75" />
  <path stroke="black" stroke-width="2.209708691207961" fill="none" d="M200.0 105.75 C 193.75 106.25, 181.25 106.25, 168.75 106.25" />
  <path stroke="black" stroke-width="2.209708691207961" fill="none" d="M168.75 106.25 C 153.5 99.25, 143.5 91.5, 129.5 79.0" />
  <path stroke="black" stroke-width="2.209708691207961" fill="none" d="M129.5 79.0 C 108.75 82.0, 95.75 80.25, 75.0 75.0" />
  <path stroke="black" stroke-width="2.209708691207961" fill="none" d="M270.5 71.0 C 256.5 58.5, 246.5 50.75, 231.25 43.75" />
  <path stroke="black" stroke-width="2.209708691207961" fill="none" d="M231.25 43.75 C 215.625 59.375, 209.375 65.625, 200.0 75.0" />
  <path stroke="black" stroke-width="2.209708691207961" fill="none" d="M200.0 75.0 C 200.0 85.0, 200.0 97.5, 200.0 105.75" />
  <path stroke="black" stroke-width="2.209708691207961" fill="none" d="M249.375 71.875 C 244.25 61.25, 237.5 56.0, 225.625 52.625" />
  <path stroke="black" stroke-width="2.209708691207961" fill="none" d="M233.125 81.875 C 230.25 69.75, 226.5 64.75, 217.125 60.625" />
  <path stroke="black" stroke-width="2.209708691207961" fill="none" d="M219.25 93.75 C 220.5 79.5, 218.25 76.25, 209.25 68.5" />
  <path stroke="black" stroke-width="2.209708691207961" fill="none" d="M195.875 91.375 C 191.875 91.875, 188.125 91.875, 186.375 91.125" />
  <path stroke="black" stroke-width="2.209708691207961" fill="none" d="M195.875 98.875 C 188.75 101.25, 185.0 101.25, 179.125 97.875" />
  <path stroke="black" stroke-width="2.209708691207961" fill="none" d="M250.875 191.625 C 260.0 171.25, 258.75 157.5, 254.25 145.25" />
  <path stroke="black" stroke-width="2.209708691207961" fill="none" d="M238.625 191.625 C 245.0 170.0, 245.0 162.5, 241.875 148.125" />
  <path stroke="black" stroke-width="2.209708691207961" fill="none" d="M222.875 191.625 C 231.25 171.25, 231.25 161.25, 227.625 147.375" />
  <path stroke="black" stroke-width="2.209708691207961" fill="none" d="M210.625 194.875 C 217.5 167.5, 217.5 157.5, 215.25 144.75" />
  <path stroke="black" stroke-width="2.209708691207961" fill="none" d="M275.625 111.125 C 275.25 106.0, 275.25 103.5, 275.25 100.25" />
  <path stroke="black" stroke-width="2.209708691207961" fill="none" d="M275.625 111.125 C 283.5 106.0, 289.75 99.75, 295.75 91.0" />
  <path stroke="black" stroke-width="2.209708691207961" fill="none" d="M295.75 91.0 C 290.875 87.875, 282.5 94.5, 275.25 100.25" />
  <path stroke="black" stroke-width="2.209708691207961" fill="none" d="M273.5 94.0 C 272.5 90.0, 271.25 85.0, 270.625 82.625" />
  <path stroke="black" stroke-width="2.209708691207961" fill="none" d="M273.5 94.0 C 285.625 86.875, 287.5 85.0, 291.625 80.375" />
  <path stroke="black" stroke-width="2.209708691207961" fill="none" d="M291.625 80.375 C 281.875 80.625, 276.0 81.0, 270.625 82.625" />
  <path stroke="black" stroke-width="2.209708691207961" fill="none" d="M302.25 273.25 C 269.375 204.375, 273.5 191.0, 311.625 107.875" />
  <path stroke="black" stroke-width="2.209708691207961" fill="none" d="M274.5 133.5 C 298.25 115.75, 309.5 101.0, 325.0 75.0" />
  <path stroke="black" stroke-width="2.209708691207961" fill="none" d="M262.5 200.0 C 270.75 177.75, 273.0 160.0, 274.5 133.5" />
  <path stroke="black" stroke-width="2.209708691207961" fill="none" d="M200.0 200.0 C 227.5 200.0, 243.75 200.0, 262.5 200.0" />
  <path stroke="black" stroke-width="2.209708691207961" fill="none" d="M200.0 262.5 C 200.0 237.5, 200.0 222.5, 200.0 200.0" />
  <path stroke="black" stroke-width="2.209708691207961" fill="none" d="M200.0 262.5 C 222.25 270.75, 240.0 273.0, 266.5 274.5" />
  <path stroke="black" stroke-width="2.209708691207961" fill="none" d="M266.5 274.5 C 251.25 237.5, 251.25 231.25, 262.5 200.0" />
  <path stroke="black" stroke-width="2.209708691207961" fill="none" d="M266.5 274.5 C 284.25 298.25, 299.0 309.5, 325.0 325.0" />
  <path stroke="black" stroke-width="2.209708691207961" fill="none" d="M325.0 325.0 C 330.25 304.25, 332.0 291.25, 329.0 270.5" />
  <path stroke="black" stroke-width="2.209708691207961" fill="none" d="M329.0 270.5 C 327.25 235.25, 296.5 238.5, 294.25 200.0" />
  <path stroke="black" stroke-width="2.209708691207961" fill="none" d="M294.25 200.0 C 293.75 193.75, 293.75 181.25, 293.75 168.75" />
  <path stroke="black" stroke-width="2.209708691207961" fill="none" d="M293.75 168.75 C 300.75 153.5, 308.5 143.5, 321.0 129.5" />
  <path stroke="black" stroke-width="2.209708691207961" fill="none" d="M321.0 129.5 C 318.0 108.75, 319.75 95.75, 325.0 75.0" />
  <path stroke="black" stroke-width="2.209708691207961" fill="none" d="M329.0 270.5 C 341.5 256.5, 349.25 246.5, 356.25 231.25" />
  <path stroke="black" stroke-width="2.209708691207961" fill="none" d="M356.25 231.25 C 340.625 215.625, 334.375 209.375, 325.0 200.0" />
  <path stroke="black" stroke-width="2.209708691207961" fill="none" d="M325.0 200.0 C 315.0 200.0, 302.5 200.0, 294.25 200.0" />
  <path stroke="black" stroke-width="2.209708691207961" fill="none" d="M328.125 249.375 C 338.75 244.25, 344.0 237.5, 347.375 225.625" />
  <path stroke="black" stroke-width="2.209708691207961" fill="none" d="M318.125 233.125 C 330.25 230.25, 335.25 226.5, 339.375 217.125" />
  <path stroke="black" stroke-width="2.209708691207961" fill="none" d="M306.25 219.25 C 320.5 220.5, 323.75 218.25, 331.5 209.25" />
  <path stroke="black" stroke-width="2.209708691207961" fill="none" d="M308.625 195.875 C 308.125 191.875, 308.125 188.125, 308.875 186.375" />
  <path stroke="black" stroke-width="2.209708691207961" fill="none" d="M301.125 195.875 C 298.75 188.75, 298.75 185.0, 302.125 179.125" />
  <path stroke="black" stroke-width="2.209708691207961" fill="none" d="M208.375 250.875 C 228.75 260.0, 242.5 258.75, 254.75 254.25" />
  <path stroke="black" stroke-width="2.209708691207961" fill="none" d="M208.375 238.625 C 230.0 245.0, 237.5 245.0, 251.875 241.875" />
  <path stroke="black" stroke-width="2.209708691207961" fill="none" d="M208.375 222.875 C 228.75 231.25, 238.75 231.25, 252.625 227.625" />
  <path stroke="black" stroke-width="2.209708691207961" fill="none" d="M205.125 210.625 C 232.5 217.5, 242.5 217.5, 255.25 215.25" />
  <path stroke="black" stroke-width="2.209708691207961" fill="none" d="M288.875 275.625 C 294.0 275.25, 296.5 275.25, 299.75 275.25" />
  <path stroke="black" stroke-width="2.209708691207961" fill="none" d="M288.875 275.625 C 294.0 283.5, 300.25 289.75, 309.0 295.75" />
  <path stroke="black" stroke-width="2.209708691207961" fill="none" d="M309.0 295.75 C 312.125 290.875, 305.5 282.5, 299.75 275.25" />
  <path stroke="black" stroke-width="2.209708691207961" fill="none" d="M306.0 273.5 C 310.0 272.5, 315.0 271.25, 317.375 270.625" />
  <path stroke="black" stroke-width="2.209708691207961" fill="none" d="M306.0 273.5 C 313.125 285.625, 315.0 287.5, 319.625 291.625" />
  <path stroke="black" stroke-width="2.209708691207961" fill="none" d="M319.625 291.625 C 319.375 281.875, 319.0 276.0, 317.375 270.625" />

</svg>
