<svg xmlns="http://www.w3.org/2000/svg" viewbox="0 0 400 400">
  <path stroke="black" stroke-width="1.5625" fill="none" d="M112.25 310.5 C 163.125 292.5, 167.75 283.75, 190.25 223.125" />
  <path stroke="black" stroke-width="1.5625" fill="none" d="M196.0 254.5 C 193.0 233.75, 194.75 220.75, 200.0 200.0" />
  <path stroke="black" stroke-width="1.5625" fill="none" d="M168.75 293.75 C 175.75 278.5, 183.5 268.5, 196.0 254.5" />
  <path stroke="black" stroke-width="1.5625" fill="none" d="M200.0 325.0 C 186.25 311.25, 178.125 303.125, 168.75 293.75" />
  <path stroke="black" stroke-width="1.5625" fill="none" d="M168.75 356.25 C 181.25 343.75, 188.75 336.25, 200.0 325.0" />
  <path stroke="black" stroke-width="1.5625" fill="none" d="M168.75 356.25 C 153.5 349.25, 143.5 341.5, 129.5 329.0" />
  <path stroke="black" stroke-width="1.5625" fill="none" d="M129.5 329.0 C 155.625 318.125, 158.75 315.0, 168.75 293.75" />
  <path stroke="black" stroke-width="1.5625" fill="none" d="M129.5 329.0 C 108.75 332.0, 95.75 330.25, 75.0 325.0" />
  <path stroke="black" stroke-width="1.5625" fill="none" d="M75.0 325.0 C 82.75 312.0, 88.375 304.625, 100.25 295.75" />
  <path stroke="black" stroke-width="1.5625" fill="none" d="M100.25 295.75 C 118.75 279.0, 132.5 296.0, 152.875 277.875" />
  <path stroke="black" stroke-width="1.5625" fill="none" d="M152.875 277.875 C 156.25 275.0, 162.5 268.75, 168.75 262.5" />
  <path stroke="black" stroke-width="1.5625" fill="none" d="M168.75 262.5 C 172.875 251.375, 174.0 242.5, 174.75 229.25" />
  <path stroke="black" stroke-width="1.5625" fill="none" d="M174.75 229.25 C 186.625 220.375, 192.25 213.0, 200.0 200.0" />
  <path stroke="black" stroke-width="1.5625" fill="none" d="M100.25 295.75 C 101.0 282.5, 102.125 273.625, 106.25 262.5" />
  <path stroke="black" stroke-width="1.5625" fill="none" d="M106.25 262.5 C 121.875 262.5, 128.125 262.5, 137.5 262.5" />
  <path stroke="black" stroke-width="1.5625" fill="none" d="M137.5 262.5 C 142.5 267.5, 148.75 273.75, 152.875 277.875" />
  <path stroke="black" stroke-width="1.5625" fill="none" d="M111.25 285.625 C 108.5 277.75, 109.25 271.75, 113.5 264.125" />
  <path stroke="black" stroke-width="1.5625" fill="none" d="M124.375 282.5 C 119.75 275.0, 119.125 270.625, 121.75 263.875" />
  <path stroke="black" stroke-width="1.5625" fill="none" d="M137.25 281.5 C 129.5 275.0, 129.0 272.25, 129.625 263.875" />
  <path stroke="black" stroke-width="1.5625" fill="none" d="M147.75 268.625 C 150.0 266.875, 151.875 265.0, 152.375 263.75" />
  <path stroke="black" stroke-width="1.5625" fill="none" d="M151.5 272.375 C 156.25 270.0, 158.125 268.125, 159.375 263.5" />
  <path stroke="black" stroke-width="1.5625" fill="none" d="M170.375 346.25 C 155.625 340.625, 149.375 333.125, 145.5 324.75" />
  <path stroke="black" stroke-width="1.5625" fill="none" d="M176.5 340.125 C 162.5 332.5, 158.75 328.75, 153.125 320.0" />
  <path stroke="black" stroke-width="1.5625" fill="none" d="M184.375 332.25 C 170.0 326.25, 165.0 321.25, 159.875 312.5" />
  <path stroke="black" stroke-width="1.5625" fill="none" d="M192.125 327.75 C 175.0 317.5, 170.0 312.5, 164.75 305.0" />
  <path stroke="black" stroke-width="1.5625" fill="none" d="M117.75 318.375 C 115.375 315.625, 114.125 314.375, 112.5 312.75" />
  <path stroke="black" stroke-width="1.5625" fill="none" d="M117.75 318.375 C 111.25 319.75, 105.0 319.75, 97.625 318.375" />
  <path stroke="black" stroke-width="1.5625" fill="none" d="M97.625 318.375 C 98.5 314.375, 106.0 313.5, 112.5 312.75" />
  <path stroke="black" stroke-width="1.5625" fill="none" d="M110.25 308.75 C 108.75 306.25, 106.875 303.125, 106.0 301.625" />
  <path stroke="black" stroke-width="1.5625" fill="none" d="M110.25 308.75 C 100.625 311.25, 98.75 311.25, 94.375 311.0" />
  <path stroke="black" stroke-width="1.5625" fill="none" d="M94.375 311.0 C 99.375 306.25, 102.5 303.5, 106.0 301.625" />
  <path stroke="black" stroke-width="1.1048543456039805" fill="none" d="M86.375 225.875 C 102.8125 260.3125, 100.75 267.0, 81.6875 308.5625" />
  <path stroke="black" stroke-width="1.1048543456039805" fill="none" d="M100.25 295.75 C 88.375 304.625, 82.75 312.0, 75.0 325.0" />
  <path stroke="black" stroke-width="1.1048543456039805" fill="none" d="M106.25 262.5 C 102.125 273.625, 101.0 282.5, 100.25 295.75" />
  <path stroke="black" stroke-width="1.1048543456039805" fill="none" d="M137.5 262.5 C 123.75 262.5, 115.625 262.5, 106.25 262.5" />
  <path stroke="black" stroke-width="1.1048543456039805" fill="none" d="M137.5 231.25 C 137.5 243.75, 137.5 251.25, 137.5 262.5" />
  <path stroke="black" stroke-width="1.1048543456039805" fill="none" d="M137.5 231.25 C 126.375 227.125, 117.5 226.0, 104.25 225.25" />
  <path stroke="black" stroke-width="1.1048543456039805" fill="none" d="M104.25 225.25 C 111.875 243.75, 111.875 246.875, 106.25 262.5" />
  <path stroke="black" stroke-width="1.1048543456039805" fill="none" d="M104.25 225.25 C 95.375 213.375, 88.0 207.75, 75.0 200.0" />
  <path stroke="black" stroke-width="1.1048543456039805" fill="none" d="M75.0 200.0 C 72.375 210.375, 71.5 216.875, 73.0 227.25" />
  <path stroke="black" stroke-width="1.1048543456039805" fill="none" d="M73.0 227.25 C 73.875 244.875, 89.25 243.25, 90.375 262.5" />
  <path stroke="black" stroke-width="1.1048543456039805" fill="none" d="M90.375 262.5 C 90.625 265.625, 90.625 271.875, 90.625 278.125" />
  <path stroke="black" stroke-width="1.1048543456039805" fill="none" d="M90.625 278.125 C 87.125 285.75, 83.25 290.75, 77.0 297.75" />
  <path stroke="black" stroke-width="1.1048543456039805" fill="none" d="M77.0 297.75 C 78.5 308.125, 77.625 314.625, 75.0 325.0" />
  <path stroke="black" stroke-width="1.1048543456039805" fill="none" d="M73.0 227.25 C 66.75 234.25, 62.875 239.25, 59.375 246.875" />
  <path stroke="black" stroke-width="1.1048543456039805" fill="none" d="M59.375 246.875 C 67.1875 254.6875, 70.3125 257.8125, 75.0 262.5" />
  <path stroke="black" stroke-width="1.1048543456039805" fill="none" d="M75.0 262.5 C 80.0 262.5, 86.25 262.5, 90.375 262.5" />
  <path stroke="black" stroke-width="1.1048543456039805" fill="none" d="M73.4375 237.8125 C 68.125 240.375, 65.5 243.75, 63.8125 249.6875" />
  <path stroke="black" stroke-width="1.1048543456039805" fill="none" d="M78.4375 245.9375 C 72.375 247.375, 69.875 249.25, 67.8125 253.9375" />
  <path stroke="black" stroke-width="1.1048543456039805" fill="none" d="M84.375 252.875 C 77.25 252.25, 75.625 253.375, 71.75 257.875" />
  <path stroke="black" stroke-width="1.1048543456039805" fill="none" d="M83.1875 264.5625 C 83.4375 266.5625, 83.4375 268.4375, 83.0625 269.3125" />
  <path stroke="black" stroke-width="1.1048543456039805" fill="none" d="M86.9375 264.5625 C 88.125 268.125, 88.125 270.0, 86.4375 272.9375" />
  <path stroke="black" stroke-width="1.1048543456039805" fill="none" d="M133.3125 237.0625 C 123.125 232.5, 116.25 233.125, 110.125 235.375" />
  <path stroke="black" stroke-width="1.1048543456039805" fill="none" d="M133.3125 243.1875 C 122.5 240.0, 118.75 240.0, 111.5625 241.5625" />
  <path stroke="black" stroke-width="1.1048543456039805" fill="none" d="M133.3125 251.0625 C 123.125 246.875, 118.125 246.875, 111.1875 248.6875" />
  <path stroke="black" stroke-width="1.1048543456039805" fill="none" d="M134.9375 257.1875 C 121.25 253.75, 116.25 253.75, 109.875 254.875" />
  <path stroke="black" stroke-width="1.1048543456039805" fill="none" d="M93.0625 224.6875 C 90.5 224.875, 89.25 224.875, 87.625 224.875" />
  <path stroke="black" stroke-width="1.1048543456039805" fill="none" d="M93.0625 224.6875 C 90.5 220.75, 87.375 217.625, 83.0 214.625" />
  <path stroke="black" stroke-width="1.1048543456039805" fill="none" d="M83.0 214.625 C 81.4375 217.0625, 84.75 221.25, 87.625 224.875" />
  <path stroke="black" stroke-width="1.1048543456039805" fill="none" d="M84.5 225.75 C 82.5 226.25, 80.0 226.875, 78.8125 227.1875" />
  <path stroke="black" stroke-width="1.1048543456039805" fill="none" d="M84.5 225.75 C 80.9375 219.6875, 80.0 218.75, 77.6875 216.6875" />
  <path stroke="black" stroke-width="1.1048543456039805" fill="none" d="M77.6875 216.6875 C 77.8125 221.5625, 78.0 224.5, 78.8125 227.1875" />
  <path stroke="black" stroke-width="1.1048543456039805" fill="none" d="M174.125 211.375 C 139.6875 227.8125, 133.0 225.75, 91.4375 206.6875" />
  <path stroke="black" stroke-width="1.1048543456039805" fill="none" d="M104.25 225.25 C 95.375 213.375, 88.0 207.75, 75.0 200.0" />
  <path stroke="black" stroke-width="1.1048543456039805" fill="none" d="M137.5 231.25 C 126.375 227.125, 117.5 226.0, 104.25 225.25" />
  <path stroke="black" stroke-width="1.1048543456039805" fill="none" d="M137.5 262.5 C 137.5 248.75, 137.5 240.625, 137.5 231.25" />
  <path stroke="black" stroke-width="1.1048543456039805" fill="none" d="M168.75 262.5 C 156.25 262.5, 148.75 262.5, 137.5 262.5" />
  <path stroke="black" stroke-width="1.1048543456039805" fill="none" d="M168.75 262.5 C 172.875 251.375, 174.0 242.5, 174.75 229.25" />
  <path stroke="black" stroke-width="1.1048543456039805" fill="none" d="M174.75 229.25 C 156.25 236.875, 153.125 236.875, 137.5 231.25" />
  <path stroke="black" stroke-width="1.1048543456039805" fill="none" d="M174.75 229.25 C 186.625 220.375, 192.25 213.0, 200.0 200.0" />
  <path stroke="black" stroke-width="1.1048543456039805" fill="none" d="M200.0 200.0 C 189.625 197.375, 183.125 196.5, 172.75 198.0" />
  <path stroke="black" stroke-width="1.1048543456039805" fill="none" d="M172.75 198.0 C 155.125 198.875, 156.75 214.25, 137.5 215.375" />
  <path stroke="black" stroke-width="1.1048543456039805" fill="none" d="M137.5 215.375 C 134.375 215.625, 128.125 215.625, 121.875 215.625" />
  <path stroke="black" stroke-width="1.1048543456039805" fill="none" d="M121.875 215.625 C 114.25 212.125, 109.25 208.25, 102.25 202.0" />
  <path stroke="black" stroke-width="1.1048543456039805" fill="none" d="M102.25 202.0 C 91.875 203.5, 85.375 202.625, 75.0 200.0" />
  <path stroke="black" stroke-width="1.1048543456039805" fill="none" d="M172.75 198.0 C 165.75 191.75, 160.75 187.875, 153.125 184.375" />
  <path stroke="black" stroke-width="1.1048543456039805" fill="none" d="M153.125 184.375 C 145.3125 192.1875, 142.1875 195.3125, 137.5 200.0" />
  <path stroke="black" stroke-width="1.1048543456039805" fill="none" d="M137.5 200.0 C 137.5 205.0, 137.5 211.25, 137.5 215.375" />
  <path stroke="black" stroke-width="1.1048543456039805" fill="none" d="M162.1875 198.4375 C 159.625 193.125, 156.25 190.5, 150.3125 188.8125" />
  <path stroke="black" stroke-width="1.1048543456039805" fill="none" d="M154.0625 203.4375 C 152.625 197.375, 150.75 194.875, 146.0625 192.8125" />
  <path stroke="black" stroke-width="1.1048543456039805" fill="none" d="M147.125 209.375 C 147.75 202.25, 146.625 200.625, 142.125 196.75" />
  <path stroke="black" stroke-width="1.1048543456039805" fill="none" d="M135.4375 208.1875 C 133.4375 208.4375, 131.5625 208.4375, 130.6875 208.0625" />
  <path stroke="black" stroke-width="1.1048543456039805" fill="none" d="M135.4375 211.9375 C 131.875 213.125, 130.0 213.125, 127.0625 211.4375" />
  <path stroke="black" stroke-width="1.1048543456039805" fill="none" d="M162.9375 258.3125 C 167.5 248.125, 166.875 241.25, 164.625 235.125" />
  <path stroke="black" stroke-width="1.1048543456039805" fill="none" d="M156.8125 258.3125 C 160.0 247.5, 160.0 243.75, 158.4375 236.5625" />
  <path stroke="black" stroke-width="1.1048543456039805" fill="none" d="M148.9375 258.3125 C 153.125 248.125, 153.125 243.125, 151.3125 236.1875" />
  <path stroke="black" stroke-width="1.1048543456039805" fill="none" d="M142.8125 259.9375 C 146.25 246.25, 146.25 241.25, 145.125 234.875" />
  <path stroke="black" stroke-width="1.1048543456039805" fill="none" d="M175.3125 218.0625 C 175.125 215.5, 175.125 214.25, 175.125 212.625" />
  <path stroke="black" stroke-width="1.1048543456039805" fill="none" d="M175.3125 218.0625 C 179.25 215.5, 182.375 212.375, 185.375 208.0" />
  <path stroke="black" stroke-width="1.1048543456039805" fill="none" d="M185.375 208.0 C 182.9375 206.4375, 178.75 209.75, 175.125 212.625" />
  <path stroke="black" stroke-width="1.1048543456039805" fill="none" d="M174.25 209.5 C 173.75 207.5, 173.125 205.0, 172.8125 203.8125" />
  <path stroke="black" stroke-width="1.1048543456039805" fill="none" d="M174.25 209.5 C 180.3125 205.9375, 181.25 205.0, 183.3125 202.6875" />
  <path stroke="black" stroke-width="1.1048543456039805" fill="none" d="M183.3125 202.6875 C 178.4375 202.8125, 175.5 203.0, 172.8125 203.8125" />
  <path stroke="black" stroke-width="1.5625" fill="none" d="M214.5 237.25 C 232.5 288.125, 241.25 292.75, 301.875 315.25" />
  <path stroke="black" stroke-width="1.5625" fill="none" d="M270.5 321.0 C 291.25 318.0, 304.25 319.75, 325.0 325.0" />
  <path stroke="black" stroke-width="1.5625" fill="none" d="M231.25 293.75 C 246.5 300.75, 256.5 308.5, 270.5 321.0" />
  <path stroke="black" stroke-width="1.5625" fill="none" d="M200.0 325.0 C 213.75 311.25, 221.875 303.125, 231.25 293.75" />
  <path stroke="black" stroke-width="1.5625" fill="none" d="M168.75 293.75 C 181.25 306.25, 188.75 313.75, 200.0 325.0" />
  <path stroke="black" stroke-width="1.5625" fill="none" d="M168.75 293.75 C 175.75 278.5, 183.5 268.5, 196.0 254.5" />
  <path stroke="black" stroke-width="1.5625" fill="none" d="M196.0 254.5 C 206.875 280.625, 210.0 283.75, 231.25 293.75" />
  <path stroke="black" stroke-width="1.5625" fill="none" d="M196.0 254.5 C 193.0 233.75, 194.75 220.75, 200.0 200.0" />
  <path stroke="black" stroke-width="1.5625" fill="none" d="M200.0 200.0 C 213.0 207.75, 220.375 213.375, 229.25 225.25" />
  <path stroke="black" stroke-width="1.5625" fill="none" d="M229.25 225.25 C 246.0 243.75, 229.0 257.5, 247.125 277.875" />
  <path stroke="black" stroke-width="1.5625" fill="none" d="M247.125 277.875 C 250.0 281.25, 256.25 287.5, 262.5 293.75" />
  <path stroke="black" stroke-width="1.5625" fill="none" d="M262.5 293.75 C 273.625 297.875, 282.5 299.0, 295.75 299.75" />
  <path stroke="black" stroke-width="1.5625" fill="none" d="M295.75 299.75 C 304.625 311.625, 312.0 317.25, 325.0 325.0" />
  <path stroke="black" stroke-width="1.5625" fill="none" d="M229.25 225.25 C 242.5 226.0, 251.375 227.125, 262.5 231.25" />
  <path stroke="black" stroke-width="1.5625" fill="none" d="M262.5 231.25 C 262.5 246.875, 262.5 253.125, 262.5 262.5" />
  <path stroke="black" stroke-width="1.5625" fill="none" d="M262.5 262.5 C 257.5 267.5, 251.25 273.75, 247.125 277.875" />
  <path stroke="black" stroke-width="1.5625" fill="none" d="M239.375 236.25 C 247.25 233.5, 253.25 234.25, 260.875 238.5" />
  <path stroke="black" stroke-width="1.5625" fill="none" d="M242.5 249.375 C 250.0 244.75, 254.375 244.125, 261.125 246.75" />
  <path stroke="black" stroke-width="1.5625" fill="none" d="M243.5 262.25 C 250.0 254.5, 252.75 254.0, 261.125 254.625" />
  <path stroke="black" stroke-width="1.5625" fill="none" d="M256.375 272.75 C 258.125 275.0, 260.0 276.875, 261.25 277.375" />
  <path stroke="black" stroke-width="1.5625" fill="none" d="M252.625 276.5 C 255.0 281.25, 256.875 283.125, 261.5 284.375" />
  <path stroke="black" stroke-width="1.5625" fill="none" d="M178.75 295.375 C 184.375 280.625, 191.875 274.375, 200.25 270.5" />
  <path stroke="black" stroke-width="1.5625" fill="none" d="M184.875 301.5 C 192.5 287.5, 196.25 283.75, 205.0 278.125" />
  <path stroke="black" stroke-width="1.5625" fill="none" d="M192.75 309.375 C 198.75 295.0, 203.75 290.0, 212.5 284.875" />
  <path stroke="black" stroke-width="1.5625" fill="none" d="M197.25 317.125 C 207.5 300.0, 212.5 295.0, 220.0 289.75" />
  <path stroke="black" stroke-width="1.5625" fill="none" d="M206.625 242.75 C 209.375 240.375, 210.625 239.125, 212.25 237.5" />
  <path stroke="black" stroke-width="1.5625" fill="none" d="M206.625 242.75 C 205.25 236.25, 205.25 230.0, 206.625 222.625" />
  <path stroke="black" stroke-width="1.5625" fill="none" d="M206.625 222.625 C 210.625 223.5, 211.5 231.0, 212.25 237.5" />
  <path stroke="black" stroke-width="1.5625" fill="none" d="M216.25 235.25 C 218.75 233.75, 221.875 231.875, 223.375 231.0" />
  <path stroke="black" stroke-width="1.5625" fill="none" d="M216.25 235.25 C 213.75 225.625, 213.75 223.75, 214.0 219.375" />
  <path stroke="black" stroke-width="1.5625" fill="none" d="M214.0 219.375 C 218.75 224.375, 221.5 227.5, 223.375 231.0" />
  <path stroke="black" stroke-width="1.1048543456039805" fill="none" d="M299.125 211.375 C 264.6875 227.8125, 258.0 225.75, 216.4375 206.6875" />
  <path stroke="black" stroke-width="1.1048543456039805" fill="none" d="M229.25 225.25 C 220.375 213.375, 213.0 207.75, 200.0 200.0" />
  <path stroke="black" stroke-width="1.1048543456039805" fill="none" d="M262.5 231.25 C 251.375 227.125, 242.5 226.0, 229.25 225.25" />
  <path stroke="black" stroke-width="1.1048543456039805" fill="none" d="M262.5 262.5 C 262.5 248.75, 262.5 240.625, 262.5 231.25" />
  <path stroke="black" stroke-width="1.1048543456039805" fill="none" d="M293.75 262.5 C 281.25 262.5, 273.75 262.5, 262.5 262.5" />
  <path stroke="black" stroke-width="1.1048543456039805" fill="none" d="M293.75 262.5 C 297.875 251.375, 299.0 242.5, 299.75 229.25" />
  <path stroke="black" stroke-width="1.1048543456039805" fill="none" d="M299.75 229.25 C 281.25 236.875, 278.125 236.875, 262.5 231.25" />
  <path stroke="black" stroke-width="1.1048543456039805" fill="none" d="M299.75 229.25 C 311.625 220.375, 317.25 213.0, 325.0 200.0" />
  <path stroke="black" stroke-width="1.1048543456039805" fill="none" d="M325.0 200.0 C 314.625 197.375, 308.125 196.5, 297.75 198.0" />
  <path stroke="black" stroke-width="1.1048543456039805" fill="none" d="M297.75 198.0 C 280.125 198.875, 281.75 214.25, 262.5 215.375" />
  <path stroke="black" stroke-width="1.1048543456039805" fill="none" d="M262.5 215.375 C 259.375 215.625, 253.125 215.625, 246.875 215.625" />
  <path stroke="black" stroke-width="1.1048543456039805" fill="none" d="M246.875 215.625 C 239.25 212.125, 234.25 208.25, 227.25 202.0" />
  <path stroke="black" stroke-width="1.1048543456039805" fill="none" d="M227.25 202.0 C 216.875 203.5, 210.375 202.625, 200.0 200.0" />
  <path stroke="black" stroke-width="1.1048543456039805" fill="none" d="M297.75 198.0 C 290.75 191.75, 285.75 187.875, 278.125 184.375" />
  <path stroke="black" stroke-width="1.1048543456039805" fill="none" d="M278.125 184.375 C 270.3125 192.1875, 267.1875 195.3125, 262.5 200.0" />
  <path stroke="black" stroke-width="1.1048543456039805" fill="none" d="M262.5 200.0 C 262.5 205.0, 262.5 211.25, 262.5 215.375" />
  <path stroke="black" stroke-width="1.1048543456039805" fill="none" d="M287.1875 198.4375 C 284.625 193.125, 281.25 190.5, 275.3125 188.8125" />
  <path stroke="black" stroke-width="1.1048543456039805" fill="none" d="M279.0625 203.4375 C 277.625 197.375, 275.75 194.875, 271.0625 192.8125" />
  <path stroke="black" stroke-width="1.1048543456039805" fill="none" d="M272.125 209.375 C 272.75 202.25, 271.625 200.625, 267.125 196.75" />
  <path stroke="black" stroke-width="1.1048543456039805" fill="none" d="M260.4375 208.1875 C 258.4375 208.4375, 256.5625 208.4375, 255.6875 208.0625" />
  <path stroke="black" stroke-width="1.1048543456039805" fill="none" d="M260.4375 211.9375 C 256.875 213.125, 255.0 213.125, 252.0625 211.4375" />
  <path stroke="black" stroke-width="1.1048543456039805" fill="none" d="M287.9375 258.3125 C 292.5 248.125, 291.875 241.25, 289.625 235.125" />
  <path stroke="black" stroke-width="1.1048543456039805" fill="none" d="M281.8125 258.3125 C 285.0 247.5, 285.0 243.75, 283.4375 236.5625" />
  <path stroke="black" stroke-width="1.1048543456039805" fill="none" d="M273.9375 258.3125 C 278.125 248.125, 278.125 243.125, 276.3125 236.1875" />
  <path stroke="black" stroke-width="1.1048543456039805" fill="none" d="M267.8125 259.9375 C 271.25 246.25, 271.25 241.25, 270.125 234.875" />
  <path stroke="black" stroke-width="1.1048543456039805" fill="none" d="M300.3125 218.0625 C 300.125 215.5, 300.125 214.25, 300.125 212.625" />
  <path stroke="black" stroke-width="1.1048543456039805" fill="none" d="M300.3125 218.0625 C 304.25 215.5, 307.375 212.375, 310.375 208.0" />
  <path stroke="black" stroke-width="1.1048543456039805" fill="none" d="M310.375 208.0 C 307.9375 206.4375, 303.75 209.75, 300.125 212.625" />
  <path stroke="black" stroke-width="1.1048543456039805" fill="none" d="M299.25 209.5 C 298.75 207.5, 298.125 205.0, 297.8125 203.8125" />
  <path stroke="black" stroke-width="1.1048543456039805" fill="none" d="M299.25 209.5 C 305.3125 205.9375, 306.25 205.0, 308.3125 202.6875" />
  <path stroke="black" stroke-width="1.1048543456039805" fill="none" d="M308.3125 202.6875 C 303.4375 202.8125, 300.5 203.0, 297.8125 203.8125" />
  <path stroke="black" stroke-width="1.1048543456039805" fill="none" d="M313.625 299.125 C 297.1875 264.6875, 299.25 258.0, 318.3125 216.4375" />
  <path stroke="black" stroke-width="1.1048543456039805" fill="none" d="M299.75 229.25 C 311.625 220.375, 317.25 213.0, 325.0 200.0" />
  <path stroke="black" stroke-width="1.1048543456039805" fill="none" d="M293.75 262.5 C 297.875 251.375, 299.0 242.5, 299.75 229.25" />
  <path stroke="black" stroke-width="1.1048543456039805" fill="none" d="M262.5 262.5 C 276.25 262.5, 284.375 262.5, 293.75 262.5" />
  <path stroke="black" stroke-width="1.1048543456039805" fill="none" d="M262.5 293.75 C 262.5 281.25, 262.5 273.75, 262.5 262.5" />
  <path stroke="black" stroke-width="1.1048543456039805" fill="none" d="M262.5 293.75 C 273.625 297.875, 282.5 299.0, 295.75 299.75" />
  <path stroke="black" stroke-width="1.1048543456039805" fill="none" d="M295.75 299.75 C 288.125 281.25, 288.125 278.125, 293.75 262.5" />
  <path stroke="black" stroke-width="1.1048543456039805" fill="none" d="M295.75 299.75 C 304.625 311.625, 312.0 317.25, 325.0 325.0" />
  <path stroke="black" stroke-width="1.1048543456039805" fill="none" d="M325.0 325.0 C 327.625 314.625, 328.5 308.125, 327.0 297.75" />
  <path stroke="black" stroke-width="1.1048543456039805" fill="none" d="M327.0 297.75 C 326.125 280.125, 310.75 281.75, 309.625 262.5" />
  <path stroke="black" stroke-width="1.1048543456039805" fill="none" d="M309.625 262.5 C 309.375 259.375, 309.375 253.125, 309.375 246.875" />
  <path stroke="black" stroke-width="1.1048543456039805" fill="none" d="M309.375 246.875 C 312.875 239.25, 316.75 234.25, 323.0 227.25" />
  <path stroke="black" stroke-width="1.1048543456039805" fill="none" d="M323.0 227.25 C 321.5 216.875, 322.375 210.375, 325.0 200.0" />
  <path stroke="black" stroke-width="1.1048543456039805" fill="none" d="M327.0 297.75 C 333.25 290.75, 337.125 285.75, 340.625 278.125" />
  <path stroke="black" stroke-width="1.1048543456039805" fill="none" d="M340.625 278.125 C 332.8125 270.3125, 329.6875 267.1875, 325.0 262.5" />
  <path stroke="black" stroke-width="1.1048543456039805" fill="none" d="M325.0 262.5 C 320.0 262.5, 313.75 262.5, 309.625 262.5" />
  <path stroke="black" stroke-width="1.1048543456039805" fill="none" d="M326.5625 287.1875 C 331.875 284.625, 334.5 281.25, 336.1875 275.3125" />
  <path stroke="black" stroke-width="1.1048543456039805" fill="none" d="M321.5625 279.0625 C 327.625 277.625, 330.125 275.75, 332.1875 271.0625" />
  <path stroke="black" stroke-width="1.1048543456039805" fill="none" d="M315.625 272.125 C 322.75 272.75, 324.375 271.625, 328.25 267.125" />
  <path stroke="black" stroke-width="1.1048543456039805" fill="none" d="M316.8125 260.4375 C 316.5625 258.4375, 316.5625 256.5625, 316.9375 255.6875" />
  <path stroke="black" stroke-width="1.1048543456039805" fill="none" d="M313.0625 260.4375 C 311.875 256.875, 311.875 255.0, 313.5625 252.0625" />
  <path stroke="black" stroke-width="1.1048543456039805" fill="none" d="M266.6875 287.9375 C 276.875 292.5, 283.75 291.875, 289.875 289.625" />
  <path stroke="black" stroke-width="1.1048543456039805" fill="none" d="M266.6875 281.8125 C 277.5 285.0, 281.25 285.0, 288.4375 283.4375" />
  <path stroke="black" stroke-width="1.1048543456039805" fill="none" d="M266.6875 273.9375 C 276.875 278.125, 281.875 278.125, 288.8125 276.3125" />
  <path stroke="black" stroke-width="1.1048543456039805" fill="none" d="M265.0625 267.8125 C 278.75 271.25, 283.75 271.25, 290.125 270.125" />
  <path stroke="black" stroke-width="1.1048543456039805" fill="none" d="M306.9375 300.3125 C 309.5 300.125, 310.75 300.125, 312.375 300.125" />
  <path stroke="black" stroke-width="1.1048543456039805" fill="none" d="M306.9375 300.3125 C 309.5 304.25, 312.625 307.375, 317.0 310.375" />
  <path stroke="black" stroke-width="1.1048543456039805" fill="none" d="M317.0 310.375 C 318.5625 307.9375, 315.25 303.75, 312.375 300.125" />
  <path stroke="black" stroke-width="1.1048543456039805" fill="none" d="M315.5 299.25 C 317.5 298.75, 320.0 298.125, 321.1875 297.8125" />
  <path stroke="black" stroke-width="1.1048543456039805" fill="none" d="M315.5 299.25 C 319.0625 305.3125, 320.0 306.25, 322.3125 308.3125" />
  <path stroke="black" stroke-width="1.1048543456039805" fill="none" d="M322.3125 308.3125 C 322.1875 303.4375, 322.0 300.5, 321.1875 297.8125" />

</svg>
