<svg xmlns="http://www.w3.org/2000/svg" viewbox="0 0 400 400">
  <path stroke="black" stroke-width="0.5524271728019903" fill="none" d="M187.0625 143.1875 C 169.84375 151.40625, 166.5 150.375, 145.71875 140.84375" />
  <path stroke="black" stroke-width="0.5524271728019903" fill="none" d="M152.125 150.125 C 147.6875 144.1875, 144.0 141.375, 137.5 137.5" />
  <path stroke="black" stroke-width="0.5524271728019903" fill="none" d="M168.75 153.125 C 163.1875 151.0625, 158.75 150.5, 152.125 150.125" />
  <path stroke="black" stroke-width="0.5524271728019903" fill="none" d="M168.75 168.75 C 168.75 161.875, 168.75 157.8125, 168.75 153.125" />
  <path stroke="black" stroke-width="0.5524271728019903" fill="none" d="M184.375 168.75 C 178.125 168.75, 174.375 168.75, 168.75 168.75" />
  <path stroke="black" stroke-width="0.5524271728019903" fill="none" d="M184.375 168.75 C 186.4375 163.1875, 187.0 158.75, 187.375 152.125" />
  <path stroke="black" stroke-width="0.5524271728019903" fill="none" d="M187.375 152.125 C 178.125 155.9375, 176.5625 155.9375, 168.75 153.125" />
  <path stroke="black" stroke-width="0.5524271728019903" fill="none" d="M187.375 152.125 C 193.3125 147.6875, 196.125 144.0, 200.0 137.5" />
  <path stroke="black" stroke-width="0.5524271728019903" fill="none" d="M200.0 137.5 C 194.8125 136.1875, 191.5625 135.75, 186.375 136.5" />
  <path stroke="black" stroke-width="0.5524271728019903" fill="none" d="M186.375 136.5 C 177.5625 136.9375, 178.375 144.625, 168.75 145.1875" />
  <path stroke="black" stroke-width="0.5524271728019903" fill="none" d="M168.75 145.1875 C 167.1875 145.3125, 164.0625 145.3125, 160.9375 145.3125" />
  <path stroke="black" stroke-width="0.5524271728019903" fill="none" d="M160.9375 145.3125 C 157.125 143.5625, 154.625 141.625, 151.125 138.5" />
  <path stroke="black" stroke-width="0.5524271728019903" fill="none" d="M151.125 138.5 C 145.9375 139.25, 142.6875 138.8125, 137.5 137.5" />
  <path stroke="black" stroke-width="0.5524271728019903" fill="none" d="M186.375 136.5 C 182.875 133.375, 180.375 131.4375, 176.5625 129.6875" />
  <path stroke="black" stroke-width="0.5524271728019903" fill="none" d="M176.5625 129.6875 C 172.65625 133.59375, 171.09375 135.15625, 168.75 137.5" />
  <path stroke="black" stroke-width="0.5524271728019903" fill="none" d="M168.75 137.5 C 168.75 140.0, 168.75 143.125, 168.75 145.1875" />
  <path stroke="black" stroke-width="0.5524271728019903" fill="none" d="M181.09375 136.71875 C 179.8125 134.0625, 178.125 132.75, 175.15625 131.90625" />
  <path stroke="black" stroke-width="0.5524271728019903" fill="none" d="M177.03125 139.21875 C 176.3125 136.1875, 175.375 134.9375, 173.03125 133.90625" />
  <path stroke="black" stroke-width="0.5524271728019903" fill="none" d="M173.5625 142.1875 C 173.875 138.625, 173.3125 137.8125, 171.0625 135.875" />
  <path stroke="black" stroke-width="0.5524271728019903" fill="none" d="M167.71875 141.59375 C 166.71875 141.71875, 165.78125 141.71875, 165.34375 141.53125" />
  <path stroke="black" stroke-width="0.5524271728019903" fill="none" d="M167.71875 143.46875 C 165.9375 144.0625, 165.0 144.0625, 163.53125 143.21875" />
  <path stroke="black" stroke-width="0.5524271728019903" fill="none" d="M181.46875 166.65625 C 183.75 161.5625, 183.4375 158.125, 182.3125 155.0625" />
  <path stroke="black" stroke-width="0.5524271728019903" fill="none" d="M178.40625 166.65625 C 180.0 161.25, 180.0 159.375, 179.21875 155.78125" />
  <path stroke="black" stroke-width="0.5524271728019903" fill="none" d="M174.46875 166.65625 C 176.5625 161.5625, 176.5625 159.0625, 175.65625 155.59375" />
  <path stroke="black" stroke-width="0.5524271728019903" fill="none" d="M171.40625 167.46875 C 173.125 160.625, 173.125 158.125, 172.5625 154.9375" />
  <path stroke="black" stroke-width="0.5524271728019903" fill="none" d="M187.65625 146.53125 C 187.5625 145.25, 187.5625 144.625, 187.5625 143.8125" />
  <path stroke="black" stroke-width="0.5524271728019903" fill="none" d="M187.65625 146.53125 C 189.625 145.25, 191.1875 143.6875, 192.6875 141.5" />
  <path stroke="black" stroke-width="0.5524271728019903" fill="none" d="M192.6875 141.5 C 191.46875 140.71875, 189.375 142.375, 187.5625 143.8125" />
  <path stroke="black" stroke-width="0.5524271728019903" fill="none" d="M187.125 142.25 C 186.875 141.25, 186.5625 140.0, 186.40625 139.40625" />
  <path stroke="black" stroke-width="0.5524271728019903" fill="none" d="M187.125 142.25 C 190.15625 140.46875, 190.625 140.0, 191.65625 138.84375" />
  <path stroke="black" stroke-width="0.5524271728019903" fill="none" d="M191.65625 138.84375 C 189.21875 138.90625, 187.75 139.0, 186.40625 139.40625" />
  <path stroke="black" stroke-width="0.5524271728019903" fill="none" d="M143.1875 150.4375 C 151.40625 167.65625, 150.375 171.0, 140.84375 191.78125" />
  <path stroke="black" stroke-width="0.5524271728019903" fill="none" d="M150.125 185.375 C 144.1875 189.8125, 141.375 193.5, 137.5 200.0" />
  <path stroke="black" stroke-width="0.5524271728019903" fill="none" d="M153.125 168.75 C 151.0625 174.3125, 150.5 178.75, 150.125 185.375" />
  <path stroke="black" stroke-width="0.5524271728019903" fill="none" d="M168.75 168.75 C 161.875 168.75, 157.8125 168.75, 153.125 168.75" />
  <path stroke="black" stroke-width="0.5524271728019903" fill="none" d="M168.75 153.125 C 168.75 159.375, 168.75 163.125, 168.75 168.75" />
  <path stroke="black" stroke-width="0.5524271728019903" fill="none" d="M168.75 153.125 C 163.1875 151.0625, 158.75 150.5, 152.125 150.125" />
  <path stroke="black" stroke-width="0.5524271728019903" fill="none" d="M152.125 150.125 C 155.9375 159.375, 155.9375 160.9375, 153.125 168.75" />
  <path stroke="black" stroke-width="0.5524271728019903" fill="none" d="M152.125 150.125 C 147.6875 144.1875, 144.0 141.375, 137.5 137.5" />
  <path stroke="black" stroke-width="0.5524271728019903" fill="none" d="M137.5 137.5 C 136.1875 142.6875, 135.75 145.9375, 136.5 151.125" />
  <path stroke="black" stroke-width="0.5524271728019903" fill="none" d="M136.5 151.125 C 136.9375 159.9375, 144.625 159.125, 145.1875 168.75" />
  <path stroke="black" stroke-width="0.5524271728019903" fill="none" d="M145.1875 168.75 C 145.3125 170.3125, 145.3125 173.4375, 145.3125 176.5625" />
  <path stroke="black" stroke-width="0.5524271728019903" fill="none" d="M145.3125 176.5625 C 143.5625 180.375, 141.625 182.875, 138.5 186.375" />
  <path stroke="black" stroke-width="0.5524271728019903" fill="none" d="M138.5 186.375 C 139.25 191.5625, 138.8125 194.8125, 137.5 200.0" />
  <path stroke="black" stroke-width="0.5524271728019903" fill="none" d="M136.5 151.125 C 133.375 154.625, 131.4375 157.125, 129.6875 160.9375" />
  <path stroke="black" stroke-width="0.5524271728019903" fill="none" d="M129.6875 160.9375 C 133.59375 164.84375, 135.15625 166.40625, 137.5 168.75" />
  <path stroke="black" stroke-width="0.5524271728019903" fill="none" d="M137.5 168.75 C 140.0 168.75, 143.125 168.75, 145.1875 168.75" />
  <path stroke="black" stroke-width="0.5524271728019903" fill="none" d="M136.71875 156.40625 C 134.0625 157.6875, 132.75 159.375, 131.90625 162.34375" />
  <path stroke="black" stroke-width="0.5524271728019903" fill="none" d="M139.21875 160.46875 C 136.1875 161.1875, 134.9375 162.125, 133.90625 164.46875" />
  <path stroke="black" stroke-width="0.5524271728019903" fill="none" d="M142.1875 163.9375 C 138.625 163.625, 137.8125 164.1875, 135.875 166.4375" />
  <path stroke="black" stroke-width="0.5524271728019903" fill="none" d="M141.59375 169.78125 C 141.71875 170.78125, 141.71875 171.71875, 141.53125 172.15625" />
  <path stroke="black" stroke-width="0.5524271728019903" fill="none" d="M143.46875 169.78125 C 144.0625 171.5625, 144.0625 172.5, 143.21875 173.96875" />
  <path stroke="black" stroke-width="0.5524271728019903" fill="none" d="M166.65625 156.03125 C 161.5625 153.75, 158.125 154.0625, 155.0625 155.1875" />
  <path stroke="black" stroke-width="0.5524271728019903" fill="none" d="M166.65625 159.09375 C 161.25 157.5, 159.375 157.5, 155.78125 158.28125" />
  <path stroke="black" stroke-width="0.5524271728019903" fill="none" d="M166.65625 163.03125 C 161.5625 160.9375, 159.0625 160.9375, 155.59375 161.84375" />
  <path stroke="black" stroke-width="0.5524271728019903" fill="none" d="M167.46875 166.09375 C 160.625 164.375, 158.125 164.375, 154.9375 164.9375" />
  <path stroke="black" stroke-width="0.5524271728019903" fill="none" d="M146.53125 149.84375 C 145.25 149.9375, 144.625 149.9375, 143.8125 149.9375" />
  <path stroke="black" stroke-width="0.5524271728019903" fill="none" d="M146.53125 149.84375 C 145.25 147.875, 143.6875 146.3125, 141.5 144.8125" />
  <path stroke="black" stroke-width="0.5524271728019903" fill="none" d="M141.5 144.8125 C 140.71875 146.03125, 142.375 148.125, 143.8125 149.9375" />
  <path stroke="black" stroke-width="0.5524271728019903" fill="none" d="M142.25 150.375 C 141.25 150.625, 140.0 150.9375, 139.40625 151.09375" />
  <path stroke="black" stroke-width="0.5524271728019903" fill="none" d="M142.25 150.375 C 140.46875 147.34375, 140.0 146.875, 138.84375 145.84375" />
  <path stroke="black" stroke-width="0.5524271728019903" fill="none" d="M138.84375 145.84375 C 138.90625 148.28125, 139.0 149.75, 139.40625 151.09375" />
  <path stroke="black" stroke-width="0.5524271728019903" fill="none" d="M150.4375 194.3125 C 167.65625 186.09375, 171.0 187.125, 191.78125 196.65625" />
  <path stroke="black" stroke-width="0.5524271728019903" fill="none" d="M185.375 187.375 C 189.8125 193.3125, 193.5 196.125, 200.0 200.0" />
  <path stroke="black" stroke-width="0.5524271728019903" fill="none" d="M168.75 184.375 C 174.3125 186.4375, 178.75 187.0, 185.375 187.375" />
  <path stroke="black" stroke-width="0.5524271728019903" fill="none" d="M168.75 168.75 C 168.75 175.625, 168.75 179.6875, 168.75 184.375" />
  <path stroke="black" stroke-width="0.5524271728019903" fill="none" d="M153.125 168.75 C 159.375 168.75, 163.125 168.75, 168.75 168.75" />
  <path stroke="black" stroke-width="0.5524271728019903" fill="none" d="M153.125 168.75 C 151.0625 174.3125, 150.5 178.75, 150.125 185.375" />
  <path stroke="black" stroke-width="0.5524271728019903" fill="none" d="M150.125 185.375 C 159.375 181.5625, 160.9375 181.5625, 168.75 184.375" />
  <path stroke="black" stroke-width="0.5524271728019903" fill="none" d="M150.125 185.375 C 144.1875 189.8125, 141.375 193.5, 137.5 200.0" />
  <path stroke="black" stroke-width="0.5524271728019903" fill="none" d="M137.5 200.0 C 142.6875 201.3125, 145.9375 201.75, 151.125 201.0" />
  <path stroke="black" stroke-width="0.5524271728019903" fill="none" d="M151.125 201.0 C 159.9375 200.5625, 159.125 192.875, 168.75 192.3125" />
  <path stroke="black" stroke-width="0.5524271728019903" fill="none" d="M168.75 192.3125 C 170.3125 192.1875, 173.4375 192.1875, 176.5625 192.1875" />
  <path stroke="black" stroke-width="0.5524271728019903" fill="none" d="M176.5625 192.1875 C 180.375 193.9375, 182.875 195.875, 186.375 199.0" />
  <path stroke="black" stroke-width="0.5524271728019903" fill="none" d="M186.375 199.0 C 191.5625 198.25, 194.8125 198.6875, 200.0 200.0" />
  <path stroke="black" stroke-width="0.5524271728019903" fill="none" d="M151.125 201.0 C 154.625 204.125, 157.125 206.0625, 160.9375 207.8125" />
  <path stroke="black" stroke-width="0.5524271728019903" fill="none" d="M160.9375 207.8125 C 164.84375 203.90625, 166.40625 202.34375, 168.75 200.0" />
  <path stroke="black" stroke-width="0.5524271728019903" fill="none" d="M168.75 200.0 C 168.75 197.5, 168.75 194.375, 168.75 192.3125" />
  <path stroke="black" stroke-width="0.5524271728019903" fill="none" d="M156.40625 200.78125 C 157.6875 203.4375, 159.375 204.75, 162.34375 205.59375" />
  <path stroke="black" stroke-width="0.5524271728019903" fill="none" d="M160.46875 198.28125 C 161.1875 201.3125, 162.125 202.5625, 164.46875 203.59375" />
  <path stroke="black" stroke-width="0.5524271728019903" fill="none" d="M163.9375 195.3125 C 163.625 198.875, 164.1875 199.6875, 166.4375 201.625" />
  <path stroke="black" stroke-width="0.5524271728019903" fill="none" d="M169.78125 195.90625 C 170.78125 195.78125, 171.71875 195.78125, 172.15625 195.96875" />
  <path stroke="black" stroke-width="0.5524271728019903" fill="none" d="M169.78125 194.03125 C 171.5625 193.4375, 172.5 193.4375, 173.96875 194.28125" />
  <path stroke="black" stroke-width="0.5524271728019903" fill="none" d="M156.03125 170.84375 C 153.75 175.9375, 154.0625 179.375, 155.1875 182.4375" />
  <path stroke="black" stroke-width="0.5524271728019903" fill="none" d="M159.09375 170.84375 C 157.5 176.25, 157.5 178.125, 158.28125 181.71875" />
  <path stroke="black" stroke-width="0.5524271728019903" fill="none" d="M163.03125 170.84375 C 160.9375 175.9375, 160.9375 178.4375, 161.84375 181.90625" />
  <path stroke="black" stroke-width="0.5524271728019903" fill="none" d="M166.09375 170.03125 C 164.375 176.875, 164.375 179.375, 164.9375 182.5625" />
  <path stroke="black" stroke-width="0.5524271728019903" fill="none" d="M149.84375 190.96875 C 149.9375 192.25, 149.9375 192.875, 149.9375 193.6875" />
  <path stroke="black" stroke-width="0.5524271728019903" fill="none" d="M149.84375 190.96875 C 147.875 192.25, 146.3125 193.8125, 144.8125 196.0" />
  <path stroke="black" stroke-width="0.5524271728019903" fill="none" d="M144.8125 196.0 C 146.03125 196.78125, 148.125 195.125, 149.9375 193.6875" />
  <path stroke="black" stroke-width="0.5524271728019903" fill="none" d="M150.375 195.25 C 150.625 196.25, 150.9375 197.5, 151.09375 198.09375" />
  <path stroke="black" stroke-width="0.5524271728019903" fill="none" d="M150.375 195.25 C 147.34375 197.03125, 146.875 197.5, 145.84375 198.65625" />
  <path stroke="black" stroke-width="0.5524271728019903" fill="none" d="M145.84375 198.65625 C 148.28125 198.59375, 149.75 198.5, 151.09375 198.09375" />
  <path stroke="black" stroke-width="0.5524271728019903" fill="none" d="M194.3125 187.0625 C 186.09375 169.84375, 187.125 166.5, 196.65625 145.71875" />
  <path stroke="black" stroke-width="0.5524271728019903" fill="none" d="M187.375 152.125 C 193.3125 147.6875, 196.125 144.0, 200.0 137.5" />
  <path stroke="black" stroke-width="0.5524271728019903" fill="none" d="M184.375 168.75 C 186.4375 163.1875, 187.0 158.75, 187.375 152.125" />
  <path stroke="black" stroke-width="0.5524271728019903" fill="none" d="M168.75 168.75 C 175.625 168.75, 179.6875 168.75, 184.375 168.75" />
  <path stroke="black" stroke-width="0.5524271728019903" fill="none" d="M168.75 184.375 C 168.75 178.125, 168.75 174.375, 168.75 168.75" />
  <path stroke="black" stroke-width="0.5524271728019903" fill="none" d="M168.75 184.375 C 174.3125 186.4375, 178.75 187.0, 185.375 187.375" />
  <path stroke="black" stroke-width="0.5524271728019903" fill="none" d="M185.375 187.375 C 181.5625 178.125, 181.5625 176.5625, 184.375 168.75" />
  <path stroke="black" stroke-width="0.5524271728019903" fill="none" d="M185.375 187.375 C 189.8125 193.3125, 193.5 196.125, 200.0 200.0" />
  <path stroke="black" stroke-width="0.5524271728019903" fill="none" d="M200.0 200.0 C 201.3125 194.8125, 201.75 191.5625, 201.0 186.375" />
  <path stroke="black" stroke-width="0.5524271728019903" fill="none" d="M201.0 186.375 C 200.5625 177.5625, 192.875 178.375, 192.3125 168.75" />
  <path stroke="black" stroke-width="0.5524271728019903" fill="none" d="M192.3125 168.75 C 192.1875 167.1875, 192.1875 164.0625, 192.1875 160.9375" />
  <path stroke="black" stroke-width="0.5524271728019903" fill="none" d="M192.1875 160.9375 C 193.9375 157.125, 195.875 154.625, 199.0 151.125" />
  <path stroke="black" stroke-width="0.5524271728019903" fill="none" d="M199.0 151.125 C 198.25 145.9375, 198.6875 142.6875, 200.0 137.5" />
  <path stroke="black" stroke-width="0.5524271728019903" fill="none" d="M201.0 186.375 C 204.125 182.875, 206.0625 180.375, 207.8125 176.5625" />
  <path stroke="black" stroke-width="0.5524271728019903" fill="none" d="M207.8125 176.5625 C 203.90625 172.65625, 202.34375 171.09375, 200.0 168.75" />
  <path stroke="black" stroke-width="0.5524271728019903" fill="none" d="M200.0 168.75 C 197.5 168.75, 194.375 168.75, 192.3125 168.75" />
  <path stroke="black" stroke-width="0.5524271728019903" fill="none" d="M200.78125 181.09375 C 203.4375 179.8125, 204.75 178.125, 205.59375 175.15625" />
  <path stroke="black" stroke-width="0.5524271728019903" fill="none" d="M198.28125 177.03125 C 201.3125 176.3125, 202.5625 175.375, 203.59375 173.03125" />
  <path stroke="black" stroke-width="0.5524271728019903" fill="none" d="M195.3125 173.5625 C 198.875 173.875, 199.6875 173.3125, 201.625 171.0625" />
  <path stroke="black" stroke-width="0.5524271728019903" fill="none" d="M195.90625 167.71875 C 195.78125 166.71875, 195.78125 165.78125, 195.96875 165.34375" />
  <path stroke="black" stroke-width="0.5524271728019903" fill="none" d="M194.03125 167.71875 C 193.4375 165.9375, 193.4375 165.0, 194.28125 163.53125" />
  <path stroke="black" stroke-width="0.5524271728019903" fill="none" d="M170.84375 181.46875 C 175.9375 183.75, 179.375 183.4375, 182.4375 182.3125" />
  <path stroke="black" stroke-width="0.5524271728019903" fill="none" d="M170.84375 178.40625 C 176.25 180.0, 178.125 180.0, 181.71875 179.21875" />
  <path stroke="black" stroke-width="0.5524271728019903" fill="none" d="M170.84375 174.46875 C 175.9375 176.5625, 178.4375 176.5625, 181.90625 175.65625" />
  <path stroke="black" stroke-width="0.5524271728019903" fill="none" d="M170.03125 171.40625 C 176.875 173.125, 179.375 173.125, 182.5625 172.5625" />
  <path stroke="black" stroke-width="0.5524271728019903" fill="none" d="M190.96875 187.65625 C 192.25 187.5625, 192.875 187.5625, 193.6875 187.5625" />
  <path stroke="black" stroke-width="0.5524271728019903" fill="none" d="M190.96875 187.65625 C 192.25 189.625, 193.8125 191.1875, 196.0 192.6875" />
  <path stroke="black" stroke-width="0.5524271728019903" fill="none" d="M196.0 192.6875 C 196.78125 191.46875, 195.125 189.375, 193.6875 187.5625" />
  <path stroke="black" stroke-width="0.5524271728019903" fill="none" d="M195.25 187.125 C 196.25 186.875, 197.5 186.5625, 198.09375 186.40625" />
  <path stroke="black" stroke-width="0.5524271728019903" fill="none" d="M195.25 187.125 C 197.03125 190.15625, 197.5 190.625, 198.65625 191.65625" />
  <path stroke="black" stroke-width="0.5524271728019903" fill="none" d="M198.65625 191.65625 C 198.59375 189.21875, 198.5 187.75, 198.09375 186.40625" />
  <path stroke="black" stroke-width="0.78125" fill="none" d="M218.625 192.75 C 244.0625 183.75, 246.375 179.375, 257.625 149.0625" />
  <path stroke="black" stroke-width="0.78125" fill="none" d="M260.5 164.75 C 259.0 154.375, 259.875 147.875, 262.5 137.5" />
  <path stroke="black" stroke-width="0.78125" fill="none" d="M246.875 184.375 C 250.375 176.75, 254.25 171.75, 260.5 164.75" />
  <path stroke="black" stroke-width="0.78125" fill="none" d="M262.5 200.0 C 255.625 193.125, 251.5625 189.0625, 246.875 184.375" />
  <path stroke="black" stroke-width="0.78125" fill="none" d="M246.875 215.625 C 253.125 209.375, 256.875 205.625, 262.5 200.0" />
  <path stroke="black" stroke-width="0.78125" fill="none" d="M246.875 215.625 C 239.25 212.125, 234.25 208.25, 227.25 202.0" />
  <path stroke="black" stroke-width="0.78125" fill="none" d="M227.25 202.0 C 240.3125 196.5625, 241.875 195.0, 246.875 184.375" />
  <path stroke="black" stroke-width="0.78125" fill="none" d="M227.25 202.0 C 216.875 203.5, 210.375 202.625, 200.0 200.0" />
  <path stroke="black" stroke-width="0.78125" fill="none" d="M200.0 200.0 C 203.875 193.5, 206.6875 189.8125, 212.625 185.375" />
  <path stroke="black" stroke-width="0.78125" fill="none" d="M212.625 185.375 C 221.875 177.0, 228.75 185.5, 238.9375 176.4375" />
  <path stroke="black" stroke-width="0.78125" fill="none" d="M238.9375 176.4375 C 240.625 175.0, 243.75 171.875, 246.875 168.75" />
  <path stroke="black" stroke-width="0.78125" fill="none" d="M246.875 168.75 C 248.9375 163.1875, 249.5 158.75, 249.875 152.125" />
  <path stroke="black" stroke-width="0.78125" fill="none" d="M249.875 152.125 C 255.8125 147.6875, 258.625 144.0, 262.5 137.5" />
  <path stroke="black" stroke-width="0.78125" fill="none" d="M212.625 185.375 C 213.0 178.75, 213.5625 174.3125, 215.625 168.75" />
  <path stroke="black" stroke-width="0.78125" fill="none" d="M215.625 168.75 C 223.4375 168.75, 226.5625 168.75, 231.25 168.75" />
  <path stroke="black" stroke-width="0.78125" fill="none" d="M231.25 168.75 C 233.75 171.25, 236.875 174.375, 238.9375 176.4375" />
  <path stroke="black" stroke-width="0.78125" fill="none" d="M218.125 180.3125 C 216.75 176.375, 217.125 173.375, 219.25 169.5625" />
  <path stroke="black" stroke-width="0.78125" fill="none" d="M224.6875 178.75 C 222.375 175.0, 222.0625 172.8125, 223.375 169.4375" />
  <path stroke="black" stroke-width="0.78125" fill="none" d="M231.125 178.25 C 227.25 175.0, 227.0 173.625, 227.3125 169.4375" />
  <path stroke="black" stroke-width="0.78125" fill="none" d="M236.375 171.8125 C 237.5 170.9375, 238.4375 170.0, 238.6875 169.375" />
  <path stroke="black" stroke-width="0.78125" fill="none" d="M238.25 173.6875 C 240.625 172.5, 241.5625 171.5625, 242.1875 169.25" />
  <path stroke="black" stroke-width="0.78125" fill="none" d="M247.6875 210.625 C 240.3125 207.8125, 237.1875 204.0625, 235.25 199.875" />
  <path stroke="black" stroke-width="0.78125" fill="none" d="M250.75 207.5625 C 243.75 203.75, 241.875 201.875, 239.0625 197.5" />
  <path stroke="black" stroke-width="0.78125" fill="none" d="M254.6875 203.625 C 247.5 200.625, 245.0 198.125, 242.4375 193.75" />
  <path stroke="black" stroke-width="0.78125" fill="none" d="M258.5625 201.375 C 250.0 196.25, 247.5 193.75, 244.875 190.0" />
  <path stroke="black" stroke-width="0.78125" fill="none" d="M221.375 196.6875 C 220.1875 195.3125, 219.5625 194.6875, 218.75 193.875" />
  <path stroke="black" stroke-width="0.78125" fill="none" d="M221.375 196.6875 C 218.125 197.375, 215.0 197.375, 211.3125 196.6875" />
  <path stroke="black" stroke-width="0.78125" fill="none" d="M211.3125 196.6875 C 211.75 194.6875, 215.5 194.25, 218.75 193.875" />
  <path stroke="black" stroke-width="0.78125" fill="none" d="M217.625 191.875 C 216.875 190.625, 215.9375 189.0625, 215.5 188.3125" />
  <path stroke="black" stroke-width="0.78125" fill="none" d="M217.625 191.875 C 212.8125 193.125, 211.875 193.125, 209.6875 193.0" />
  <path stroke="black" stroke-width="0.78125" fill="none" d="M209.6875 193.0 C 212.1875 190.625, 213.75 189.25, 215.5 188.3125" />
  <path stroke="black" stroke-width="0.5524271728019903" fill="none" d="M205.6875 150.4375 C 213.90625 167.65625, 212.875 171.0, 203.34375 191.78125" />
  <path stroke="black" stroke-width="0.5524271728019903" fill="none" d="M212.625 185.375 C 206.6875 189.8125, 203.875 193.5, 200.0 200.0" />
  <path stroke="black" stroke-width="0.5524271728019903" fill="none" d="M215.625 168.75 C 213.5625 174.3125, 213.0 178.75, 212.625 185.375" />
  <path stroke="black" stroke-width="0.5524271728019903" fill="none" d="M231.25 168.75 C 224.375 168.75, 220.3125 168.75, 215.625 168.75" />
  <path stroke="black" stroke-width="0.5524271728019903" fill="none" d="M231.25 153.125 C 231.25 159.375, 231.25 163.125, 231.25 168.75" />
  <path stroke="black" stroke-width="0.5524271728019903" fill="none" d="M231.25 153.125 C 225.6875 151.0625, 221.25 150.5, 214.625 150.125" />
  <path stroke="black" stroke-width="0.5524271728019903" fill="none" d="M214.625 150.125 C 218.4375 159.375, 218.4375 160.9375, 215.625 168.75" />
  <path stroke="black" stroke-width="0.5524271728019903" fill="none" d="M214.625 150.125 C 210.1875 144.1875, 206.5 141.375, 200.0 137.5" />
  <path stroke="black" stroke-width="0.5524271728019903" fill="none" d="M200.0 137.5 C 198.6875 142.6875, 198.25 145.9375, 199.0 151.125" />
  <path stroke="black" stroke-width="0.5524271728019903" fill="none" d="M199.0 151.125 C 199.4375 159.9375, 207.125 159.125, 207.6875 168.75" />
  <path stroke="black" stroke-width="0.5524271728019903" fill="none" d="M207.6875 168.75 C 207.8125 170.3125, 207.8125 173.4375, 207.8125 176.5625" />
  <path stroke="black" stroke-width="0.5524271728019903" fill="none" d="M207.8125 176.5625 C 206.0625 180.375, 204.125 182.875, 201.0 186.375" />
  <path stroke="black" stroke-width="0.5524271728019903" fill="none" d="M201.0 186.375 C 201.75 191.5625, 201.3125 194.8125, 200.0 200.0" />
  <path stroke="black" stroke-width="0.5524271728019903" fill="none" d="M199.0 151.125 C 195.875 154.625, 193.9375 157.125, 192.1875 160.9375" />
  <path stroke="black" stroke-width="0.5524271728019903" fill="none" d="M192.1875 160.9375 C 196.09375 164.84375, 197.65625 166.40625, 200.0 168.75" />
  <path stroke="black" stroke-width="0.5524271728019903" fill="none" d="M200.0 168.75 C 202.5 168.75, 205.625 168.75, 207.6875 168.75" />
  <path stroke="black" stroke-width="0.5524271728019903" fill="none" d="M199.21875 156.40625 C 196.5625 157.6875, 195.25 159.375, 194.40625 162.34375" />
  <path stroke="black" stroke-width="0.5524271728019903" fill="none" d="M201.71875 160.46875 C 198.6875 161.1875, 197.4375 162.125, 196.40625 164.46875" />
  <path stroke="black" stroke-width="0.5524271728019903" fill="none" d="M204.6875 163.9375 C 201.125 163.625, 200.3125 164.1875, 198.375 166.4375" />
  <path stroke="black" stroke-width="0.5524271728019903" fill="none" d="M204.09375 169.78125 C 204.21875 170.78125, 204.21875 171.71875, 204.03125 172.15625" />
  <path stroke="black" stroke-width="0.5524271728019903" fill="none" d="M205.96875 169.78125 C 206.5625 171.5625, 206.5625 172.5, 205.71875 173.96875" />
  <path stroke="black" stroke-width="0.5524271728019903" fill="none" d="M229.15625 156.03125 C 224.0625 153.75, 220.625 154.0625, 217.5625 155.1875" />
  <path stroke="black" stroke-width="0.5524271728019903" fill="none" d="M229.15625 159.09375 C 223.75 157.5, 221.875 157.5, 218.28125 158.28125" />
  <path stroke="black" stroke-width="0.5524271728019903" fill="none" d="M229.15625 163.03125 C 224.0625 160.9375, 221.5625 160.9375, 218.09375 161.84375" />
  <path stroke="black" stroke-width="0.5524271728019903" fill="none" d="M229.96875 166.09375 C 223.125 164.375, 220.625 164.375, 217.4375 164.9375" />
  <path stroke="black" stroke-width="0.5524271728019903" fill="none" d="M209.03125 149.84375 C 207.75 149.9375, 207.125 149.9375, 206.3125 149.9375" />
  <path stroke="black" stroke-width="0.5524271728019903" fill="none" d="M209.03125 149.84375 C 207.75 147.875, 206.1875 146.3125, 204.0 144.8125" />
  <path stroke="black" stroke-width="0.5524271728019903" fill="none" d="M204.0 144.8125 C 203.21875 146.03125, 204.875 148.125, 206.3125 149.9375" />
  <path stroke="black" stroke-width="0.5524271728019903" fill="none" d="M204.75 150.375 C 203.75 150.625, 202.5 150.9375, 201.90625 151.09375" />
  <path stroke="black" stroke-width="0.5524271728019903" fill="none" d="M204.75 150.375 C 202.96875 147.34375, 202.5 146.875, 201.34375 145.84375" />
  <path stroke="black" stroke-width="0.5524271728019903" fill="none" d="M201.34375 145.84375 C 201.40625 148.28125, 201.5 149.75, 201.90625 151.09375" />
  <path stroke="black" stroke-width="0.5524271728019903" fill="none" d="M249.5625 143.1875 C 232.34375 151.40625, 229.0 150.375, 208.21875 140.84375" />
  <path stroke="black" stroke-width="0.5524271728019903" fill="none" d="M214.625 150.125 C 210.1875 144.1875, 206.5 141.375, 200.0 137.5" />
  <path stroke="black" stroke-width="0.5524271728019903" fill="none" d="M231.25 153.125 C 225.6875 151.0625, 221.25 150.5, 214.625 150.125" />
  <path stroke="black" stroke-width="0.5524271728019903" fill="none" d="M231.25 168.75 C 231.25 161.875, 231.25 157.8125, 231.25 153.125" />
  <path stroke="black" stroke-width="0.5524271728019903" fill="none" d="M246.875 168.75 C 240.625 168.75, 236.875 168.75, 231.25 168.75" />
  <path stroke="black" stroke-width="0.5524271728019903" fill="none" d="M246.875 168.75 C 248.9375 163.1875, 249.5 158.75, 249.875 152.125" />
  <path stroke="black" stroke-width="0.5524271728019903" fill="none" d="M249.875 152.125 C 240.625 155.9375, 239.0625 155.9375, 231.25 153.125" />
  <path stroke="black" stroke-width="0.5524271728019903" fill="none" d="M249.875 152.125 C 255.8125 147.6875, 258.625 144.0, 262.5 137.5" />
  <path stroke="black" stroke-width="0.5524271728019903" fill="none" d="M262.5 137.5 C 257.3125 136.1875, 254.0625 135.75, 248.875 136.5" />
  <path stroke="black" stroke-width="0.5524271728019903" fill="none" d="M248.875 136.5 C 240.0625 136.9375, 240.875 144.625, 231.25 145.1875" />
  <path stroke="black" stroke-width="0.5524271728019903" fill="none" d="M231.25 145.1875 C 229.6875 145.3125, 226.5625 145.3125, 223.4375 145.3125" />
  <path stroke="black" stroke-width="0.5524271728019903" fill="none" d="M223.4375 145.3125 C 219.625 143.5625, 217.125 141.625, 213.625 138.5" />
  <path stroke="black" stroke-width="0.5524271728019903" fill="none" d="M213.625 138.5 C 208.4375 139.25, 205.1875 138.8125, 200.0 137.5" />
  <path stroke="black" stroke-width="0.5524271728019903" fill="none" d="M248.875 136.5 C 245.375 133.375, 242.875 131.4375, 239.0625 129.6875" />
  <path stroke="black" stroke-width="0.5524271728019903" fill="none" d="M239.0625 129.6875 C 235.15625 133.59375, 233.59375 135.15625, 231.25 137.5" />
  <path stroke="black" stroke-width="0.5524271728019903" fill="none" d="M231.25 137.5 C 231.25 140.0, 231.25 143.125, 231.25 145.1875" />
  <path stroke="black" stroke-width="0.5524271728019903" fill="none" d="M243.59375 136.71875 C 242.3125 134.0625, 240.625 132.75, 237.65625 131.90625" />
  <path stroke="black" stroke-width="0.5524271728019903" fill="none" d="M239.53125 139.21875 C 238.8125 136.1875, 237.875 134.9375, 235.53125 133.90625" />
  <path stroke="black" stroke-width="0.5524271728019903" fill="none" d="M236.0625 142.1875 C 236.375 138.625, 235.8125 137.8125, 233.5625 135.875" />
  <path stroke="black" stroke-width="0.5524271728019903" fill="none" d="M230.21875 141.59375 C 229.21875 141.71875, 228.28125 141.71875, 227.84375 141.53125" />
  <path stroke="black" stroke-width="0.5524271728019903" fill="none" d="M230.21875 143.46875 C 228.4375 144.0625, 227.5 144.0625, 226.03125 143.21875" />
  <path stroke="black" stroke-width="0.5524271728019903" fill="none" d="M243.96875 166.65625 C 246.25 161.5625, 245.9375 158.125, 244.8125 155.0625" />
  <path stroke="black" stroke-width="0.5524271728019903" fill="none" d="M240.90625 166.65625 C 242.5 161.25, 242.5 159.375, 241.71875 155.78125" />
  <path stroke="black" stroke-width="0.5524271728019903" fill="none" d="M236.96875 166.65625 C 239.0625 161.5625, 239.0625 159.0625, 238.15625 155.59375" />
  <path stroke="black" stroke-width="0.5524271728019903" fill="none" d="M233.90625 167.46875 C 235.625 160.625, 235.625 158.125, 235.0625 154.9375" />
  <path stroke="black" stroke-width="0.5524271728019903" fill="none" d="M250.15625 146.53125 C 250.0625 145.25, 250.0625 144.625, 250.0625 143.8125" />
  <path stroke="black" stroke-width="0.5524271728019903" fill="none" d="M250.15625 146.53125 C 252.125 145.25, 253.6875 143.6875, 255.1875 141.5" />
  <path stroke="black" stroke-width="0.5524271728019903" fill="none" d="M255.1875 141.5 C 253.96875 140.71875, 251.875 142.375, 250.0625 143.8125" />
  <path stroke="black" stroke-width="0.5524271728019903" fill="none" d="M249.625 142.25 C 249.375 141.25, 249.0625 140.0, 248.90625 139.40625" />
  <path stroke="black" stroke-width="0.5524271728019903" fill="none" d="M249.625 142.25 C 252.65625 140.46875, 253.125 140.0, 254.15625 138.84375" />
  <path stroke="black" stroke-width="0.5524271728019903" fill="none" d="M254.15625 138.84375 C 251.71875 138.90625, 250.25 139.0, 248.90625 139.40625" />
  <path stroke="black" stroke-width="0.78125" fill="none" d="M269.75 156.125 C 278.75 181.5625, 283.125 183.875, 313.4375 195.125" />
  <path stroke="black" stroke-width="0.78125" fill="none" d="M297.75 198.0 C 308.125 196.5, 314.625 197.375, 325.0 200.0" />
  <path stroke="black" stroke-width="0.78125" fill="none" d="M278.125 184.375 C 285.75 187.875, 290.75 191.75, 297.75 198.0" />
  <path stroke="black" stroke-width="0.78125" fill="none" d="M262.5 200.0 C 269.375 193.125, 273.4375 189.0625, 278.125 184.375" />
  <path stroke="black" stroke-width="0.78125" fill="none" d="M246.875 184.375 C 253.125 190.625, 256.875 194.375, 262.5 200.0" />
  <path stroke="black" stroke-width="0.78125" fill="none" d="M246.875 184.375 C 250.375 176.75, 254.25 171.75, 260.5 164.75" />
  <path stroke="black" stroke-width="0.78125" fill="none" d="M260.5 164.75 C 265.9375 177.8125, 267.5 179.375, 278.125 184.375" />
  <path stroke="black" stroke-width="0.78125" fill="none" d="M260.5 164.75 C 259.0 154.375, 259.875 147.875, 262.5 137.5" />
  <path stroke="black" stroke-width="0.78125" fill="none" d="M262.5 137.5 C 269.0 141.375, 272.6875 144.1875, 277.125 150.125" />
  <path stroke="black" stroke-width="0.78125" fill="none" d="M277.125 150.125 C 285.5 159.375, 277.0 166.25, 286.0625 176.4375" />
  <path stroke="black" stroke-width="0.78125" fill="none" d="M286.0625 176.4375 C 287.5 178.125, 290.625 181.25, 293.75 184.375" />
  <path stroke="black" stroke-width="0.78125" fill="none" d="M293.75 184.375 C 299.3125 186.4375, 303.75 187.0, 310.375 187.375" />
  <path stroke="black" stroke-width="0.78125" fill="none" d="M310.375 187.375 C 314.8125 193.3125, 318.5 196.125, 325.0 200.0" />
  <path stroke="black" stroke-width="0.78125" fill="none" d="M277.125 150.125 C 283.75 150.5, 288.1875 151.0625, 293.75 153.125" />
  <path stroke="black" stroke-width="0.78125" fill="none" d="M293.75 153.125 C 293.75 160.9375, 293.75 164.0625, 293.75 168.75" />
  <path stroke="black" stroke-width="0.78125" fill="none" d="M293.75 168.75 C 291.25 171.25, 288.125 174.375, 286.0625 176.4375" />
  <path stroke="black" stroke-width="0.78125" fill="none" d="M282.1875 155.625 C 286.125 154.25, 289.125 154.625, 292.9375 156.75" />
  <path stroke="black" stroke-width="0.78125" fill="none" d="M283.75 162.1875 C 287.5 159.875, 289.6875 159.5625, 293.0625 160.875" />
  <path stroke="black" stroke-width="0.78125" fill="none" d="M284.25 168.625 C 287.5 164.75, 288.875 164.5, 293.0625 164.8125" />
  <path stroke="black" stroke-width="0.78125" fill="none" d="M290.6875 173.875 C 291.5625 175.0, 292.5 175.9375, 293.125 176.1875" />
  <path stroke="black" stroke-width="0.78125" fill="none" d="M288.8125 175.75 C 290.0 178.125, 290.9375 179.0625, 293.25 179.6875" />
  <path stroke="black" stroke-width="0.78125" fill="none" d="M251.875 185.1875 C 254.6875 177.8125, 258.4375 174.6875, 262.625 172.75" />
  <path stroke="black" stroke-width="0.78125" fill="none" d="M254.9375 188.25 C 258.75 181.25, 260.625 179.375, 265.0 176.5625" />
  <path stroke="black" stroke-width="0.78125" fill="none" d="M258.875 192.1875 C 261.875 185.0, 264.375 182.5, 268.75 179.9375" />
  <path stroke="black" stroke-width="0.78125" fill="none" d="M261.125 196.0625 C 266.25 187.5, 268.75 185.0, 272.5 182.375" />
  <path stroke="black" stroke-width="0.78125" fill="none" d="M265.8125 158.875 C 267.1875 157.6875, 267.8125 157.0625, 268.625 156.25" />
  <path stroke="black" stroke-width="0.78125" fill="none" d="M265.8125 158.875 C 265.125 155.625, 265.125 152.5, 265.8125 148.8125" />
  <path stroke="black" stroke-width="0.78125" fill="none" d="M265.8125 148.8125 C 267.8125 149.25, 268.25 153.0, 268.625 156.25" />
  <path stroke="black" stroke-width="0.78125" fill="none" d="M270.625 155.125 C 271.875 154.375, 273.4375 153.4375, 274.1875 153.0" />
  <path stroke="black" stroke-width="0.78125" fill="none" d="M270.625 155.125 C 269.375 150.3125, 269.375 149.375, 269.5 147.1875" />
  <path stroke="black" stroke-width="0.78125" fill="none" d="M269.5 147.1875 C 271.875 149.6875, 273.25 151.25, 274.1875 153.0" />
  <path stroke="black" stroke-width="0.5524271728019903" fill="none" d="M312.0625 143.1875 C 294.84375 151.40625, 291.5 150.375, 270.71875 140.84375" />
  <path stroke="black" stroke-width="0.5524271728019903" fill="none" d="M277.125 150.125 C 272.6875 144.1875, 269.0 141.375, 262.5 137.5" />
  <path stroke="black" stroke-width="0.5524271728019903" fill="none" d="M293.75 153.125 C 288.1875 151.0625, 283.75 150.5, 277.125 150.125" />
  <path stroke="black" stroke-width="0.5524271728019903" fill="none" d="M293.75 168.75 C 293.75 161.875, 293.75 157.8125, 293.75 153.125" />
  <path stroke="black" stroke-width="0.5524271728019903" fill="none" d="M309.375 168.75 C 303.125 168.75, 299.375 168.75, 293.75 168.75" />
  <path stroke="black" stroke-width="0.5524271728019903" fill="none" d="M309.375 168.75 C 311.4375 163.1875, 312.0 158.75, 312.375 152.125" />
  <path stroke="black" stroke-width="0.5524271728019903" fill="none" d="M312.375 152.125 C 303.125 155.9375, 301.5625 155.9375, 293.75 153.125" />
  <path stroke="black" stroke-width="0.5524271728019903" fill="none" d="M312.375 152.125 C 318.3125 147.6875, 321.125 144.0, 325.0 137.5" />
  <path stroke="black" stroke-width="0.5524271728019903" fill="none" d="M325.0 137.5 C 319.8125 136.1875, 316.5625 135.75, 311.375 136.5" />
  <path stroke="black" stroke-width="0.5524271728019903" fill="none" d="M311.375 136.5 C 302.5625 136.9375, 303.375 144.625, 293.75 145.1875" />
  <path stroke="black" stroke-width="0.5524271728019903" fill="none" d="M293.75 145.1875 C 292.1875 145.3125, 289.0625 145.3125, 285.9375 145.3125" />
  <path stroke="black" stroke-width="0.5524271728019903" fill="none" d="M285.9375 145.3125 C 282.125 143.5625, 279.625 141.625, 276.125 138.5" />
  <path stroke="black" stroke-width="0.5524271728019903" fill="none" d="M276.125 138.5 C 270.9375 139.25, 267.6875 138.8125, 262.5 137.5" />
  <path stroke="black" stroke-width="0.5524271728019903" fill="none" d="M311.375 136.5 C 307.875 133.375, 305.375 131.4375, 301.5625 129.6875" />
  <path stroke="black" stroke-width="0.5524271728019903" fill="none" d="M301.5625 129.6875 C 297.65625 133.59375, 296.09375 135.15625, 293.75 137.5" />
  <path stroke="black" stroke-width="0.5524271728019903" fill="none" d="M293.75 137.5 C 293.75 140.0, 293.75 143.125, 293.75 145.1875" />
  <path stroke="black" stroke-width="0.5524271728019903" fill="none" d="M306.09375 136.71875 C 304.8125 134.0625, 303.125 132.75, 300.15625 131.90625" />
  <path stroke="black" stroke-width="0.5524271728019903" fill="none" d="M302.03125 139.21875 C 301.3125 136.1875, 300.375 134.9375, 298.03125 133.90625" />
  <path stroke="black" stroke-width="0.5524271728019903" fill="none" d="M298.5625 142.1875 C 298.875 138.625, 298.3125 137.8125, 296.0625 135.875" />
  <path stroke="black" stroke-width="0.5524271728019903" fill="none" d="M292.71875 141.59375 C 291.71875 141.71875, 290.78125 141.71875, 290.34375 141.53125" />
  <path stroke="black" stroke-width="0.5524271728019903" fill="none" d="M292.71875 143.46875 C 290.9375 144.0625, 290.0 144.0625, 288.53125 143.21875" />
  <path stroke="black" stroke-width="0.5524271728019903" fill="none" d="M306.46875 166.65625 C 308.75 161.5625, 308.4375 158.125, 307.3125 155.0625" />
  <path stroke="black" stroke-width="0.5524271728019903" fill="none" d="M303.40625 166.65625 C 305.0 161.25, 305.0 159.375, 304.21875 155.78125" />
  <path stroke="black" stroke-width="0.5524271728019903" fill="none" d="M299.46875 166.65625 C 301.5625 161.5625, 301.5625 159.0625, 300.65625 155.59375" />
  <path stroke="black" stroke-width="0.5524271728019903" fill="none" d="M296.40625 167.46875 C 298.125 160.625, 298.125 158.125, 297.5625 154.9375" />
  <path stroke="black" stroke-width="0.5524271728019903" fill="none" d="M312.65625 146.53125 C 312.5625 145.25, 312.5625 144.625, 312.5625 143.8125" />
  <path stroke="black" stroke-width="0.5524271728019903" fill="none" d="M312.65625 146.53125 C 314.625 145.25, 316.1875 143.6875, 317.6875 141.5" />
  <path stroke="black" stroke-width="0.5524271728019903" fill="none" d="M317.6875 141.5 C 316.46875 140.71875, 314.375 142.375, 312.5625 143.8125" />
  <path stroke="black" stroke-width="0.5524271728019903" fill="none" d="M312.125 142.25 C 311.875 141.25, 311.5625 140.0, 311.40625 139.40625" />
  <path stroke="black" stroke-width="0.5524271728019903" fill="none" d="M312.125 142.25 C 315.15625 140.46875, 315.625 140.0, 316.65625 138.84375" />
  <path stroke="black" stroke-width="0.5524271728019903" fill="none" d="M316.65625 138.84375 C 314.21875 138.90625, 312.75 139.0, 311.40625 139.40625" />
  <path stroke="black" stroke-width="0.5524271728019903" fill="none" d="M319.3125 187.0625 C 311.09375 169.84375, 312.125 166.5, 321.65625 145.71875" />
  <path stroke="black" stroke-width="0.5524271728019903" fill="none" d="M312.375 152.125 C 318.3125 147.6875, 321.125 144.0, 325.0 137.5" />
  <path stroke="black" stroke-width="0.5524271728019903" fill="none" d="M309.375 168.75 C 311.4375 163.1875, 312.0 158.75, 312.375 152.125" />
  <path stroke="black" stroke-width="0.5524271728019903" fill="none" d="M293.75 168.75 C 300.625 168.75, 304.6875 168.75, 309.375 168.75" />
  <path stroke="black" stroke-width="0.5524271728019903" fill="none" d="M293.75 184.375 C 293.75 178.125, 293.75 174.375, 293.75 168.75" />
  <path stroke="black" stroke-width="0.5524271728019903" fill="none" d="M293.75 184.375 C 299.3125 186.4375, 303.75 187.0, 310.375 187.375" />
  <path stroke="black" stroke-width="0.5524271728019903" fill="none" d="M310.375 187.375 C 306.5625 178.125, 306.5625 176.5625, 309.375 168.75" />
  <path stroke="black" stroke-width="0.5524271728019903" fill="none" d="M310.375 187.375 C 314.8125 193.3125, 318.5 196.125, 325.0 200.0" />
  <path stroke="black" stroke-width="0.5524271728019903" fill="none" d="M325.0 200.0 C 326.3125 194.8125, 326.75 191.5625, 326.0 186.375" />
  <path stroke="black" stroke-width="0.5524271728019903" fill="none" d="M326.0 186.375 C 325.5625 177.5625, 317.875 178.375, 317.3125 168.75" />
  <path stroke="black" stroke-width="0.5524271728019903" fill="none" d="M317.3125 168.75 C 317.1875 167.1875, 317.1875 164.0625, 317.1875 160.9375" />
  <path stroke="black" stroke-width="0.5524271728019903" fill="none" d="M317.1875 160.9375 C 318.9375 157.125, 320.875 154.625, 324.0 151.125" />
  <path stroke="black" stroke-width="0.5524271728019903" fill="none" d="M324.0 151.125 C 323.25 145.9375, 323.6875 142.6875, 325.0 137.5" />
  <path stroke="black" stroke-width="0.5524271728019903" fill="none" d="M326.0 186.375 C 329.125 182.875, 331.0625 180.375, 332.8125 176.5625" />
  <path stroke="black" stroke-width="0.5524271728019903" fill="none" d="M332.8125 176.5625 C 328.90625 172.65625, 327.34375 171.09375, 325.0 168.75" />
  <path stroke="black" stroke-width="0.5524271728019903" fill="none" d="M325.0 168.75 C 322.5 168.75, 319.375 168.75, 317.3125 168.75" />
  <path stroke="black" stroke-width="0.5524271728019903" fill="none" d="M325.78125 181.09375 C 328.4375 179.8125, 329.75 178.125, 330.59375 175.15625" />
  <path stroke="black" stroke-width="0.5524271728019903" fill="none" d="M323.28125 177.03125 C 326.3125 176.3125, 327.5625 175.375, 328.59375 173.03125" />
  <path stroke="black" stroke-width="0.5524271728019903" fill="none" d="M320.3125 173.5625 C 323.875 173.875, 324.6875 173.3125, 326.625 171.0625" />
  <path stroke="black" stroke-width="0.5524271728019903" fill="none" d="M320.90625 167.71875 C 320.78125 166.71875, 320.78125 165.78125, 320.96875 165.34375" />
  <path stroke="black" stroke-width="0.5524271728019903" fill="none" d="M319.03125 167.71875 C 318.4375 165.9375, 318.4375 165.0, 319.28125 163.53125" />
  <path stroke="black" stroke-width="0.5524271728019903" fill="none" d="M295.84375 181.46875 C 300.9375 183.75, 304.375 183.4375, 307.4375 182.3125" />
  <path stroke="black" stroke-width="0.5524271728019903" fill="none" d="M295.84375 178.40625 C 301.25 180.0, 303.125 180.0, 306.71875 179.21875" />
  <path stroke="black" stroke-width="0.5524271728019903" fill="none" d="M295.84375 174.46875 C 300.9375 176.5625, 303.4375 176.5625, 306.90625 175.65625" />
  <path stroke="black" stroke-width="0.5524271728019903" fill="none" d="M295.03125 171.40625 C 301.875 173.125, 304.375 173.125, 307.5625 172.5625" />
  <path stroke="black" stroke-width="0.5524271728019903" fill="none" d="M315.96875 187.65625 C 317.25 187.5625, 317.875 187.5625, 318.6875 187.5625" />
  <path stroke="black" stroke-width="0.5524271728019903" fill="none" d="M315.96875 187.65625 C 317.25 189.625, 318.8125 191.1875, 321.0 192.6875" />
  <path stroke="black" stroke-width="0.5524271728019903" fill="none" d="M321.0 192.6875 C 321.78125 191.46875, 320.125 189.375, 318.6875 187.5625" />
  <path stroke="black" stroke-width="0.5524271728019903" fill="none" d="M320.25 187.125 C 321.25 186.875, 322.5 186.5625, 323.09375 186.40625" />
  <path stroke="black" stroke-width="0.5524271728019903" fill="none" d="M320.25 187.125 C 322.03125 190.15625, 322.5 190.625, 323.65625 191.65625" />
  <path stroke="black" stroke-width="0.5524271728019903" fill="none" d="M323.65625 191.65625 C 323.59375 189.21875, 323.5 187.75, 323.09375 186.40625" />
  <path stroke="black" stroke-width="0.78125" fill="none" d="M192.75 306.375 C 183.75 280.9375, 179.375 278.625, 149.0625 267.375" />
  <path stroke="black" stroke-width="0.78125" fill="none" d="M164.75 264.5 C 154.375 266.0, 147.875 265.125, 137.5 262.5" />
  <path stroke="black" stroke-width="0.78125" fill="none" d="M184.375 278.125 C 176.75 274.625, 171.75 270.75, 164.75 264.5" />
  <path stroke="black" stroke-width="0.78125" fill="none" d="M200.0 262.5 C 193.125 269.375, 189.0625 273.4375, 184.375 278.125" />
  <path stroke="black" stroke-width="0.78125" fill="none" d="M215.625 278.125 C 209.375 271.875, 205.625 268.125, 200.0 262.5" />
  <path stroke="black" stroke-width="0.78125" fill="none" d="M215.625 278.125 C 212.125 285.75, 208.25 290.75, 202.0 297.75" />
  <path stroke="black" stroke-width="0.78125" fill="none" d="M202.0 297.75 C 196.5625 284.6875, 195.0 283.125, 184.375 278.125" />
  <path stroke="black" stroke-width="0.78125" fill="none" d="M202.0 297.75 C 203.5 308.125, 202.625 314.625, 200.0 325.0" />
  <path stroke="black" stroke-width="0.78125" fill="none" d="M200.0 325.0 C 193.5 321.125, 189.8125 318.3125, 185.375 312.375" />
  <path stroke="black" stroke-width="0.78125" fill="none" d="M185.375 312.375 C 177.0 303.125, 185.5 296.25, 176.4375 286.0625" />
  <path stroke="black" stroke-width="0.78125" fill="none" d="M176.4375 286.0625 C 175.0 284.375, 171.875 281.25, 168.75 278.125" />
  <path stroke="black" stroke-width="0.78125" fill="none" d="M168.75 278.125 C 163.1875 276.0625, 158.75 275.5, 152.125 275.125" />
  <path stroke="black" stroke-width="0.78125" fill="none" d="M152.125 275.125 C 147.6875 269.1875, 144.0 266.375, 137.5 262.5" />
  <path stroke="black" stroke-width="0.78125" fill="none" d="M185.375 312.375 C 178.75 312.0, 174.3125 311.4375, 168.75 309.375" />
  <path stroke="black" stroke-width="0.78125" fill="none" d="M168.75 309.375 C 168.75 301.5625, 168.75 298.4375, 168.75 293.75" />
  <path stroke="black" stroke-width="0.78125" fill="none" d="M168.75 293.75 C 171.25 291.25, 174.375 288.125, 176.4375 286.0625" />
  <path stroke="black" stroke-width="0.78125" fill="none" d="M180.3125 306.875 C 176.375 308.25, 173.375 307.875, 169.5625 305.75" />
  <path stroke="black" stroke-width="0.78125" fill="none" d="M178.75 300.3125 C 175.0 302.625, 172.8125 302.9375, 169.4375 301.625" />
  <path stroke="black" stroke-width="0.78125" fill="none" d="M178.25 293.875 C 175.0 297.75, 173.625 298.0, 169.4375 297.6875" />
  <path stroke="black" stroke-width="0.78125" fill="none" d="M171.8125 288.625 C 170.9375 287.5, 170.0 286.5625, 169.375 286.3125" />
  <path stroke="black" stroke-width="0.78125" fill="none" d="M173.6875 286.75 C 172.5 284.375, 171.5625 283.4375, 169.25 282.8125" />
  <path stroke="black" stroke-width="0.78125" fill="none" d="M210.625 277.3125 C 207.8125 284.6875, 204.0625 287.8125, 199.875 289.75" />
  <path stroke="black" stroke-width="0.78125" fill="none" d="M207.5625 274.25 C 203.75 281.25, 201.875 283.125, 197.5 285.9375" />
  <path stroke="black" stroke-width="0.78125" fill="none" d="M203.625 270.3125 C 200.625 277.5, 198.125 280.0, 193.75 282.5625" />
  <path stroke="black" stroke-width="0.78125" fill="none" d="M201.375 266.4375 C 196.25 275.0, 193.75 277.5, 190.0 280.125" />
  <path stroke="black" stroke-width="0.78125" fill="none" d="M196.6875 303.625 C 195.3125 304.8125, 194.6875 305.4375, 193.875 306.25" />
  <path stroke="black" stroke-width="0.78125" fill="none" d="M196.6875 303.625 C 197.375 306.875, 197.375 310.0, 196.6875 313.6875" />
  <path stroke="black" stroke-width="0.78125" fill="none" d="M196.6875 313.6875 C 194.6875 313.25, 194.25 309.5, 193.875 306.25" />
  <path stroke="black" stroke-width="0.78125" fill="none" d="M191.875 307.375 C 190.625 308.125, 189.0625 309.0625, 188.3125 309.5" />
  <path stroke="black" stroke-width="0.78125" fill="none" d="M191.875 307.375 C 193.125 312.1875, 193.125 313.125, 193.0 315.3125" />
  <path stroke="black" stroke-width="0.78125" fill="none" d="M193.0 315.3125 C 190.625 312.8125, 189.25 311.25, 188.3125 309.5" />
  <path stroke="black" stroke-width="0.5524271728019903" fill="none" d="M150.4375 319.3125 C 167.65625 311.09375, 171.0 312.125, 191.78125 321.65625" />
  <path stroke="black" stroke-width="0.5524271728019903" fill="none" d="M185.375 312.375 C 189.8125 318.3125, 193.5 321.125, 200.0 325.0" />
  <path stroke="black" stroke-width="0.5524271728019903" fill="none" d="M168.75 309.375 C 174.3125 311.4375, 178.75 312.0, 185.375 312.375" />
  <path stroke="black" stroke-width="0.5524271728019903" fill="none" d="M168.75 293.75 C 168.75 300.625, 168.75 304.6875, 168.75 309.375" />
  <path stroke="black" stroke-width="0.5524271728019903" fill="none" d="M153.125 293.75 C 159.375 293.75, 163.125 293.75, 168.75 293.75" />
  <path stroke="black" stroke-width="0.5524271728019903" fill="none" d="M153.125 293.75 C 151.0625 299.3125, 150.5 303.75, 150.125 310.375" />
  <path stroke="black" stroke-width="0.5524271728019903" fill="none" d="M150.125 310.375 C 159.375 306.5625, 160.9375 306.5625, 168.75 309.375" />
  <path stroke="black" stroke-width="0.5524271728019903" fill="none" d="M150.125 310.375 C 144.1875 314.8125, 141.375 318.5, 137.5 325.0" />
  <path stroke="black" stroke-width="0.5524271728019903" fill="none" d="M137.5 325.0 C 142.6875 326.3125, 145.9375 326.75, 151.125 326.0" />
  <path stroke="black" stroke-width="0.5524271728019903" fill="none" d="M151.125 326.0 C 159.9375 325.5625, 159.125 317.875, 168.75 317.3125" />
  <path stroke="black" stroke-width="0.5524271728019903" fill="none" d="M168.75 317.3125 C 170.3125 317.1875, 173.4375 317.1875, 176.5625 317.1875" />
  <path stroke="black" stroke-width="0.5524271728019903" fill="none" d="M176.5625 317.1875 C 180.375 318.9375, 182.875 320.875, 186.375 324.0" />
  <path stroke="black" stroke-width="0.5524271728019903" fill="none" d="M186.375 324.0 C 191.5625 323.25, 194.8125 323.6875, 200.0 325.0" />
  <path stroke="black" stroke-width="0.5524271728019903" fill="none" d="M151.125 326.0 C 154.625 329.125, 157.125 331.0625, 160.9375 332.8125" />
  <path stroke="black" stroke-width="0.5524271728019903" fill="none" d="M160.9375 332.8125 C 164.84375 328.90625, 166.40625 327.34375, 168.75 325.0" />
  <path stroke="black" stroke-width="0.5524271728019903" fill="none" d="M168.75 325.0 C 168.75 322.5, 168.75 319.375, 168.75 317.3125" />
  <path stroke="black" stroke-width="0.5524271728019903" fill="none" d="M156.40625 325.78125 C 157.6875 328.4375, 159.375 329.75, 162.34375 330.59375" />
  <path stroke="black" stroke-width="0.5524271728019903" fill="none" d="M160.46875 323.28125 C 161.1875 326.3125, 162.125 327.5625, 164.46875 328.59375" />
  <path stroke="black" stroke-width="0.5524271728019903" fill="none" d="M163.9375 320.3125 C 163.625 323.875, 164.1875 324.6875, 166.4375 326.625" />
  <path stroke="black" stroke-width="0.5524271728019903" fill="none" d="M169.78125 320.90625 C 170.78125 320.78125, 171.71875 320.78125, 172.15625 320.96875" />
  <path stroke="black" stroke-width="0.5524271728019903" fill="none" d="M169.78125 319.03125 C 171.5625 318.4375, 172.5 318.4375, 173.96875 319.28125" />
  <path stroke="black" stroke-width="0.5524271728019903" fill="none" d="M156.03125 295.84375 C 153.75 300.9375, 154.0625 304.375, 155.1875 307.4375" />
  <path stroke="black" stroke-width="0.5524271728019903" fill="none" d="M159.09375 295.84375 C 157.5 301.25, 157.5 303.125, 158.28125 306.71875" />
  <path stroke="black" stroke-width="0.5524271728019903" fill="none" d="M163.03125 295.84375 C 160.9375 300.9375, 160.9375 303.4375, 161.84375 306.90625" />
  <path stroke="black" stroke-width="0.5524271728019903" fill="none" d="M166.09375 295.03125 C 164.375 301.875, 164.375 304.375, 164.9375 307.5625" />
  <path stroke="black" stroke-width="0.5524271728019903" fill="none" d="M149.84375 315.96875 C 149.9375 317.25, 149.9375 317.875, 149.9375 318.6875" />
  <path stroke="black" stroke-width="0.5524271728019903" fill="none" d="M149.84375 315.96875 C 147.875 317.25, 146.3125 318.8125, 144.8125 321.0" />
  <path stroke="black" stroke-width="0.5524271728019903" fill="none" d="M144.8125 321.0 C 146.03125 321.78125, 148.125 320.125, 149.9375 318.6875" />
  <path stroke="black" stroke-width="0.5524271728019903" fill="none" d="M150.375 320.25 C 150.625 321.25, 150.9375 322.5, 151.09375 323.09375" />
  <path stroke="black" stroke-width="0.5524271728019903" fill="none" d="M150.375 320.25 C 147.34375 322.03125, 146.875 322.5, 145.84375 323.65625" />
  <path stroke="black" stroke-width="0.5524271728019903" fill="none" d="M145.84375 323.65625 C 148.28125 323.59375, 149.75 323.5, 151.09375 323.09375" />
  <path stroke="black" stroke-width="0.5524271728019903" fill="none" d="M143.1875 275.4375 C 151.40625 292.65625, 150.375 296.0, 140.84375 316.78125" />
  <path stroke="black" stroke-width="0.5524271728019903" fill="none" d="M150.125 310.375 C 144.1875 314.8125, 141.375 318.5, 137.5 325.0" />
  <path stroke="black" stroke-width="0.5524271728019903" fill="none" d="M153.125 293.75 C 151.0625 299.3125, 150.5 303.75, 150.125 310.375" />
  <path stroke="black" stroke-width="0.5524271728019903" fill="none" d="M168.75 293.75 C 161.875 293.75, 157.8125 293.75, 153.125 293.75" />
  <path stroke="black" stroke-width="0.5524271728019903" fill="none" d="M168.75 278.125 C 168.75 284.375, 168.75 288.125, 168.75 293.75" />
  <path stroke="black" stroke-width="0.5524271728019903" fill="none" d="M168.75 278.125 C 163.1875 276.0625, 158.75 275.5, 152.125 275.125" />
  <path stroke="black" stroke-width="0.5524271728019903" fill="none" d="M152.125 275.125 C 155.9375 284.375, 155.9375 285.9375, 153.125 293.75" />
  <path stroke="black" stroke-width="0.5524271728019903" fill="none" d="M152.125 275.125 C 147.6875 269.1875, 144.0 266.375, 137.5 262.5" />
  <path stroke="black" stroke-width="0.5524271728019903" fill="none" d="M137.5 262.5 C 136.1875 267.6875, 135.75 270.9375, 136.5 276.125" />
  <path stroke="black" stroke-width="0.5524271728019903" fill="none" d="M136.5 276.125 C 136.9375 284.9375, 144.625 284.125, 145.1875 293.75" />
  <path stroke="black" stroke-width="0.5524271728019903" fill="none" d="M145.1875 293.75 C 145.3125 295.3125, 145.3125 298.4375, 145.3125 301.5625" />
  <path stroke="black" stroke-width="0.5524271728019903" fill="none" d="M145.3125 301.5625 C 143.5625 305.375, 141.625 307.875, 138.5 311.375" />
  <path stroke="black" stroke-width="0.5524271728019903" fill="none" d="M138.5 311.375 C 139.25 316.5625, 138.8125 319.8125, 137.5 325.0" />
  <path stroke="black" stroke-width="0.5524271728019903" fill="none" d="M136.5 276.125 C 133.375 279.625, 131.4375 282.125, 129.6875 285.9375" />
  <path stroke="black" stroke-width="0.5524271728019903" fill="none" d="M129.6875 285.9375 C 133.59375 289.84375, 135.15625 291.40625, 137.5 293.75" />
  <path stroke="black" stroke-width="0.5524271728019903" fill="none" d="M137.5 293.75 C 140.0 293.75, 143.125 293.75, 145.1875 293.75" />
  <path stroke="black" stroke-width="0.5524271728019903" fill="none" d="M136.71875 281.40625 C 134.0625 282.6875, 132.75 284.375, 131.90625 287.34375" />
  <path stroke="black" stroke-width="0.5524271728019903" fill="none" d="M139.21875 285.46875 C 136.1875 286.1875, 134.9375 287.125, 133.90625 289.46875" />
  <path stroke="black" stroke-width="0.5524271728019903" fill="none" d="M142.1875 288.9375 C 138.625 288.625, 137.8125 289.1875, 135.875 291.4375" />
  <path stroke="black" stroke-width="0.5524271728019903" fill="none" d="M141.59375 294.78125 C 141.71875 295.78125, 141.71875 296.71875, 141.53125 297.15625" />
  <path stroke="black" stroke-width="0.5524271728019903" fill="none" d="M143.46875 294.78125 C 144.0625 296.5625, 144.0625 297.5, 143.21875 298.96875" />
  <path stroke="black" stroke-width="0.5524271728019903" fill="none" d="M166.65625 281.03125 C 161.5625 278.75, 158.125 279.0625, 155.0625 280.1875" />
  <path stroke="black" stroke-width="0.5524271728019903" fill="none" d="M166.65625 284.09375 C 161.25 282.5, 159.375 282.5, 155.78125 283.28125" />
  <path stroke="black" stroke-width="0.5524271728019903" fill="none" d="M166.65625 288.03125 C 161.5625 285.9375, 159.0625 285.9375, 155.59375 286.84375" />
  <path stroke="black" stroke-width="0.5524271728019903" fill="none" d="M167.46875 291.09375 C 160.625 289.375, 158.125 289.375, 154.9375 289.9375" />
  <path stroke="black" stroke-width="0.5524271728019903" fill="none" d="M146.53125 274.84375 C 145.25 274.9375, 144.625 274.9375, 143.8125 274.9375" />
  <path stroke="black" stroke-width="0.5524271728019903" fill="none" d="M146.53125 274.84375 C 145.25 272.875, 143.6875 271.3125, 141.5 269.8125" />
  <path stroke="black" stroke-width="0.5524271728019903" fill="none" d="M141.5 269.8125 C 140.71875 271.03125, 142.375 273.125, 143.8125 274.9375" />
  <path stroke="black" stroke-width="0.5524271728019903" fill="none" d="M142.25 275.375 C 141.25 275.625, 140.0 275.9375, 139.40625 276.09375" />
  <path stroke="black" stroke-width="0.5524271728019903" fill="none" d="M142.25 275.375 C 140.46875 272.34375, 140.0 271.875, 138.84375 270.84375" />
  <path stroke="black" stroke-width="0.5524271728019903" fill="none" d="M138.84375 270.84375 C 138.90625 273.28125, 139.0 274.75, 139.40625 276.09375" />
  <path stroke="black" stroke-width="0.78125" fill="none" d="M156.125 255.25 C 181.5625 246.25, 183.875 241.875, 195.125 211.5625" />
  <path stroke="black" stroke-width="0.78125" fill="none" d="M198.0 227.25 C 196.5 216.875, 197.375 210.375, 200.0 200.0" />
  <path stroke="black" stroke-width="0.78125" fill="none" d="M184.375 246.875 C 187.875 239.25, 191.75 234.25, 198.0 227.25" />
  <path stroke="black" stroke-width="0.78125" fill="none" d="M200.0 262.5 C 193.125 255.625, 189.0625 251.5625, 184.375 246.875" />
  <path stroke="black" stroke-width="0.78125" fill="none" d="M184.375 278.125 C 190.625 271.875, 194.375 268.125, 200.0 262.5" />
  <path stroke="black" stroke-width="0.78125" fill="none" d="M184.375 278.125 C 176.75 274.625, 171.75 270.75, 164.75 264.5" />
  <path stroke="black" stroke-width="0.78125" fill="none" d="M164.75 264.5 C 177.8125 259.0625, 179.375 257.5, 184.375 246.875" />
  <path stroke="black" stroke-width="0.78125" fill="none" d="M164.75 264.5 C 154.375 266.0, 147.875 265.125, 137.5 262.5" />
  <path stroke="black" stroke-width="0.78125" fill="none" d="M137.5 262.5 C 141.375 256.0, 144.1875 252.3125, 150.125 247.875" />
  <path stroke="black" stroke-width="0.78125" fill="none" d="M150.125 247.875 C 159.375 239.5, 166.25 248.0, 176.4375 238.9375" />
  <path stroke="black" stroke-width="0.78125" fill="none" d="M176.4375 238.9375 C 178.125 237.5, 181.25 234.375, 184.375 231.25" />
  <path stroke="black" stroke-width="0.78125" fill="none" d="M184.375 231.25 C 186.4375 225.6875, 187.0 221.25, 187.375 214.625" />
  <path stroke="black" stroke-width="0.78125" fill="none" d="M187.375 214.625 C 193.3125 210.1875, 196.125 206.5, 200.0 200.0" />
  <path stroke="black" stroke-width="0.78125" fill="none" d="M150.125 247.875 C 150.5 241.25, 151.0625 236.8125, 153.125 231.25" />
  <path stroke="black" stroke-width="0.78125" fill="none" d="M153.125 231.25 C 160.9375 231.25, 164.0625 231.25, 168.75 231.25" />
  <path stroke="black" stroke-width="0.78125" fill="none" d="M168.75 231.25 C 171.25 233.75, 174.375 236.875, 176.4375 238.9375" />
  <path stroke="black" stroke-width="0.78125" fill="none" d="M155.625 242.8125 C 154.25 238.875, 154.625 235.875, 156.75 232.0625" />
  <path stroke="black" stroke-width="0.78125" fill="none" d="M162.1875 241.25 C 159.875 237.5, 159.5625 235.3125, 160.875 231.9375" />
  <path stroke="black" stroke-width="0.78125" fill="none" d="M168.625 240.75 C 164.75 237.5, 164.5 236.125, 164.8125 231.9375" />
  <path stroke="black" stroke-width="0.78125" fill="none" d="M173.875 234.3125 C 175.0 233.4375, 175.9375 232.5, 176.1875 231.875" />
  <path stroke="black" stroke-width="0.78125" fill="none" d="M175.75 236.1875 C 178.125 235.0, 179.0625 234.0625, 179.6875 231.75" />
  <path stroke="black" stroke-width="0.78125" fill="none" d="M185.1875 273.125 C 177.8125 270.3125, 174.6875 266.5625, 172.75 262.375" />
  <path stroke="black" stroke-width="0.78125" fill="none" d="M188.25 270.0625 C 181.25 266.25, 179.375 264.375, 176.5625 260.0" />
  <path stroke="black" stroke-width="0.78125" fill="none" d="M192.1875 266.125 C 185.0 263.125, 182.5 260.625, 179.9375 256.25" />
  <path stroke="black" stroke-width="0.78125" fill="none" d="M196.0625 263.875 C 187.5 258.75, 185.0 256.25, 182.375 252.5" />
  <path stroke="black" stroke-width="0.78125" fill="none" d="M158.875 259.1875 C 157.6875 257.8125, 157.0625 257.1875, 156.25 256.375" />
  <path stroke="black" stroke-width="0.78125" fill="none" d="M158.875 259.1875 C 155.625 259.875, 152.5 259.875, 148.8125 259.1875" />
  <path stroke="black" stroke-width="0.78125" fill="none" d="M148.8125 259.1875 C 149.25 257.1875, 153.0 256.75, 156.25 256.375" />
  <path stroke="black" stroke-width="0.78125" fill="none" d="M155.125 254.375 C 154.375 253.125, 153.4375 251.5625, 153.0 250.8125" />
  <path stroke="black" stroke-width="0.78125" fill="none" d="M155.125 254.375 C 150.3125 255.625, 149.375 255.625, 147.1875 255.5" />
  <path stroke="black" stroke-width="0.78125" fill="none" d="M147.1875 255.5 C 149.6875 253.125, 151.25 251.75, 153.0 250.8125" />
  <path stroke="black" stroke-width="0.5524271728019903" fill="none" d="M143.1875 212.9375 C 151.40625 230.15625, 150.375 233.5, 140.84375 254.28125" />
  <path stroke="black" stroke-width="0.5524271728019903" fill="none" d="M150.125 247.875 C 144.1875 252.3125, 141.375 256.0, 137.5 262.5" />
  <path stroke="black" stroke-width="0.5524271728019903" fill="none" d="M153.125 231.25 C 151.0625 236.8125, 150.5 241.25, 150.125 247.875" />
  <path stroke="black" stroke-width="0.5524271728019903" fill="none" d="M168.75 231.25 C 161.875 231.25, 157.8125 231.25, 153.125 231.25" />
  <path stroke="black" stroke-width="0.5524271728019903" fill="none" d="M168.75 215.625 C 168.75 221.875, 168.75 225.625, 168.75 231.25" />
  <path stroke="black" stroke-width="0.5524271728019903" fill="none" d="M168.75 215.625 C 163.1875 213.5625, 158.75 213.0, 152.125 212.625" />
  <path stroke="black" stroke-width="0.5524271728019903" fill="none" d="M152.125 212.625 C 155.9375 221.875, 155.9375 223.4375, 153.125 231.25" />
  <path stroke="black" stroke-width="0.5524271728019903" fill="none" d="M152.125 212.625 C 147.6875 206.6875, 144.0 203.875, 137.5 200.0" />
  <path stroke="black" stroke-width="0.5524271728019903" fill="none" d="M137.5 200.0 C 136.1875 205.1875, 135.75 208.4375, 136.5 213.625" />
  <path stroke="black" stroke-width="0.5524271728019903" fill="none" d="M136.5 213.625 C 136.9375 222.4375, 144.625 221.625, 145.1875 231.25" />
  <path stroke="black" stroke-width="0.5524271728019903" fill="none" d="M145.1875 231.25 C 145.3125 232.8125, 145.3125 235.9375, 145.3125 239.0625" />
  <path stroke="black" stroke-width="0.5524271728019903" fill="none" d="M145.3125 239.0625 C 143.5625 242.875, 141.625 245.375, 138.5 248.875" />
  <path stroke="black" stroke-width="0.5524271728019903" fill="none" d="M138.5 248.875 C 139.25 254.0625, 138.8125 257.3125, 137.5 262.5" />
  <path stroke="black" stroke-width="0.5524271728019903" fill="none" d="M136.5 213.625 C 133.375 217.125, 131.4375 219.625, 129.6875 223.4375" />
  <path stroke="black" stroke-width="0.5524271728019903" fill="none" d="M129.6875 223.4375 C 133.59375 227.34375, 135.15625 228.90625, 137.5 231.25" />
  <path stroke="black" stroke-width="0.5524271728019903" fill="none" d="M137.5 231.25 C 140.0 231.25, 143.125 231.25, 145.1875 231.25" />
  <path stroke="black" stroke-width="0.5524271728019903" fill="none" d="M136.71875 218.90625 C 134.0625 220.1875, 132.75 221.875, 131.90625 224.84375" />
  <path stroke="black" stroke-width="0.5524271728019903" fill="none" d="M139.21875 222.96875 C 136.1875 223.6875, 134.9375 224.625, 133.90625 226.96875" />
  <path stroke="black" stroke-width="0.5524271728019903" fill="none" d="M142.1875 226.4375 C 138.625 226.125, 137.8125 226.6875, 135.875 228.9375" />
  <path stroke="black" stroke-width="0.5524271728019903" fill="none" d="M141.59375 232.28125 C 141.71875 233.28125, 141.71875 234.21875, 141.53125 234.65625" />
  <path stroke="black" stroke-width="0.5524271728019903" fill="none" d="M143.46875 232.28125 C 144.0625 234.0625, 144.0625 235.0, 143.21875 236.46875" />
  <path stroke="black" stroke-width="0.5524271728019903" fill="none" d="M166.65625 218.53125 C 161.5625 216.25, 158.125 216.5625, 155.0625 217.6875" />
  <path stroke="black" stroke-width="0.5524271728019903" fill="none" d="M166.65625 221.59375 C 161.25 220.0, 159.375 220.0, 155.78125 220.78125" />
  <path stroke="black" stroke-width="0.5524271728019903" fill="none" d="M166.65625 225.53125 C 161.5625 223.4375, 159.0625 223.4375, 155.59375 224.34375" />
  <path stroke="black" stroke-width="0.5524271728019903" fill="none" d="M167.46875 228.59375 C 160.625 226.875, 158.125 226.875, 154.9375 227.4375" />
  <path stroke="black" stroke-width="0.5524271728019903" fill="none" d="M146.53125 212.34375 C 145.25 212.4375, 144.625 212.4375, 143.8125 212.4375" />
  <path stroke="black" stroke-width="0.5524271728019903" fill="none" d="M146.53125 212.34375 C 145.25 210.375, 143.6875 208.8125, 141.5 207.3125" />
  <path stroke="black" stroke-width="0.5524271728019903" fill="none" d="M141.5 207.3125 C 140.71875 208.53125, 142.375 210.625, 143.8125 212.4375" />
  <path stroke="black" stroke-width="0.5524271728019903" fill="none" d="M142.25 212.875 C 141.25 213.125, 140.0 213.4375, 139.40625 213.59375" />
  <path stroke="black" stroke-width="0.5524271728019903" fill="none" d="M142.25 212.875 C 140.46875 209.84375, 140.0 209.375, 138.84375 208.34375" />
  <path stroke="black" stroke-width="0.5524271728019903" fill="none" d="M138.84375 208.34375 C 138.90625 210.78125, 139.0 212.25, 139.40625 213.59375" />
  <path stroke="black" stroke-width="0.5524271728019903" fill="none" d="M187.0625 205.6875 C 169.84375 213.90625, 166.5 212.875, 145.71875 203.34375" />
  <path stroke="black" stroke-width="0.5524271728019903" fill="none" d="M152.125 212.625 C 147.6875 206.6875, 144.0 203.875, 137.5 200.0" />
  <path stroke="black" stroke-width="0.5524271728019903" fill="none" d="M168.75 215.625 C 163.1875 213.5625, 158.75 213.0, 152.125 212.625" />
  <path stroke="black" stroke-width="0.5524271728019903" fill="none" d="M168.75 231.25 C 168.75 224.375, 168.75 220.3125, 168.75 215.625" />
  <path stroke="black" stroke-width="0.5524271728019903" fill="none" d="M184.375 231.25 C 178.125 231.25, 174.375 231.25, 168.75 231.25" />
  <path stroke="black" stroke-width="0.5524271728019903" fill="none" d="M184.375 231.25 C 186.4375 225.6875, 187.0 221.25, 187.375 214.625" />
  <path stroke="black" stroke-width="0.5524271728019903" fill="none" d="M187.375 214.625 C 178.125 218.4375, 176.5625 218.4375, 168.75 215.625" />
  <path stroke="black" stroke-width="0.5524271728019903" fill="none" d="M187.375 214.625 C 193.3125 210.1875, 196.125 206.5, 200.0 200.0" />
  <path stroke="black" stroke-width="0.5524271728019903" fill="none" d="M200.0 200.0 C 194.8125 198.6875, 191.5625 198.25, 186.375 199.0" />
  <path stroke="black" stroke-width="0.5524271728019903" fill="none" d="M186.375 199.0 C 177.5625 199.4375, 178.375 207.125, 168.75 207.6875" />
  <path stroke="black" stroke-width="0.5524271728019903" fill="none" d="M168.75 207.6875 C 167.1875 207.8125, 164.0625 207.8125, 160.9375 207.8125" />
  <path stroke="black" stroke-width="0.5524271728019903" fill="none" d="M160.9375 207.8125 C 157.125 206.0625, 154.625 204.125, 151.125 201.0" />
  <path stroke="black" stroke-width="0.5524271728019903" fill="none" d="M151.125 201.0 C 145.9375 201.75, 142.6875 201.3125, 137.5 200.0" />
  <path stroke="black" stroke-width="0.5524271728019903" fill="none" d="M186.375 199.0 C 182.875 195.875, 180.375 193.9375, 176.5625 192.1875" />
  <path stroke="black" stroke-width="0.5524271728019903" fill="none" d="M176.5625 192.1875 C 172.65625 196.09375, 171.09375 197.65625, 168.75 200.0" />
  <path stroke="black" stroke-width="0.5524271728019903" fill="none" d="M168.75 200.0 C 168.75 202.5, 168.75 205.625, 168.75 207.6875" />
  <path stroke="black" stroke-width="0.5524271728019903" fill="none" d="M181.09375 199.21875 C 179.8125 196.5625, 178.125 195.25, 175.15625 194.40625" />
  <path stroke="black" stroke-width="0.5524271728019903" fill="none" d="M177.03125 201.71875 C 176.3125 198.6875, 175.375 197.4375, 173.03125 196.40625" />
  <path stroke="black" stroke-width="0.5524271728019903" fill="none" d="M173.5625 204.6875 C 173.875 201.125, 173.3125 200.3125, 171.0625 198.375" />
  <path stroke="black" stroke-width="0.5524271728019903" fill="none" d="M167.71875 204.09375 C 166.71875 204.21875, 165.78125 204.21875, 165.34375 204.03125" />
  <path stroke="black" stroke-width="0.5524271728019903" fill="none" d="M167.71875 205.96875 C 165.9375 206.5625, 165.0 206.5625, 163.53125 205.71875" />
  <path stroke="black" stroke-width="0.5524271728019903" fill="none" d="M181.46875 229.15625 C 183.75 224.0625, 183.4375 220.625, 182.3125 217.5625" />
  <path stroke="black" stroke-width="0.5524271728019903" fill="none" d="M178.40625 229.15625 C 180.0 223.75, 180.0 221.875, 179.21875 218.28125" />
  <path stroke="black" stroke-width="0.5524271728019903" fill="none" d="M174.46875 229.15625 C 176.5625 224.0625, 176.5625 221.5625, 175.65625 218.09375" />
  <path stroke="black" stroke-width="0.5524271728019903" fill="none" d="M171.40625 229.96875 C 173.125 223.125, 173.125 220.625, 172.5625 217.4375" />
  <path stroke="black" stroke-width="0.5524271728019903" fill="none" d="M187.65625 209.03125 C 187.5625 207.75, 187.5625 207.125, 187.5625 206.3125" />
  <path stroke="black" stroke-width="0.5524271728019903" fill="none" d="M187.65625 209.03125 C 189.625 207.75, 191.1875 206.1875, 192.6875 204.0" />
  <path stroke="black" stroke-width="0.5524271728019903" fill="none" d="M192.6875 204.0 C 191.46875 203.21875, 189.375 204.875, 187.5625 206.3125" />
  <path stroke="black" stroke-width="0.5524271728019903" fill="none" d="M187.125 204.75 C 186.875 203.75, 186.5625 202.5, 186.40625 201.90625" />
  <path stroke="black" stroke-width="0.5524271728019903" fill="none" d="M187.125 204.75 C 190.15625 202.96875, 190.625 202.5, 191.65625 201.34375" />
  <path stroke="black" stroke-width="0.5524271728019903" fill="none" d="M191.65625 201.34375 C 189.21875 201.40625, 187.75 201.5, 186.40625 201.90625" />
  <path stroke="black" stroke-width="1.1048543456039805" fill="none" d="M299.125 211.375 C 264.6875 227.8125, 258.0 225.75, 216.4375 206.6875" />
  <path stroke="black" stroke-width="1.1048543456039805" fill="none" d="M229.25 225.25 C 220.375 213.375, 213.0 207.75, 200.0 200.0" />
  <path stroke="black" stroke-width="1.1048543456039805" fill="none" d="M262.5 231.25 C 251.375 227.125, 242.5 226.0, 229.25 225.25" />
  <path stroke="black" stroke-width="1.1048543456039805" fill="none" d="M262.5 262.5 C 262.5 248.75, 262.5 240.625, 262.5 231.25" />
  <path stroke="black" stroke-width="1.1048543456039805" fill="none" d="M293.75 262.5 C 281.25 262.5, 273.75 262.5, 262.5 262.5" />
  <path stroke="black" stroke-width="1.1048543456039805" fill="none" d="M293.75 262.5 C 297.875 251.375, 299.0 242.5, 299.75 229.25" />
  <path stroke="black" stroke-width="1.1048543456039805" fill="none" d="M299.75 229.25 C 281.25 236.875, 278.125 236.875, 262.5 231.25" />
  <path stroke="black" stroke-width="1.1048543456039805" fill="none" d="M299.75 229.25 C 311.625 220.375, 317.25 213.0, 325.0 200.0" />
  <path stroke="black" stroke-width="1.1048543456039805" fill="none" d="M325.0 200.0 C 314.625 197.375, 308.125 196.5, 297.75 198.0" />
  <path stroke="black" stroke-width="1.1048543456039805" fill="none" d="M297.75 198.0 C 280.125 198.875, 281.75 214.25, 262.5 215.375" />
  <path stroke="black" stroke-width="1.1048543456039805" fill="none" d="M262.5 215.375 C 259.375 215.625, 253.125 215.625, 246.875 215.625" />
  <path stroke="black" stroke-width="1.1048543456039805" fill="none" d="M246.875 215.625 C 239.25 212.125, 234.25 208.25, 227.25 202.0" />
  <path stroke="black" stroke-width="1.1048543456039805" fill="none" d="M227.25 202.0 C 216.875 203.5, 210.375 202.625, 200.0 200.0" />
  <path stroke="black" stroke-width="1.1048543456039805" fill="none" d="M297.75 198.0 C 290.75 191.75, 285.75 187.875, 278.125 184.375" />
  <path stroke="black" stroke-width="1.1048543456039805" fill="none" d="M278.125 184.375 C 270.3125 192.1875, 267.1875 195.3125, 262.5 200.0" />
  <path stroke="black" stroke-width="1.1048543456039805" fill="none" d="M262.5 200.0 C 262.5 205.0, 262.5 211.25, 262.5 215.375" />
  <path stroke="black" stroke-width="1.1048543456039805" fill="none" d="M287.1875 198.4375 C 284.625 193.125, 281.25 190.5, 275.3125 188.8125" />
  <path stroke="black" stroke-width="1.1048543456039805" fill="none" d="M279.0625 203.4375 C 277.625 197.375, 275.75 194.875, 271.0625 192.8125" />
  <path stroke="black" stroke-width="1.1048543456039805" fill="none" d="M272.125 209.375 C 272.75 202.25, 271.625 200.625, 267.125 196.75" />
  <path stroke="black" stroke-width="1.1048543456039805" fill="none" d="M260.4375 208.1875 C 258.4375 208.4375, 256.5625 208.4375, 255.6875 208.0625" />
  <path stroke="black" stroke-width="1.1048543456039805" fill="none" d="M260.4375 211.9375 C 256.875 213.125, 255.0 213.125, 252.0625 211.4375" />
  <path stroke="black" stroke-width="1.1048543456039805" fill="none" d="M287.9375 258.3125 C 292.5 248.125, 291.875 241.25, 289.625 235.125" />
  <path stroke="black" stroke-width="1.1048543456039805" fill="none" d="M281.8125 258.3125 C 285.0 247.5, 285.0 243.75, 283.4375 236.5625" />
  <path stroke="black" stroke-width="1.1048543456039805" fill="none" d="M273.9375 258.3125 C 278.125 248.125, 278.125 243.125, 276.3125 236.1875" />
  <path stroke="black" stroke-width="1.1048543456039805" fill="none" d="M267.8125 259.9375 C 271.25 246.25, 271.25 241.25, 270.125 234.875" />
  <path stroke="black" stroke-width="1.1048543456039805" fill="none" d="M300.3125 218.0625 C 300.125 215.5, 300.125 214.25, 300.125 212.625" />
  <path stroke="black" stroke-width="1.1048543456039805" fill="none" d="M300.3125 218.0625 C 304.25 215.5, 307.375 212.375, 310.375 208.0" />
  <path stroke="black" stroke-width="1.1048543456039805" fill="none" d="M310.375 208.0 C 307.9375 206.4375, 303.75 209.75, 300.125 212.625" />
  <path stroke="black" stroke-width="1.1048543456039805" fill="none" d="M299.25 209.5 C 298.75 207.5, 298.125 205.0, 297.8125 203.8125" />
  <path stroke="black" stroke-width="1.1048543456039805" fill="none" d="M299.25 209.5 C 305.3125 205.9375, 306.25 205.0, 308.3125 202.6875" />
  <path stroke="black" stroke-width="1.1048543456039805" fill="none" d="M308.3125 202.6875 C 303.4375 202.8125, 300.5 203.0, 297.8125 203.8125" />
  <path stroke="black" stroke-width="1.1048543456039805" fill="none" d="M211.375 225.875 C 227.8125 260.3125, 225.75 267.0, 206.6875 308.5625" />
  <path stroke="black" stroke-width="1.1048543456039805" fill="none" d="M225.25 295.75 C 213.375 304.625, 207.75 312.0, 200.0 325.0" />
  <path stroke="black" stroke-width="1.1048543456039805" fill="none" d="M231.25 262.5 C 227.125 273.625, 226.0 282.5, 225.25 295.75" />
  <path stroke="black" stroke-width="1.1048543456039805" fill="none" d="M262.5 262.5 C 248.75 262.5, 240.625 262.5, 231.25 262.5" />
  <path stroke="black" stroke-width="1.1048543456039805" fill="none" d="M262.5 231.25 C 262.5 243.75, 262.5 251.25, 262.5 262.5" />
  <path stroke="black" stroke-width="1.1048543456039805" fill="none" d="M262.5 231.25 C 251.375 227.125, 242.5 226.0, 229.25 225.25" />
  <path stroke="black" stroke-width="1.1048543456039805" fill="none" d="M229.25 225.25 C 236.875 243.75, 236.875 246.875, 231.25 262.5" />
  <path stroke="black" stroke-width="1.1048543456039805" fill="none" d="M229.25 225.25 C 220.375 213.375, 213.0 207.75, 200.0 200.0" />
  <path stroke="black" stroke-width="1.1048543456039805" fill="none" d="M200.0 200.0 C 197.375 210.375, 196.5 216.875, 198.0 227.25" />
  <path stroke="black" stroke-width="1.1048543456039805" fill="none" d="M198.0 227.25 C 198.875 244.875, 214.25 243.25, 215.375 262.5" />
  <path stroke="black" stroke-width="1.1048543456039805" fill="none" d="M215.375 262.5 C 215.625 265.625, 215.625 271.875, 215.625 278.125" />
  <path stroke="black" stroke-width="1.1048543456039805" fill="none" d="M215.625 278.125 C 212.125 285.75, 208.25 290.75, 202.0 297.75" />
  <path stroke="black" stroke-width="1.1048543456039805" fill="none" d="M202.0 297.75 C 203.5 308.125, 202.625 314.625, 200.0 325.0" />
  <path stroke="black" stroke-width="1.1048543456039805" fill="none" d="M198.0 227.25 C 191.75 234.25, 187.875 239.25, 184.375 246.875" />
  <path stroke="black" stroke-width="1.1048543456039805" fill="none" d="M184.375 246.875 C 192.1875 254.6875, 195.3125 257.8125, 200.0 262.5" />
  <path stroke="black" stroke-width="1.1048543456039805" fill="none" d="M200.0 262.5 C 205.0 262.5, 211.25 262.5, 215.375 262.5" />
  <path stroke="black" stroke-width="1.1048543456039805" fill="none" d="M198.4375 237.8125 C 193.125 240.375, 190.5 243.75, 188.8125 249.6875" />
  <path stroke="black" stroke-width="1.1048543456039805" fill="none" d="M203.4375 245.9375 C 197.375 247.375, 194.875 249.25, 192.8125 253.9375" />
  <path stroke="black" stroke-width="1.1048543456039805" fill="none" d="M209.375 252.875 C 202.25 252.25, 200.625 253.375, 196.75 257.875" />
  <path stroke="black" stroke-width="1.1048543456039805" fill="none" d="M208.1875 264.5625 C 208.4375 266.5625, 208.4375 268.4375, 208.0625 269.3125" />
  <path stroke="black" stroke-width="1.1048543456039805" fill="none" d="M211.9375 264.5625 C 213.125 268.125, 213.125 270.0, 211.4375 272.9375" />
  <path stroke="black" stroke-width="1.1048543456039805" fill="none" d="M258.3125 237.0625 C 248.125 232.5, 241.25 233.125, 235.125 235.375" />
  <path stroke="black" stroke-width="1.1048543456039805" fill="none" d="M258.3125 243.1875 C 247.5 240.0, 243.75 240.0, 236.5625 241.5625" />
  <path stroke="black" stroke-width="1.1048543456039805" fill="none" d="M258.3125 251.0625 C 248.125 246.875, 243.125 246.875, 236.1875 248.6875" />
  <path stroke="black" stroke-width="1.1048543456039805" fill="none" d="M259.9375 257.1875 C 246.25 253.75, 241.25 253.75, 234.875 254.875" />
  <path stroke="black" stroke-width="1.1048543456039805" fill="none" d="M218.0625 224.6875 C 215.5 224.875, 214.25 224.875, 212.625 224.875" />
  <path stroke="black" stroke-width="1.1048543456039805" fill="none" d="M218.0625 224.6875 C 215.5 220.75, 212.375 217.625, 208.0 214.625" />
  <path stroke="black" stroke-width="1.1048543456039805" fill="none" d="M208.0 214.625 C 206.4375 217.0625, 209.75 221.25, 212.625 224.875" />
  <path stroke="black" stroke-width="1.1048543456039805" fill="none" d="M209.5 225.75 C 207.5 226.25, 205.0 226.875, 203.8125 227.1875" />
  <path stroke="black" stroke-width="1.1048543456039805" fill="none" d="M209.5 225.75 C 205.9375 219.6875, 205.0 218.75, 202.6875 216.6875" />
  <path stroke="black" stroke-width="1.1048543456039805" fill="none" d="M202.6875 216.6875 C 202.8125 221.5625, 203.0 224.5, 203.8125 227.1875" />
  <path stroke="black" stroke-width="1.1048543456039805" fill="none" d="M225.875 313.625 C 260.3125 297.1875, 267.0 299.25, 308.5625 318.3125" />
  <path stroke="black" stroke-width="1.1048543456039805" fill="none" d="M295.75 299.75 C 304.625 311.625, 312.0 317.25, 325.0 325.0" />
  <path stroke="black" stroke-width="1.1048543456039805" fill="none" d="M262.5 293.75 C 273.625 297.875, 282.5 299.0, 295.75 299.75" />
  <path stroke="black" stroke-width="1.1048543456039805" fill="none" d="M262.5 262.5 C 262.5 276.25, 262.5 284.375, 262.5 293.75" />
  <path stroke="black" stroke-width="1.1048543456039805" fill="none" d="M231.25 262.5 C 243.75 262.5, 251.25 262.5, 262.5 262.5" />
  <path stroke="black" stroke-width="1.1048543456039805" fill="none" d="M231.25 262.5 C 227.125 273.625, 226.0 282.5, 225.25 295.75" />
  <path stroke="black" stroke-width="1.1048543456039805" fill="none" d="M225.25 295.75 C 243.75 288.125, 246.875 288.125, 262.5 293.75" />
  <path stroke="black" stroke-width="1.1048543456039805" fill="none" d="M225.25 295.75 C 213.375 304.625, 207.75 312.0, 200.0 325.0" />
  <path stroke="black" stroke-width="1.1048543456039805" fill="none" d="M200.0 325.0 C 210.375 327.625, 216.875 328.5, 227.25 327.0" />
  <path stroke="black" stroke-width="1.1048543456039805" fill="none" d="M227.25 327.0 C 244.875 326.125, 243.25 310.75, 262.5 309.625" />
  <path stroke="black" stroke-width="1.1048543456039805" fill="none" d="M262.5 309.625 C 265.625 309.375, 271.875 309.375, 278.125 309.375" />
  <path stroke="black" stroke-width="1.1048543456039805" fill="none" d="M278.125 309.375 C 285.75 312.875, 290.75 316.75, 297.75 323.0" />
  <path stroke="black" stroke-width="1.1048543456039805" fill="none" d="M297.75 323.0 C 308.125 321.5, 314.625 322.375, 325.0 325.0" />
  <path stroke="black" stroke-width="1.1048543456039805" fill="none" d="M227.25 327.0 C 234.25 333.25, 239.25 337.125, 246.875 340.625" />
  <path stroke="black" stroke-width="1.1048543456039805" fill="none" d="M246.875 340.625 C 254.6875 332.8125, 257.8125 329.6875, 262.5 325.0" />
  <path stroke="black" stroke-width="1.1048543456039805" fill="none" d="M262.5 325.0 C 262.5 320.0, 262.5 313.75, 262.5 309.625" />
  <path stroke="black" stroke-width="1.1048543456039805" fill="none" d="M237.8125 326.5625 C 240.375 331.875, 243.75 334.5, 249.6875 336.1875" />
  <path stroke="black" stroke-width="1.1048543456039805" fill="none" d="M245.9375 321.5625 C 247.375 327.625, 249.25 330.125, 253.9375 332.1875" />
  <path stroke="black" stroke-width="1.1048543456039805" fill="none" d="M252.875 315.625 C 252.25 322.75, 253.375 324.375, 257.875 328.25" />
  <path stroke="black" stroke-width="1.1048543456039805" fill="none" d="M264.5625 316.8125 C 266.5625 316.5625, 268.4375 316.5625, 269.3125 316.9375" />
  <path stroke="black" stroke-width="1.1048543456039805" fill="none" d="M264.5625 313.0625 C 268.125 311.875, 270.0 311.875, 272.9375 313.5625" />
  <path stroke="black" stroke-width="1.1048543456039805" fill="none" d="M237.0625 266.6875 C 232.5 276.875, 233.125 283.75, 235.375 289.875" />
  <path stroke="black" stroke-width="1.1048543456039805" fill="none" d="M243.1875 266.6875 C 240.0 277.5, 240.0 281.25, 241.5625 288.4375" />
  <path stroke="black" stroke-width="1.1048543456039805" fill="none" d="M251.0625 266.6875 C 246.875 276.875, 246.875 281.875, 248.6875 288.8125" />
  <path stroke="black" stroke-width="1.1048543456039805" fill="none" d="M257.1875 265.0625 C 253.75 278.75, 253.75 283.75, 254.875 290.125" />
  <path stroke="black" stroke-width="1.1048543456039805" fill="none" d="M224.6875 306.9375 C 224.875 309.5, 224.875 310.75, 224.875 312.375" />
  <path stroke="black" stroke-width="1.1048543456039805" fill="none" d="M224.6875 306.9375 C 220.75 309.5, 217.625 312.625, 214.625 317.0" />
  <path stroke="black" stroke-width="1.1048543456039805" fill="none" d="M214.625 317.0 C 217.0625 318.5625, 221.25 315.25, 224.875 312.375" />
  <path stroke="black" stroke-width="1.1048543456039805" fill="none" d="M225.75 315.5 C 226.25 317.5, 226.875 320.0, 227.1875 321.1875" />
  <path stroke="black" stroke-width="1.1048543456039805" fill="none" d="M225.75 315.5 C 219.6875 319.0625, 218.75 320.0, 216.6875 322.3125" />
  <path stroke="black" stroke-width="1.1048543456039805" fill="none" d="M216.6875 322.3125 C 221.5625 322.1875, 224.5 322.0, 227.1875 321.1875" />
  <path stroke="black" stroke-width="1.1048543456039805" fill="none" d="M313.625 299.125 C 297.1875 264.6875, 299.25 258.0, 318.3125 216.4375" />
  <path stroke="black" stroke-width="1.1048543456039805" fill="none" d="M299.75 229.25 C 311.625 220.375, 317.25 213.0, 325.0 200.0" />
  <path stroke="black" stroke-width="1.1048543456039805" fill="none" d="M293.75 262.5 C 297.875 251.375, 299.0 242.5, 299.75 229.25" />
  <path stroke="black" stroke-width="1.1048543456039805" fill="none" d="M262.5 262.5 C 276.25 262.5, 284.375 262.5, 293.75 262.5" />
  <path stroke="black" stroke-width="1.1048543456039805" fill="none" d="M262.5 293.75 C 262.5 281.25, 262.5 273.75, 262.5 262.5" />
  <path stroke="black" stroke-width="1.1048543456039805" fill="none" d="M262.5 293.75 C 273.625 297.875, 282.5 299.0, 295.75 299.75" />
  <path stroke="black" stroke-width="1.1048543456039805" fill="none" d="M295.75 299.75 C 288.125 281.25, 288.125 278.125, 293.75 262.5" />
  <path stroke="black" stroke-width="1.1048543456039805" fill="none" d="M295.75 299.75 C 304.625 311.625, 312.0 317.25, 325.0 325.0" />
  <path stroke="black" stroke-width="1.1048543456039805" fill="none" d="M325.0 325.0 C 327.625 314.625, 328.5 308.125, 327.0 297.75" />
  <path stroke="black" stroke-width="1.1048543456039805" fill="none" d="M327.0 297.75 C 326.125 280.125, 310.75 281.75, 309.625 262.5" />
  <path stroke="black" stroke-width="1.1048543456039805" fill="none" d="M309.625 262.5 C 309.375 259.375, 309.375 253.125, 309.375 246.875" />
  <path stroke="black" stroke-width="1.1048543456039805" fill="none" d="M309.375 246.875 C 312.875 239.25, 316.75 234.25, 323.0 227.25" />
  <path stroke="black" stroke-width="1.1048543456039805" fill="none" d="M323.0 227.25 C 321.5 216.875, 322.375 210.375, 325.0 200.0" />
  <path stroke="black" stroke-width="1.1048543456039805" fill="none" d="M327.0 297.75 C 333.25 290.75, 337.125 285.75, 340.625 278.125" />
  <path stroke="black" stroke-width="1.1048543456039805" fill="none" d="M340.625 278.125 C 332.8125 270.3125, 329.6875 267.1875, 325.0 262.5" />
  <path stroke="black" stroke-width="1.1048543456039805" fill="none" d="M325.0 262.5 C 320.0 262.5, 313.75 262.5, 309.625 262.5" />
  <path stroke="black" stroke-width="1.1048543456039805" fill="none" d="M326.5625 287.1875 C 331.875 284.625, 334.5 281.25, 336.1875 275.3125" />
  <path stroke="black" stroke-width="1.1048543456039805" fill="none" d="M321.5625 279.0625 C 327.625 277.625, 330.125 275.75, 332.1875 271.0625" />
  <path stroke="black" stroke-width="1.1048543456039805" fill="none" d="M315.625 272.125 C 322.75 272.75, 324.375 271.625, 328.25 267.125" />
  <path stroke="black" stroke-width="1.1048543456039805" fill="none" d="M316.8125 260.4375 C 316.5625 258.4375, 316.5625 256.5625, 316.9375 255.6875" />
  <path stroke="black" stroke-width="1.1048543456039805" fill="none" d="M313.0625 260.4375 C 311.875 256.875, 311.875 255.0, 313.5625 252.0625" />
  <path stroke="black" stroke-width="1.1048543456039805" fill="none" d="M266.6875 287.9375 C 276.875 292.5, 283.75 291.875, 289.875 289.625" />
  <path stroke="black" stroke-width="1.1048543456039805" fill="none" d="M266.6875 281.8125 C 277.5 285.0, 281.25 285.0, 288.4375 283.4375" />
  <path stroke="black" stroke-width="1.1048543456039805" fill="none" d="M266.6875 273.9375 C 276.875 278.125, 281.875 278.125, 288.8125 276.3125" />
  <path stroke="black" stroke-width="1.1048543456039805" fill="none" d="M265.0625 267.8125 C 278.75 271.25, 283.75 271.25, 290.125 270.125" />
  <path stroke="black" stroke-width="1.1048543456039805" fill="none" d="M306.9375 300.3125 C 309.5 300.125, 310.75 300.125, 312.375 300.125" />
  <path stroke="black" stroke-width="1.1048543456039805" fill="none" d="M306.9375 300.3125 C 309.5 304.25, 312.625 307.375, 317.0 310.375" />
  <path stroke="black" stroke-width="1.1048543456039805" fill="none" d="M317.0 310.375 C 318.5625 307.9375, 315.25 303.75, 312.375 300.125" />
  <path stroke="black" stroke-width="1.1048543456039805" fill="none" d="M315.5 299.25 C 317.5 298.75, 320.0 298.125, 321.1875 297.8125" />
  <path stroke="black" stroke-width="1.1048543456039805" fill="none" d="M315.5 299.25 C 319.0625 305.3125, 320.0 306.25, 322.3125 308.3125" />
  <path stroke="black" stroke-width="1.1048543456039805" fill="none" d="M322.3125 308.3125 C 322.1875 303.4375, 322.0 300.5, 321.1875 297.8125" />

</svg>
